<?xml version="1.0" encoding="UTF-8" standalone="no"?>
<!-- Created with Inkscape (http://www.inkscape.org/) -->

<svg
   xmlns:dc="http://purl.org/dc/elements/1.1/"
   xmlns:cc="http://creativecommons.org/ns#"
   xmlns:rdf="http://www.w3.org/1999/02/22-rdf-syntax-ns#"
   xmlns:svg="http://www.w3.org/2000/svg"
   xmlns="http://www.w3.org/2000/svg"
   xmlns:sodipodi="http://sodipodi.sourceforge.net/DTD/sodipodi-0.dtd"
   xmlns:inkscape="http://www.inkscape.org/namespaces/inkscape"
   width="80"
   height="60"
   viewBox="0 0 21.166668 15.875"
   version="1.1"
   id="svg8"
   inkscape:version="0.92.1 r15371"
   sodipodi:docname="water.svg">
  <defs
     id="defs2" />
  <sodipodi:namedview
     id="base"
     pagecolor="#ffffff"
     bordercolor="#666666"
     borderopacity="1.0"
     inkscape:pageopacity="0.0"
     inkscape:pageshadow="2"
     inkscape:zoom="8"
     inkscape:cx="26.911909"
     inkscape:cy="25.986431"
     inkscape:document-units="px"
     inkscape:current-layer="layer1"
     showgrid="true"
     units="px"
     inkscape:pagecheckerboard="true"
     inkscape:window-width="1366"
     inkscape:window-height="704"
     inkscape:window-x="0"
     inkscape:window-y="27"
     inkscape:window-maximized="1">
    <inkscape:grid
       type="axonomgrid"
       id="grid4487"
       units="px"
       empspacing="4"
       originx="10.583334"
       originy="7.9375002"
       spacingy="0.66145835"
       gridanglex="30" />
  </sodipodi:namedview>
  <metadata
     id="metadata5">
    <rdf:RDF>
      <cc:Work
         rdf:about="">
        <dc:format>image/svg+xml</dc:format>
        <dc:type
           rdf:resource="http://purl.org/dc/dcmitype/StillImage" />
        <dc:title />
      </cc:Work>
    </rdf:RDF>
  </metadata>
  <g
     inkscape:label="Layer 1"
     inkscape:groupmode="layer"
     id="layer1"
     transform="translate(0,-281.125)">
    <path
       style="opacity:1;vector-effect:none;fill:#388fff;fill-opacity:1;stroke:none;stroke-width:0.13229167;stroke-linecap:butt;stroke-linejoin:miter;stroke-miterlimit:4;stroke-dasharray:none;stroke-dashoffset:0;stroke-opacity:1;font-variant-east_asian:normal"
       d="m 10.583334,283.70469 9.280004,5.35781 -9.280004,5.35781 -9.2800037,-5.35781 z"
       id="path4526"
       inkscape:connector-curvature="0"
       sodipodi:nodetypes="ccccc" />
    <path
       style="opacity:1;vector-effect:none;fill:#4b9aff;fill-opacity:1;stroke:none;stroke-width:0.5;stroke-linecap:butt;stroke-linejoin:miter;stroke-miterlimit:4;stroke-dasharray:none;stroke-dashoffset:0;stroke-opacity:1"
       d="M 35.669922 12.5 L 31.339844 15 L 35.669922 17.5 L 40 15 L 35.669922 12.5 z M 40 15 L 44.330078 17.5 L 48.660156 15 L 44.330078 12.5 L 40 15 z M 22.679688 20 L 18.349609 22.5 L 22.679688 25 L 27.009766 22.5 L 22.679688 20 z M 27.009766 22.5 L 31.339844 25 L 35.669922 22.5 L 31.339844 20 L 27.009766 22.5 z M 44.330078 22.5 L 40 25 L 44.330078 27.5 L 48.660156 25 L 44.330078 22.5 z M 48.660156 25 L 52.990234 27.5 L 57.320312 25 L 52.990234 22.5 L 48.660156 25 z M 65.980469 25 L 61.650391 27.5 L 65.980469 30 L 70.310547 27.5 L 65.980469 25 z M 9.6894531 27.5 L 5.359375 30 L 9.6894531 32.5 L 14.019531 30 L 9.6894531 27.5 z M 14.019531 30 L 18.349609 32.5 L 22.679688 30 L 18.349609 27.5 L 14.019531 30 z M 35.669922 27.5 L 31.339844 30 L 35.669922 32.5 L 40 30 L 35.669922 27.5 z M 48.660156 30 L 44.330078 32.5 L 48.660156 35 L 52.990234 32.5 L 48.660156 30 z M 52.990234 32.5 L 57.320312 35 L 61.650391 32.5 L 57.320312 30 L 52.990234 32.5 z M 22.679688 35 L 18.349609 37.5 L 22.679688 40 L 27.009766 37.5 L 22.679688 35 z M 27.009766 37.5 L 31.339844 40 L 35.669922 37.5 L 31.339844 35 L 27.009766 37.5 z M 40 40 L 35.669922 42.5 L 40 45 L 44.330078 42.5 L 40 40 z M 44.330078 42.5 L 48.660156 45 L 52.990234 42.5 L 48.660156 40 L 44.330078 42.5 z "
       transform="matrix(0.26458334,0,0,0.26458334,0,281.125)"
       id="path5799" />
  </g>
</svg>
