<?xml version="1.0" encoding="UTF-8" standalone="no"?>
<!-- Created with Inkscape (http://www.inkscape.org/) -->

<svg
   xmlns:dc="http://purl.org/dc/elements/1.1/"
   xmlns:cc="http://creativecommons.org/ns#"
   xmlns:rdf="http://www.w3.org/1999/02/22-rdf-syntax-ns#"
   xmlns:svg="http://www.w3.org/2000/svg"
   xmlns="http://www.w3.org/2000/svg"
   xmlns:sodipodi="http://sodipodi.sourceforge.net/DTD/sodipodi-0.dtd"
   xmlns:inkscape="http://www.inkscape.org/namespaces/inkscape"
   width="160"
   height="140"
   viewBox="0 0 42.333337 37.041666"
   version="1.1"
   id="svg8"
   inkscape:version="0.92.1 r15371"
   sodipodi:docname="camp.svg">
  <defs
     id="defs2" />
  <sodipodi:namedview
     id="base"
     pagecolor="#ffffff"
     bordercolor="#666666"
     borderopacity="1.0"
     inkscape:pageopacity="0.0"
     inkscape:pageshadow="2"
     inkscape:zoom="5.6568542"
     inkscape:cx="36.407399"
     inkscape:cy="55.013137"
     inkscape:document-units="px"
     inkscape:current-layer="layer1"
     showgrid="true"
     units="px"
     inkscape:pagecheckerboard="true"
     inkscape:window-width="1366"
     inkscape:window-height="704"
     inkscape:window-x="0"
     inkscape:window-y="27"
     inkscape:window-maximized="1">
    <inkscape:grid
       type="axonomgrid"
       id="grid4487"
       units="px"
       empspacing="4"
       originx="21.166667"
       originy="13.229167"
       spacingy="0.66145835"
       gridanglex="30" />
  </sodipodi:namedview>
  <metadata
     id="metadata5">
    <rdf:RDF>
      <cc:Work
         rdf:about="">
        <dc:format>image/svg+xml</dc:format>
        <dc:type
           rdf:resource="http://purl.org/dc/dcmitype/StillImage" />
        <dc:title />
      </cc:Work>
    </rdf:RDF>
  </metadata>
  <g
     inkscape:label="Layer 1"
     inkscape:groupmode="layer"
     id="layer1"
     transform="translate(0,-259.95834)">
    <path
       style="fill:#b6b6b6;stroke:none;stroke-width:0.13229167;stroke-linecap:butt;stroke-linejoin:miter;stroke-opacity:1;font-variant-east_asian:normal;opacity:1;vector-effect:none;fill-opacity:1;stroke-miterlimit:4;stroke-dasharray:none;stroke-dashoffset:0"
       d="m 9.7098723,287.73959 11.4567947,-6.61458 11.456795,6.61458 -11.456795,6.61458 z"
       id="path9583"
       inkscape:connector-curvature="0" />
    <path
       style="fill:#10b12f;stroke:none;stroke-width:0.26458335px;stroke-linecap:butt;stroke-linejoin:miter;stroke-opacity:1;font-variant-east_asian:normal;opacity:1;vector-effect:none;fill-opacity:1;stroke-miterlimit:4;stroke-dasharray:none;stroke-dashoffset:0"
       d="m 12.001231,287.73959 9.165436,-5.29167 9.165434,5.29167 -9.165434,5.29167 z"
       id="path7770"
       inkscape:connector-curvature="0" />
    <path
       style="fill:#000000;stroke:none;stroke-width:0.26458335px;stroke-linecap:butt;stroke-linejoin:miter;stroke-opacity:1;font-variant-east_asian:normal;opacity:1;vector-effect:none;fill-opacity:0.1254902;stroke-miterlimit:4;stroke-dasharray:none;stroke-dashoffset:0"
       d="m 5.1271544,283.77084 4.5827179,2.64583 12.6024737,-7.27604 12.602474,7.27604 4.582718,-2.64583 -17.185192,-9.92187 z"
       id="path6935"
       inkscape:connector-curvature="0"
       sodipodi:nodetypes="ccccccc" />
    <path
       style="opacity:1;vector-effect:none;fill:#cdcdcd;fill-opacity:1;stroke:none;stroke-width:1px;stroke-linecap:butt;stroke-linejoin:miter;stroke-miterlimit:4;stroke-dasharray:none;stroke-dashoffset:0;stroke-opacity:1"
       d="M 67.009766 32.5 L 67.009766 47.5 L 80 55 L 80 40 L 67.009766 32.5 z M 80 55 L 80 70 L 127.63086 97.5 L 127.63086 82.5 L 80 55 z M 19.378906 75 L 19.378906 90 L 32.369141 97.5 L 32.369141 82.5 L 19.378906 75 z "
       id="path5187"
       transform="matrix(0.26458334,0,0,0.26458334,0,259.95834)" />
    <path
       style="opacity:1;vector-effect:none;fill:#808080;fill-opacity:1;stroke:none;stroke-width:1px;stroke-linecap:butt;stroke-linejoin:miter;stroke-miterlimit:4;stroke-dasharray:none;stroke-dashoffset:0;stroke-opacity:1"
       d="M 92.990234 32.5 L 80 40 L 80 55 L 92.990234 47.5 L 92.990234 32.5 z M 80 55 L 32.369141 82.5 L 32.369141 97.5 L 80 70 L 80 55 z M 140.62109 75 L 127.63086 82.5 L 127.63086 97.5 L 140.62109 90 L 140.62109 75 z "
       id="path5205"
       transform="matrix(0.26458334,0,0,0.26458334,0,259.95834)" />
    <g
       id="g10028">
      <path
         sodipodi:nodetypes="cccc"
         inkscape:connector-curvature="0"
         id="path5599"
         d="m 18.875309,270.54168 1.145679,0.66145 -1.14568,0.66146 z"
         style="opacity:1;vector-effect:none;fill:#696969;fill-opacity:1;stroke:none;stroke-width:0.26458335px;stroke-linecap:butt;stroke-linejoin:miter;stroke-miterlimit:4;stroke-dasharray:none;stroke-dashoffset:0;stroke-opacity:1" />
      <path
         inkscape:connector-curvature="0"
         id="path5603"
         d="m 20.020988,271.20313 -1.145679,0.66146 1.145679,0.66146 z"
         style="opacity:1;vector-effect:none;fill:#e0e0e0;fill-opacity:1;stroke:none;stroke-width:0.26458335px;stroke-linecap:butt;stroke-linejoin:miter;stroke-miterlimit:4;stroke-dasharray:none;stroke-dashoffset:0;stroke-opacity:1" />
    </g>
    <g
       id="g10061">
      <path
         sodipodi:nodetypes="cccc"
         style="opacity:1;vector-effect:none;fill:#464646;fill-opacity:1;stroke:none;stroke-width:0.26458335px;stroke-linecap:butt;stroke-linejoin:miter;stroke-miterlimit:4;stroke-dasharray:none;stroke-dashoffset:0;stroke-opacity:1"
         d="m 23.458026,270.54167 -1.145679,0.66145 1.145679,0.66147 z"
         id="path5601"
         inkscape:connector-curvature="0" />
      <path
         style="opacity:1;vector-effect:none;fill:#696969;fill-opacity:1;stroke:none;stroke-width:0.26458335px;stroke-linecap:butt;stroke-linejoin:miter;stroke-miterlimit:4;stroke-dasharray:none;stroke-dashoffset:0;stroke-opacity:1"
         d="m 22.312347,271.20313 1.145679,0.66146 -1.145679,0.66146 z"
         id="path5605"
         inkscape:connector-curvature="0" />
    </g>
    <path
       style="opacity:1;vector-effect:none;fill:#e9bb4c;fill-opacity:1;stroke:none;stroke-width:1px;stroke-linecap:butt;stroke-linejoin:miter;stroke-miterlimit:4;stroke-dasharray:none;stroke-dashoffset:0;stroke-opacity:1"
       d="M 80 25 L 67.009766 32.5 L 80 40 L 92.990234 32.5 L 80 25 z M 67.009766 47.5 L 19.376953 75 L 32.369141 82.5 L 80 55 L 67.009766 47.5 z M 80 55 L 127.63086 82.5 L 140.62109 75 L 92.988281 47.5 L 80 55 z "
       transform="matrix(0.26458334,0,0,0.26458334,0,259.95834)"
       id="path6857" />
    <path
       style="opacity:1;vector-effect:none;fill:#df6a00;fill-opacity:1;stroke:none;stroke-width:1px;stroke-linecap:butt;stroke-linejoin:miter;stroke-miterlimit:4;stroke-dasharray:none;stroke-dashoffset:0;stroke-opacity:1"
       d="M 92.990234 67.5 L 92.990234 77.5 L 97.320312 80 L 97.320312 70 L 92.990234 67.5 z M 110.31055 77.5 L 110.31055 87.5 L 114.64062 90 L 114.64062 80 L 110.31055 77.5 z "
       transform="matrix(0.26458334,0,0,0.26458334,0,259.95834)"
       id="path7904" />
    <path
       style="opacity:1;vector-effect:none;fill:#894000;fill-opacity:1;stroke:none;stroke-width:1px;stroke-linecap:butt;stroke-linejoin:miter;stroke-miterlimit:4;stroke-dasharray:none;stroke-dashoffset:0;stroke-opacity:1"
       d="M 67.009766 67.5 L 62.679688 70 L 62.679688 80 L 67.009766 77.5 L 67.009766 67.5 z M 49.689453 77.5 L 45.359375 80 L 45.359375 90 L 49.689453 87.5 L 49.689453 77.5 z "
       transform="matrix(0.26458334,0,0,0.26458334,0,259.95834)"
       id="path6914" />
    <path
       style="opacity:1;vector-effect:none;fill:#c2c2c2;fill-opacity:1;stroke:none;stroke-width:1px;stroke-linecap:butt;stroke-linejoin:miter;stroke-miterlimit:4;stroke-dasharray:none;stroke-dashoffset:0;stroke-opacity:1"
       d="m 67.009766,37.5 v 5 l 4.330078,2.5 v -5 z m 4.330078,7.5 v 5 l 4.40625,2.369141 L 75.669922,47.5 Z M 80,55 v 5 l 4.330078,2.5 v -5 z m 4.330078,7.5 v 5 l 4.330078,2.5 v -5 z m 0,5 L 80,65 v 5 l 4.330078,2.5 z m 8.660156,-5 v 5 l 4.330078,2.5 v -5 z m 12.990526,7.500001 v 5 l 4.33007,2.5 v -5 z M 97.320312,75 v 5 l 4.330078,2.5 v -5 z m -73.611328,2.5 v 5 l 4.330078,2.5 v -5 z m 4.330078,7.5 v 5 l 4.330079,2.5 v -5 z m -8.660156,0 v 5 l 4.330078,2.5 v -5 z m 99.591794,2.5 v 5 l 4.33008,2.5 v -5 z"
       id="path7660"
       transform="matrix(0.26458334,0,0,0.26458334,0,259.95834)"
       inkscape:connector-curvature="0"
       sodipodi:nodetypes="cccccccccccccccccccccccccccccccccccccccccccccccccccccccccccc" />
    <path
       style="opacity:1;vector-effect:none;fill:#787878;fill-opacity:1;stroke:none;stroke-width:1px;stroke-linecap:butt;stroke-linejoin:miter;stroke-miterlimit:4;stroke-dasharray:none;stroke-dashoffset:0;stroke-opacity:1"
       d="M 92.990234 37.5 L 88.660156 40 L 88.660156 45 L 92.990234 42.5 L 92.990234 37.5 z M 84.330078 42.5 L 80 45 L 80 50 L 84.330078 47.5 L 84.330078 42.5 z M 75.669922 57.5 L 71.339844 60 L 71.339844 65 L 75.669922 62.5 L 75.669922 57.5 z M 75.669922 62.5 L 75.669922 67.5 L 80 65 L 80 60 L 75.669922 62.5 z M 71.339844 65 L 67.009766 67.5 L 67.009766 72.5 L 71.339844 70 L 71.339844 65 z M 58.349609 67.5 L 54.019531 70 L 54.019531 75 L 58.349609 72.5 L 58.349609 67.5 z M 58.349609 72.5 L 58.349609 77.5 L 62.679688 75 L 62.679688 70 L 58.349609 72.5 z M 45.359375 75 L 41.029297 77.5 L 41.029297 82.5 L 45.359375 80 L 45.359375 75 z M 54.019531 80 L 49.689453 82.5 L 49.689453 87.5 L 54.019531 85 L 54.019531 80 z M 140.62109 80 L 136.29102 82.5 L 136.29102 87.5 L 140.62109 85 L 140.62109 80 z M 136.29102 87.5 L 131.96094 90 L 131.96094 95 L 136.29102 92.5 L 136.29102 87.5 z M 36.699219 85 L 32.369141 87.5 L 32.369141 92.5 L 36.699219 90 L 36.699219 85 z M 45.359375 85 L 41.029297 87.5 L 41.029297 92.5 L 45.359375 90 L 45.359375 85 z "
       id="path7705"
       transform="matrix(0.26458334,0,0,0.26458334,0,259.95834)" />
    <path
       style="opacity:1;vector-effect:none;fill:#58a1ff;fill-opacity:1;stroke:none;stroke-width:0.13229167;stroke-linecap:butt;stroke-linejoin:miter;stroke-miterlimit:4;stroke-dasharray:none;stroke-dashoffset:0;stroke-opacity:1"
       d="m 21.166668,283.77084 -6.874078,3.96876 6.874076,3.96874 6.874078,-3.96875 z"
       id="path4675"
       inkscape:connector-curvature="0"
       sodipodi:nodetypes="ccccc" />
    <path
       style="opacity:1;vector-effect:none;fill:#71afff;fill-opacity:1;stroke:none;stroke-width:0.5;stroke-linecap:butt;stroke-linejoin:miter;stroke-miterlimit:4;stroke-dasharray:none;stroke-dashoffset:0;stroke-opacity:1;font-variant-east_asian:normal"
       d="M 80 95 L 75.669922 97.5 L 80 100 L 84.330078 97.5 L 80 95 z M 84.330078 97.5 L 88.660156 100 L 92.990234 97.5 L 88.660156 95 L 84.330078 97.5 z M 88.660156 100 L 84.330078 102.5 L 88.660156 105 L 92.990234 102.5 L 88.660156 100 z M 84.330078 102.5 L 80 100 L 75.669922 102.5 L 80 105 L 84.330078 102.5 z M 75.669922 102.5 L 71.339844 100 L 67.009766 102.5 L 71.339844 105 L 75.669922 102.5 z "
       transform="matrix(0.26458334,0,0,0.26458334,0,259.95834)"
       id="path7022" />
    <path
       style="opacity:1;vector-effect:none;fill:#0e9b2a;fill-opacity:1;stroke:none;stroke-width:1px;stroke-linecap:butt;stroke-linejoin:miter;stroke-miterlimit:4;stroke-dasharray:none;stroke-dashoffset:0;stroke-opacity:1"
       d="M 67.009766 112.5 L 62.679688 115 L 67.009766 117.5 L 71.339844 115 L 67.009766 112.5 z M 92.990234 112.5 L 88.660156 115 L 92.990234 117.5 L 97.320312 115 L 92.990234 112.5 z M 75.669922 117.5 L 71.339844 120 L 75.669922 122.5 L 80 120 L 75.669922 117.5 z M 80 120 L 84.330078 122.5 L 88.660156 120 L 84.330078 117.5 L 80 120 z "
       transform="matrix(0.26458334,0,0,0.26458334,0,259.95834)"
       id="path7738" />
    <path
       style="fill:#4c9aff;stroke:none;stroke-width:0.13229167;stroke-linecap:butt;stroke-linejoin:miter;stroke-opacity:1;fill-opacity:1;font-variant-east_asian:normal;opacity:1;vector-effect:none;stroke-miterlimit:4;stroke-dasharray:none;stroke-dashoffset:0"
       d="m 14.29259,287.73959 1.14568,0.66146 6.874076,-3.96875 -1.145679,-0.66146 z"
       id="path7788"
       inkscape:connector-curvature="0" />
    <path
       style="fill:#acacac;fill-opacity:1;stroke:none;stroke-width:1px;stroke-linecap:butt;stroke-linejoin:miter;stroke-opacity:1"
       d="M 75.669922 82.5 L 71.339844 85 L 75.669922 87.5 L 80 85 L 75.669922 82.5 z M 80 85 L 84.330078 87.5 L 88.660156 85 L 84.330078 82.5 L 80 85 z M 67.009766 87.5 L 62.679688 90 L 67.009766 92.5 L 71.339844 90 L 67.009766 87.5 z M 92.990234 87.5 L 88.660156 90 L 92.990234 92.5 L 97.320312 90 L 92.990234 87.5 z M 58.349609 92.5 L 54.019531 95 L 58.349609 97.5 L 62.679688 95 L 58.349609 92.5 z M 101.65039 92.5 L 97.320312 95 L 101.65039 97.5 L 105.98047 95 L 101.65039 92.5 z M 41.029297 102.5 L 36.699219 105 L 41.029297 107.5 L 45.359375 105 L 41.029297 102.5 z M 118.9707 102.5 L 114.64062 105 L 118.9707 107.5 L 123.30078 105 L 118.9707 102.5 z M 49.689453 107.5 L 45.359375 110 L 49.689453 112.5 L 54.019531 110 L 49.689453 107.5 z M 110.31055 107.5 L 105.98047 110 L 110.31055 112.5 L 114.64062 110 L 110.31055 107.5 z M 58.349609 112.5 L 54.019531 115 L 58.349609 117.5 L 62.679688 115 L 58.349609 112.5 z M 101.65039 112.5 L 97.320312 115 L 101.65039 117.5 L 105.98047 115 L 101.65039 112.5 z M 67.009766 117.5 L 62.679688 120 L 67.009766 122.5 L 71.339844 120 L 67.009766 117.5 z M 92.990234 117.5 L 88.660156 120 L 92.990234 122.5 L 97.320312 120 L 92.990234 117.5 z M 75.669922 122.5 L 71.339844 125 L 75.669922 127.5 L 80 125 L 75.669922 122.5 z M 80 125 L 84.330078 127.5 L 88.660156 125 L 84.330078 122.5 L 80 125 z "
       transform="matrix(0.26458334,0,0,0.26458334,0,259.95834)"
       id="path9617" />
    <g
       id="g8486"
       transform="translate(-1.1456797,0.66145165)">
      <path
         inkscape:connector-curvature="0"
         id="path8455"
         d="m 29.186424,287.07813 1.718519,0.99219 1.718519,-0.99219 -1.718519,-0.99219 z"
         style="opacity:1;vector-effect:none;fill:#000000;fill-opacity:0.1254902;stroke:none;stroke-width:0.26458335px;stroke-linecap:butt;stroke-linejoin:miter;stroke-miterlimit:4;stroke-dasharray:none;stroke-dashoffset:0;stroke-opacity:1" />
      <g
         transform="translate(15.166051,0.66146434)"
         id="g8412">
        <path
           style="opacity:1;vector-effect:none;fill:#319518;fill-opacity:1;stroke:none;stroke-width:0.26458335px;stroke-linecap:butt;stroke-linejoin:miter;stroke-miterlimit:4;stroke-dasharray:none;stroke-dashoffset:0;stroke-opacity:1"
           d="m 15.166052,287.07813 -1.145679,-0.66145 v -1.32292 l 1.145679,0.66146 z"
           id="path4516"
           inkscape:connector-curvature="0"
           sodipodi:nodetypes="ccccc" />
        <path
           sodipodi:nodetypes="ccccc"
           inkscape:connector-curvature="0"
           id="path4534"
           d="m 15.166052,287.07813 1.14568,-0.66145 v -1.32292 l -1.14568,0.66145 z"
           style="opacity:1;vector-effect:none;fill:#216610;fill-opacity:1;stroke:none;stroke-width:0.26458335px;stroke-linecap:butt;stroke-linejoin:miter;stroke-miterlimit:4;stroke-dasharray:none;stroke-dashoffset:0;stroke-opacity:1" />
        <path
           style="opacity:1;vector-effect:none;fill:#38a91b;fill-opacity:1;stroke:none;stroke-width:0.26458335px;stroke-linecap:butt;stroke-linejoin:miter;stroke-miterlimit:4;stroke-dasharray:none;stroke-dashoffset:0;stroke-opacity:1"
           d="m 15.166052,285.75523 -1.145679,-0.66147 1.145679,-0.66146 1.14568,0.66146 z"
           id="path4540"
           inkscape:connector-curvature="0"
           sodipodi:nodetypes="ccccc" />
      </g>
    </g>
    <g
       transform="translate(-5.1555579,-1.6536659)"
       id="g8498">
      <path
         style="opacity:1;vector-effect:none;fill:#000000;fill-opacity:0.1254902;stroke:none;stroke-width:0.26458335px;stroke-linecap:butt;stroke-linejoin:miter;stroke-miterlimit:4;stroke-dasharray:none;stroke-dashoffset:0;stroke-opacity:1"
         d="m 29.186424,287.07813 1.718519,0.99219 1.718519,-0.99219 -1.718519,-0.99219 z"
         id="path8488"
         inkscape:connector-curvature="0" />
      <g
         id="g8496"
         transform="translate(15.166051,0.66146434)">
        <path
           sodipodi:nodetypes="ccccc"
           inkscape:connector-curvature="0"
           id="path8490"
           d="m 15.166052,287.07813 -1.145679,-0.66145 v -1.32292 l 1.145679,0.66146 z"
           style="opacity:1;vector-effect:none;fill:#319518;fill-opacity:1;stroke:none;stroke-width:0.26458335px;stroke-linecap:butt;stroke-linejoin:miter;stroke-miterlimit:4;stroke-dasharray:none;stroke-dashoffset:0;stroke-opacity:1" />
        <path
           style="opacity:1;vector-effect:none;fill:#216610;fill-opacity:1;stroke:none;stroke-width:0.26458335px;stroke-linecap:butt;stroke-linejoin:miter;stroke-miterlimit:4;stroke-dasharray:none;stroke-dashoffset:0;stroke-opacity:1"
           d="m 15.166052,287.07813 1.14568,-0.66145 v -1.32292 l -1.14568,0.66145 z"
           id="path8492"
           inkscape:connector-curvature="0"
           sodipodi:nodetypes="ccccc" />
        <path
           sodipodi:nodetypes="ccccc"
           inkscape:connector-curvature="0"
           id="path8494"
           d="m 15.166052,285.75523 -1.145679,-0.66147 1.145679,-0.66146 1.14568,0.66146 z"
           style="opacity:1;vector-effect:none;fill:#38a91b;fill-opacity:1;stroke:none;stroke-width:0.26458335px;stroke-linecap:butt;stroke-linejoin:miter;stroke-miterlimit:4;stroke-dasharray:none;stroke-dashoffset:0;stroke-opacity:1" />
      </g>
    </g>
    <g
       id="g8510"
       transform="translate(-9.165436,-3.9687701)">
      <path
         inkscape:connector-curvature="0"
         id="path8500"
         d="m 29.186424,287.07813 1.718519,0.99219 1.718519,-0.99219 -1.718519,-0.99219 z"
         style="opacity:1;vector-effect:none;fill:#000000;fill-opacity:0.1254902;stroke:none;stroke-width:0.26458335px;stroke-linecap:butt;stroke-linejoin:miter;stroke-miterlimit:4;stroke-dasharray:none;stroke-dashoffset:0;stroke-opacity:1" />
      <g
         transform="translate(15.166051,0.66146434)"
         id="g8508">
        <path
           style="opacity:1;vector-effect:none;fill:#319518;fill-opacity:1;stroke:none;stroke-width:0.26458335px;stroke-linecap:butt;stroke-linejoin:miter;stroke-miterlimit:4;stroke-dasharray:none;stroke-dashoffset:0;stroke-opacity:1"
           d="m 15.166052,287.07813 -1.145679,-0.66145 v -1.32292 l 1.145679,0.66146 z"
           id="path8502"
           inkscape:connector-curvature="0"
           sodipodi:nodetypes="ccccc" />
        <path
           sodipodi:nodetypes="ccccc"
           inkscape:connector-curvature="0"
           id="path8504"
           d="m 15.166052,287.07813 1.14568,-0.66145 v -1.32292 l -1.14568,0.66145 z"
           style="opacity:1;vector-effect:none;fill:#216610;fill-opacity:1;stroke:none;stroke-width:0.26458335px;stroke-linecap:butt;stroke-linejoin:miter;stroke-miterlimit:4;stroke-dasharray:none;stroke-dashoffset:0;stroke-opacity:1" />
        <path
           style="opacity:1;vector-effect:none;fill:#38a91b;fill-opacity:1;stroke:none;stroke-width:0.26458335px;stroke-linecap:butt;stroke-linejoin:miter;stroke-miterlimit:4;stroke-dasharray:none;stroke-dashoffset:0;stroke-opacity:1"
           d="m 15.166052,285.75523 -1.145679,-0.66147 1.145679,-0.66146 1.14568,0.66146 z"
           id="path8506"
           inkscape:connector-curvature="0"
           sodipodi:nodetypes="ccccc" />
      </g>
    </g>
    <g
       transform="translate(-13.175314,-1.6536492)"
       id="g8522">
      <path
         style="opacity:1;vector-effect:none;fill:#000000;fill-opacity:0.1254902;stroke:none;stroke-width:0.26458335px;stroke-linecap:butt;stroke-linejoin:miter;stroke-miterlimit:4;stroke-dasharray:none;stroke-dashoffset:0;stroke-opacity:1"
         d="m 29.186424,287.07813 1.718519,0.99219 1.718519,-0.99219 -1.718519,-0.99219 z"
         id="path8512"
         inkscape:connector-curvature="0" />
      <g
         id="g8520"
         transform="translate(15.166051,0.66146434)">
        <path
           sodipodi:nodetypes="ccccc"
           inkscape:connector-curvature="0"
           id="path8514"
           d="m 15.166052,287.07813 -1.145679,-0.66145 v -1.32292 l 1.145679,0.66146 z"
           style="opacity:1;vector-effect:none;fill:#319518;fill-opacity:1;stroke:none;stroke-width:0.26458335px;stroke-linecap:butt;stroke-linejoin:miter;stroke-miterlimit:4;stroke-dasharray:none;stroke-dashoffset:0;stroke-opacity:1" />
        <path
           style="opacity:1;vector-effect:none;fill:#216610;fill-opacity:1;stroke:none;stroke-width:0.26458335px;stroke-linecap:butt;stroke-linejoin:miter;stroke-miterlimit:4;stroke-dasharray:none;stroke-dashoffset:0;stroke-opacity:1"
           d="m 15.166052,287.07813 1.14568,-0.66145 v -1.32292 l -1.14568,0.66145 z"
           id="path8516"
           inkscape:connector-curvature="0"
           sodipodi:nodetypes="ccccc" />
        <path
           sodipodi:nodetypes="ccccc"
           inkscape:connector-curvature="0"
           id="path8518"
           d="m 15.166052,285.75523 -1.145679,-0.66147 1.145679,-0.66146 1.14568,0.66146 z"
           style="opacity:1;vector-effect:none;fill:#38a91b;fill-opacity:1;stroke:none;stroke-width:0.26458335px;stroke-linecap:butt;stroke-linejoin:miter;stroke-miterlimit:4;stroke-dasharray:none;stroke-dashoffset:0;stroke-opacity:1" />
      </g>
    </g>
    <g
       id="g8534"
       transform="translate(-17.185192,0.66145505)">
      <path
         inkscape:connector-curvature="0"
         id="path8524"
         d="m 29.186424,287.07813 1.718519,0.99219 1.718519,-0.99219 -1.718519,-0.99219 z"
         style="opacity:1;vector-effect:none;fill:#000000;fill-opacity:0.1254902;stroke:none;stroke-width:0.26458335px;stroke-linecap:butt;stroke-linejoin:miter;stroke-miterlimit:4;stroke-dasharray:none;stroke-dashoffset:0;stroke-opacity:1" />
      <g
         transform="translate(15.166051,0.66146434)"
         id="g8532">
        <path
           style="opacity:1;vector-effect:none;fill:#319518;fill-opacity:1;stroke:none;stroke-width:0.26458335px;stroke-linecap:butt;stroke-linejoin:miter;stroke-miterlimit:4;stroke-dasharray:none;stroke-dashoffset:0;stroke-opacity:1"
           d="m 15.166052,287.07813 -1.145679,-0.66145 v -1.32292 l 1.145679,0.66146 z"
           id="path8526"
           inkscape:connector-curvature="0"
           sodipodi:nodetypes="ccccc" />
        <path
           sodipodi:nodetypes="ccccc"
           inkscape:connector-curvature="0"
           id="path8528"
           d="m 15.166052,287.07813 1.14568,-0.66145 v -1.32292 l -1.14568,0.66145 z"
           style="opacity:1;vector-effect:none;fill:#216610;fill-opacity:1;stroke:none;stroke-width:0.26458335px;stroke-linecap:butt;stroke-linejoin:miter;stroke-miterlimit:4;stroke-dasharray:none;stroke-dashoffset:0;stroke-opacity:1" />
        <path
           style="opacity:1;vector-effect:none;fill:#38a91b;fill-opacity:1;stroke:none;stroke-width:0.26458335px;stroke-linecap:butt;stroke-linejoin:miter;stroke-miterlimit:4;stroke-dasharray:none;stroke-dashoffset:0;stroke-opacity:1"
           d="m 15.166052,285.75523 -1.145679,-0.66147 1.145679,-0.66146 1.14568,0.66146 z"
           id="path8530"
           inkscape:connector-curvature="0"
           sodipodi:nodetypes="ccccc" />
      </g>
    </g>
    <path
       style="opacity:1;vector-effect:none;fill:#d56500;fill-opacity:1;stroke:none;stroke-width:1px;stroke-linecap:butt;stroke-linejoin:miter;stroke-miterlimit:4;stroke-dasharray:none;stroke-dashoffset:0;stroke-opacity:1"
       d="M 92.990234 67.5 L 92.990234 72.5 L 97.320312 75 L 97.320312 70 L 92.990234 67.5 z M 110.31055 77.5 L 110.31055 82.5 L 114.64062 85 L 114.64062 80 L 110.31055 77.5 z "
       transform="matrix(0.26458334,0,0,0.26458334,0,259.95834)"
       id="path4717" />
    <path
       style="opacity:1;vector-effect:none;fill:#7c3b00;fill-opacity:1;stroke:none;stroke-width:1px;stroke-linecap:butt;stroke-linejoin:miter;stroke-miterlimit:4;stroke-dasharray:none;stroke-dashoffset:0;stroke-opacity:1"
       d="M 67.009766 67.5 L 62.679688 70 L 62.679688 75 L 67.009766 72.5 L 67.009766 67.5 z M 49.689453 77.5 L 45.359375 80 L 45.359375 85 L 49.689453 82.5 L 49.689453 77.5 z "
       transform="matrix(0.26458334,0,0,0.26458334,0,259.95834)"
       id="path9681" />
    <path
       style="fill:#e3ab24;stroke:none;stroke-width:0.26458335px;stroke-linecap:butt;stroke-linejoin:miter;stroke-opacity:1;font-variant-east_asian:normal;opacity:1;vector-effect:none;fill-opacity:1;stroke-miterlimit:4;stroke-dasharray:none;stroke-dashoffset:0"
       d="m 8.5641928,281.78647 v -3.96875 l 9.1654362,-5.29167 3.437038,1.98437 z"
       id="path10008"
       inkscape:connector-curvature="0" />
    <path
       style="opacity:1;vector-effect:none;fill:#e3ab24;fill-opacity:1;stroke:none;stroke-width:0.26458335px;stroke-linecap:butt;stroke-linejoin:miter;stroke-miterlimit:4;stroke-dasharray:none;stroke-dashoffset:0;stroke-opacity:1"
       d="m 21.166667,266.57292 3.437038,1.98438 -3.437038,1.98438 z"
       id="path9905"
       inkscape:connector-curvature="0"
       sodipodi:nodetypes="cccc" />
    <path
       style="opacity:1;vector-effect:none;fill:#e3ab24;fill-opacity:1;stroke:none;stroke-width:0.26458335px;stroke-linecap:butt;stroke-linejoin:miter;stroke-miterlimit:4;stroke-dasharray:none;stroke-dashoffset:0;stroke-opacity:1"
       d="m 33.76914,277.81771 3.437038,1.98438 -3.437038,1.98438 z"
       id="path9905-9"
       inkscape:connector-curvature="0"
       sodipodi:nodetypes="cccc" />
    <g
       id="g10057"
       transform="translate(-12.602475,11.244794)">
      <path
         style="opacity:1;vector-effect:none;fill:#696969;fill-opacity:1;stroke:none;stroke-width:0.26458335px;stroke-linecap:butt;stroke-linejoin:miter;stroke-miterlimit:4;stroke-dasharray:none;stroke-dashoffset:0;stroke-opacity:1"
         d="m 18.875309,270.54168 1.145679,0.66145 -1.14568,0.66146 z"
         id="path10053"
         inkscape:connector-curvature="0"
         sodipodi:nodetypes="cccc" />
      <path
         style="opacity:1;vector-effect:none;fill:#e0e0e0;fill-opacity:1;stroke:none;stroke-width:0.26458335px;stroke-linecap:butt;stroke-linejoin:miter;stroke-miterlimit:4;stroke-dasharray:none;stroke-dashoffset:0;stroke-opacity:1"
         d="m 20.020988,271.20313 -1.145679,0.66146 1.145679,0.66146 z"
         id="path10055"
         inkscape:connector-curvature="0" />
    </g>
    <g
       id="g10067"
       transform="translate(12.602474,11.244794)">
      <path
         inkscape:connector-curvature="0"
         id="path10063"
         d="m 23.458026,270.54167 -1.145679,0.66145 1.145679,0.66147 z"
         style="opacity:1;vector-effect:none;fill:#464646;fill-opacity:1;stroke:none;stroke-width:0.26458335px;stroke-linecap:butt;stroke-linejoin:miter;stroke-miterlimit:4;stroke-dasharray:none;stroke-dashoffset:0;stroke-opacity:1"
         sodipodi:nodetypes="cccc" />
      <path
         inkscape:connector-curvature="0"
         id="path10065"
         d="m 22.312347,271.20313 1.145679,0.66146 -1.145679,0.66146 z"
         style="opacity:1;vector-effect:none;fill:#696969;fill-opacity:1;stroke:none;stroke-width:0.26458335px;stroke-linecap:butt;stroke-linejoin:miter;stroke-miterlimit:4;stroke-dasharray:none;stroke-dashoffset:0;stroke-opacity:1" />
    </g>
    <path
       style="opacity:1;vector-effect:none;fill:#e4ad27;fill-opacity:1;stroke:none;stroke-width:1px;stroke-linecap:butt;stroke-linejoin:miter;stroke-miterlimit:4;stroke-dasharray:none;stroke-dashoffset:0;stroke-opacity:1"
       d="M 80 25 L 67.009766 32.5 L 71.339844 35 L 80 30 L 80 25 z M 80 35 L 75.669922 37.5 L 80 40 L 80 35 z M 101.65039 52.5 L 88.660156 60 L 92.990234 62.5 L 105.98047 55 L 101.65039 52.5 z M 110.31055 57.5 L 97.320312 65 L 101.65039 67.5 L 114.64062 60 L 110.31055 57.5 z M 118.9707 62.5 L 105.98047 70 L 110.31055 72.5 L 123.30078 65 L 118.9707 62.5 z M 32.369141 67.5 L 19.378906 75 L 23.708984 77.5 L 32.369141 72.5 L 32.369141 67.5 z M 127.63086 67.5 L 114.64062 75 L 118.9707 77.5 L 127.63086 72.5 L 127.63086 67.5 z M 32.369141 77.5 L 28.039062 80 L 32.369141 82.5 L 32.369141 77.5 z M 127.63086 77.5 L 123.30078 80 L 127.63086 82.5 L 127.63086 77.5 z "
       id="path9776"
       transform="matrix(0.26458334,0,0,0.26458334,0,259.95834)" />
    <path
       style="opacity:1;vector-effect:none;fill:#cf9a1a;fill-opacity:1;stroke:none;stroke-width:1px;stroke-linecap:butt;stroke-linejoin:miter;stroke-miterlimit:4;stroke-dasharray:none;stroke-dashoffset:0;stroke-opacity:1"
       d="M 80 25 L 80 30 L 88.660156 35 L 92.990234 32.5 L 80 25 z M 80 35 L 80 40 L 84.330078 37.5 L 80 35 z M 67.009766 47.5 L 62.679688 50 L 75.669922 57.5 L 80 55 L 67.009766 47.5 z M 80 55 L 84.330078 57.5 L 97.320312 50 L 92.990234 47.5 L 80 55 z M 58.349609 52.5 L 54.019531 55 L 67.009766 62.5 L 71.339844 60 L 58.349609 52.5 z M 49.689453 57.5 L 45.359375 60 L 58.349609 67.5 L 62.679688 65 L 49.689453 57.5 z M 41.029297 62.5 L 36.699219 65 L 49.689453 72.5 L 54.019531 70 L 41.029297 62.5 z M 32.369141 67.5 L 32.369141 72.5 L 41.029297 77.5 L 45.359375 75 L 32.369141 67.5 z M 127.63086 67.5 L 127.63086 72.5 L 136.29102 77.5 L 140.62109 75 L 127.63086 67.5 z M 32.369141 77.5 L 32.369141 82.5 L 36.699219 80 L 32.369141 77.5 z M 127.63086 77.5 L 127.63086 82.5 L 131.96094 80 L 127.63086 77.5 z "
       transform="matrix(0.26458334,0,0,0.26458334,0,259.95834)"
       id="path6955" />
  </g>
</svg>
