<?xml version="1.0" encoding="UTF-8" standalone="no"?>
<svg xmlns:dc="http://purl.org/dc/elements/1.1/" xmlns:cc="http://creativecommons.org/ns#" xmlns:rdf="http://www.w3.org/1999/02/22-rdf-syntax-ns#" xmlns:svg="http://www.w3.org/2000/svg" xmlns="http://www.w3.org/2000/svg" id="svg8" version="1.1" viewBox="0 0 21.166668 15.875" height="60" width="80"><defs id="defs2"/><metadata id="metadata5"><rdf:RDF><cc:Work rdf:about=""><dc:format>image/svg+xml</dc:format><dc:type rdf:resource="http://purl.org/dc/dcmitype/StillImage"/><dc:title/></cc:Work></rdf:RDF></metadata><g transform="translate(0,-281.125)" id="layer1"><path id="path4526" d="m 10.583334,283.70469 9.280004,5.35781 -9.280004,5.35781 -9.2800037,-5.35781 z" style="opacity:1;vector-effect:none;fill:#3ebe1e;fill-opacity:1;stroke:none;stroke-width:0.26458335px;stroke-linecap:butt;stroke-linejoin:miter;stroke-miterlimit:4;stroke-dasharray:none;stroke-dashoffset:0;stroke-opacity:1;font-variant-east_asian:normal"/><path id="path4517" d="m 9.4376671,284.43229 -2.291333,1.32292 1.1456665,0.66146 2.2913334,-1.32292 z m 1.1456669,0.66146 1.145666,0.66146 1.145667,-0.66146 -1.145667,-0.66146 z m 1.145666,0.66146 -1.145666,0.66146 1.145666,0.66146 1.145667,-0.66146 z m 1.145667,0.66146 1.145666,0.66146 1.145667,-0.66146 -1.145667,-0.66146 z m -1.145667,0.66146 -1.145666,0.66145 1.145666,0.66146 1.145667,-0.66146 z m -1.145666,0.66145 -1.1456669,-0.66145 -1.1456665,0.66145 1.1456665,0.66146 z m -1.1456669,0.66146 -1.1456665,0.66146 2.2913334,1.32292 1.145666,-0.66146 z m 2.2913329,1.32292 1.145667,0.66146 1.145666,-0.66146 -1.145666,-0.66146 z m 2.291333,0 1.145667,0.66146 1.145666,-0.66146 L 15.166,289.0625 Z m 1.145667,-0.66146 1.145666,-0.66146 -1.145666,-0.66146 -1.145667,0.66146 z m 1.145666,-0.66146 1.145667,0.66146 1.145666,-0.66146 -1.145666,-0.66146 z m -5.728332,1.98438 -1.1456669,0.66146 1.1456669,0.66145 1.145666,-0.66145 z m -1.1456669,0.66146 -1.1456665,-0.66146 -1.1456665,0.66146 1.1456665,0.66145 z m -2.291333,0 -2.2913333,-1.32292 -1.1456665,0.66146 2.2913333,1.32291 z m 1.1456665,-1.98438 -1.1456665,-0.66146 -1.1456665,0.66146 1.1456665,0.66146 z m -1.1456665,-0.66146 1.1456665,-0.66146 -1.1456665,-0.66145 -1.1456665,0.66145 z m -1.1456665,-0.66146 -1.1456668,-0.66145 -1.1456665,0.66145 1.1456665,0.66146 z m -3.4369997,0.66146 -1.1456666,0.66146 1.1456666,0.66146 1.1456664,-0.66146 z m 11.4566651,2.64584 -1.145666,0.66145 1.145666,0.66146 1.145667,-0.66146 z m -4.5826659,1.32291 -1.1456665,0.66146 1.1456665,0.66146 1.1456669,-0.66146 z m 1.1456669,0.66146 1.145666,0.66146 1.145667,-0.66146 -1.145667,-0.66146 z" style="fill:#38b21e;fill-opacity:1;stroke:none;stroke-width:0.26458335px;stroke-linecap:butt;stroke-linejoin:miter;stroke-opacity:1;font-variant-east_asian:normal;opacity:1;vector-effect:none;stroke-miterlimit:4;stroke-dasharray:none;stroke-dashoffset:0"/></g></svg>
