<?xml version="1.0" encoding="UTF-8" standalone="no"?>
<svg xmlns:dc="http://purl.org/dc/elements/1.1/" xmlns:cc="http://creativecommons.org/ns#" xmlns:rdf="http://www.w3.org/1999/02/22-rdf-syntax-ns#" xmlns:svg="http://www.w3.org/2000/svg" xmlns="http://www.w3.org/2000/svg" id="svg8" version="1.1" viewBox="0 0 21.166668 15.875" height="60" width="80"><defs id="defs2"/><metadata id="metadata5"><rdf:RDF><cc:Work rdf:about=""><dc:format>image/svg+xml</dc:format><dc:type rdf:resource="http://purl.org/dc/dcmitype/StillImage"/><dc:title/></cc:Work></rdf:RDF></metadata><g transform="translate(0,-281.125)" id="layer1"><path id="path4526" d="m 10.583334,283.70469 9.280004,5.35781 -9.280004,5.35781 -9.2800037,-5.35781 z" style="opacity:1;vector-effect:none;fill:#388fff;fill-opacity:1;stroke:none;stroke-width:0.13229167;stroke-linecap:butt;stroke-linejoin:miter;stroke-miterlimit:4;stroke-dasharray:none;stroke-dashoffset:0;stroke-opacity:1;font-variant-east_asian:normal"/><path id="path5799" transform="matrix(0.26458334,0,0,0.26458334,0,281.125)" d="M 35.669922 12.5 L 31.339844 15 L 35.669922 17.5 L 40 15 L 35.669922 12.5 z M 40 15 L 44.330078 17.5 L 48.660156 15 L 44.330078 12.5 L 40 15 z M 22.679688 20 L 18.349609 22.5 L 22.679688 25 L 27.009766 22.5 L 22.679688 20 z M 27.009766 22.5 L 31.339844 25 L 35.669922 22.5 L 31.339844 20 L 27.009766 22.5 z M 44.330078 22.5 L 40 25 L 44.330078 27.5 L 48.660156 25 L 44.330078 22.5 z M 48.660156 25 L 52.990234 27.5 L 57.320312 25 L 52.990234 22.5 L 48.660156 25 z M 65.980469 25 L 61.650391 27.5 L 65.980469 30 L 70.310547 27.5 L 65.980469 25 z M 9.6894531 27.5 L 5.359375 30 L 9.6894531 32.5 L 14.019531 30 L 9.6894531 27.5 z M 14.019531 30 L 18.349609 32.5 L 22.679688 30 L 18.349609 27.5 L 14.019531 30 z M 35.669922 27.5 L 31.339844 30 L 35.669922 32.5 L 40 30 L 35.669922 27.5 z M 48.660156 30 L 44.330078 32.5 L 48.660156 35 L 52.990234 32.5 L 48.660156 30 z M 52.990234 32.5 L 57.320312 35 L 61.650391 32.5 L 57.320312 30 L 52.990234 32.5 z M 22.679688 35 L 18.349609 37.5 L 22.679688 40 L 27.009766 37.5 L 22.679688 35 z M 27.009766 37.5 L 31.339844 40 L 35.669922 37.5 L 31.339844 35 L 27.009766 37.5 z M 40 40 L 35.669922 42.5 L 40 45 L 44.330078 42.5 L 40 40 z M 44.330078 42.5 L 48.660156 45 L 52.990234 42.5 L 48.660156 40 L 44.330078 42.5 z " style="opacity:1;vector-effect:none;fill:#4b9aff;fill-opacity:1;stroke:none;stroke-width:0.5;stroke-linecap:butt;stroke-linejoin:miter;stroke-miterlimit:4;stroke-dasharray:none;stroke-dashoffset:0;stroke-opacity:1"/></g></svg>
