<?xml version="1.0" encoding="UTF-8" standalone="no"?>
<svg xmlns:dc="http://purl.org/dc/elements/1.1/" xmlns:cc="http://creativecommons.org/ns#" xmlns:rdf="http://www.w3.org/1999/02/22-rdf-syntax-ns#" xmlns:svg="http://www.w3.org/2000/svg" xmlns="http://www.w3.org/2000/svg" xmlns:xlink="http://www.w3.org/1999/xlink" id="svg8" version="1.1" viewBox="0 0 21.166668 21.166666" height="80" width="80"><defs id="defs2"/><metadata id="metadata5"><rdf:RDF><cc:Work rdf:about=""><dc:format>image/svg+xml</dc:format><dc:type rdf:resource="http://purl.org/dc/dcmitype/StillImage"/><dc:title/></cc:Work></rdf:RDF></metadata><g transform="translate(0,-275.83334)" id="layer1"><g id="g5682" transform="translate(3.4370258,0.66145815)"><path id="path5666" d="m 9.4376544,289.0625 1.1456796,0.66146 v -0.66145 l -1.1456796,-0.66146 z" style="fill:#7e5e1f;fill-opacity:1;stroke:none;stroke-width:0.26458335px;stroke-linecap:butt;stroke-linejoin:miter;stroke-opacity:1"/><path style="fill:#594216;fill-opacity:1;stroke:none;stroke-width:0.26458335px;stroke-linecap:butt;stroke-linejoin:miter;stroke-opacity:1" d="m 11.729013,289.0625 -1.145679,0.66146 v -0.66145 l 1.145679,-0.66146 z" id="path5668"/><path id="path5670" d="m 10.583334,289.0625 -2.2913589,-1.32291 v -2.64584 l 2.2913589,1.32292 z" style="opacity:1;vector-effect:none;fill:#319518;fill-opacity:1;stroke:none;stroke-width:0.26458335px;stroke-linecap:butt;stroke-linejoin:miter;stroke-miterlimit:4;stroke-dasharray:none;stroke-dashoffset:0;stroke-opacity:1"/><path style="opacity:1;vector-effect:none;fill:#216610;fill-opacity:1;stroke:none;stroke-width:0.26458335px;stroke-linecap:butt;stroke-linejoin:miter;stroke-miterlimit:4;stroke-dasharray:none;stroke-dashoffset:0;stroke-opacity:1" d="m 10.583334,289.0625 2.291359,-1.32291 v -2.64583 l -2.291359,1.32291 z" id="path5672"/><path id="path5674" d="m 10.583334,286.41668 -2.2913589,-1.32292 2.2913589,-1.32292 2.291359,1.32292 z" style="opacity:1;vector-effect:none;fill:#38a91b;fill-opacity:1;stroke:none;stroke-width:0.26458335px;stroke-linecap:butt;stroke-linejoin:miter;stroke-miterlimit:4;stroke-dasharray:none;stroke-dashoffset:0;stroke-opacity:1"/><path transform="matrix(0.26458334,0,0,0.26458334,0,275.83334)" id="path5676" d="m 31.339844,35 v 5 l 4.330078,2.5 v -5 z m 4.330078,7.5 v 5 L 40,50 v -5 z" style="opacity:1;vector-effect:none;fill:#2e8c17;fill-opacity:1;stroke:none;stroke-width:1px;stroke-linecap:butt;stroke-linejoin:miter;stroke-miterlimit:4;stroke-dasharray:none;stroke-dashoffset:0;stroke-opacity:1"/><path transform="matrix(0.26458334,0,0,0.26458334,0,275.83334)" id="path5678" d="M 44.330078,37.5 40,40 v 5 l 4.330078,-2.5 z m 0,5 v 5 L 48.660156,45 v -5 z" style="opacity:1;vector-effect:none;fill:#1e5c0e;fill-opacity:1;stroke:none;stroke-width:1px;stroke-linecap:butt;stroke-linejoin:miter;stroke-miterlimit:4;stroke-dasharray:none;stroke-dashoffset:0;stroke-opacity:1"/><path transform="matrix(0.26458334,0,0,0.26458334,0,275.83334)" id="path5680" d="M 40,30 35.669922,32.5 40,35 44.330078,32.5 Z m 0,5 -4.330078,2.5 L 40,40 44.330078,37.5 Z" style="opacity:1;vector-effect:none;fill:#35a11a;fill-opacity:1;stroke:none;stroke-width:1px;stroke-linecap:butt;stroke-linejoin:miter;stroke-miterlimit:4;stroke-dasharray:none;stroke-dashoffset:0;stroke-opacity:1"/></g><use height="100%" width="100%" transform="translate(-5.7283843,-1.3229167)" id="use5745" xlink:href="#g5682" y="0" x="0"/></g></svg>
