<?xml version="1.0" encoding="UTF-8" standalone="no"?>
<svg xmlns:dc="http://purl.org/dc/elements/1.1/" xmlns:cc="http://creativecommons.org/ns#" xmlns:rdf="http://www.w3.org/1999/02/22-rdf-syntax-ns#" xmlns:svg="http://www.w3.org/2000/svg" xmlns="http://www.w3.org/2000/svg" id="svg8" version="1.1" viewBox="0 0 42.333337 37.041666" height="140" width="160"><defs id="defs2"/><metadata id="metadata5"><rdf:RDF><cc:Work rdf:about=""><dc:format>image/svg+xml</dc:format><dc:type rdf:resource="http://purl.org/dc/dcmitype/StillImage"/><dc:title/></cc:Work></rdf:RDF></metadata><g transform="translate(0,-259.95834)" id="layer1"><path id="path8631" d="m 10.855551,280.46354 11.456796,-6.61459 17.185192,9.92189 -10.311115,5.95313 -6.874078,-3.96875 -1.145679,0.66145 z" style="fill:#000000;fill-opacity:0.1254902;stroke:none;stroke-width:0.26458335px;stroke-linecap:butt;stroke-linejoin:miter;stroke-opacity:1"/><path style="opacity:1;vector-effect:none;fill:#cdcdcd;fill-opacity:1;stroke:none;stroke-width:0.26458335px;stroke-linecap:butt;stroke-linejoin:miter;stroke-miterlimit:4;stroke-dasharray:none;stroke-dashoffset:0;stroke-opacity:1" d="m 10.855552,280.46355 v -5.29167 l 9.165436,5.29167 0,5.29167 z" id="path6165"/><path id="path8585" d="m 15.43827,288.40105 3.437038,-1.98438 1.145679,0.66146 1.14568,-0.66146 3.437038,1.98438 -1.145679,0.66146 1.145679,0.66146 -3.437038,1.98437 -1.14568,-0.66146 -1.145679,0.66146 -3.437038,-1.98437 1.145679,-0.66146 z" style="fill:#e5ae2a;stroke:none;stroke-width:0.26458335px;stroke-linecap:butt;stroke-linejoin:miter;stroke-opacity:1;font-variant-east_asian:normal;opacity:1;vector-effect:none;fill-opacity:1;stroke-miterlimit:4;stroke-dasharray:none;stroke-dashoffset:0"/><path id="path6411" d="m 28.040744,285.09376 9.165436,-5.29167 0,3.96875 -9.165436,5.29167 z" style="opacity:1;vector-effect:none;fill:#808080;fill-opacity:1;stroke:none;stroke-width:0.26458335px;stroke-linecap:butt;stroke-linejoin:miter;stroke-miterlimit:4;stroke-dasharray:none;stroke-dashoffset:0;stroke-opacity:1"/><path style="opacity:1;vector-effect:none;fill:#e9bb4c;fill-opacity:1;stroke:none;stroke-width:0.26458335px;stroke-linecap:butt;stroke-linejoin:miter;stroke-miterlimit:4;stroke-dasharray:none;stroke-dashoffset:0;stroke-opacity:1" d="m 21.166455,281.125 6.874289,3.96876 9.165436,-5.29167 -6.874077,-3.96875 z" id="path6489"/><path id="path4932" d="m 21.166667,285.09376 v -3.96875 l 6.874077,3.96875 v 3.96875 z" style="opacity:1;vector-effect:none;fill:#cdcdcd;fill-opacity:1;stroke:none;stroke-width:0.26458335px;stroke-linecap:butt;stroke-linejoin:miter;stroke-miterlimit:4;stroke-dasharray:none;stroke-dashoffset:0;stroke-opacity:1"/><path id="path1032" d="m 14.29259,282.44792 v -1.32291 l 2.291359,1.32291 v 1.32291 z" style="opacity:1;vector-effect:none;fill:#df6a00;fill-opacity:1;stroke:none;stroke-width:0.26458335px;stroke-linecap:butt;stroke-linejoin:miter;stroke-miterlimit:4;stroke-dasharray:none;stroke-dashoffset:0;stroke-opacity:1"/><path id="path4717" d="m 14.29259,279.80211 2.291359,1.3229 v 1.32291 l -2.291359,-1.3229 z" style="opacity:1;vector-effect:none;fill:#d56500;fill-opacity:1;stroke:none;stroke-width:0.26458335px;stroke-linecap:butt;stroke-linejoin:miter;stroke-miterlimit:4;stroke-dasharray:none;stroke-dashoffset:0;stroke-opacity:1"/><path id="path7904" d="m 23.458026,286.41667 0,-2.64583 2.291359,1.32292 0,2.64583 z" style="opacity:1;vector-effect:none;fill:#df6a00;fill-opacity:1;stroke:none;stroke-width:0.26458335px;stroke-linecap:butt;stroke-linejoin:miter;stroke-miterlimit:4;stroke-dasharray:none;stroke-dashoffset:0;stroke-opacity:1"/><path id="path1863" d="m 21.166666,283.77084 1.14568,0.66146 v 1.32292 l -1.14568,-0.66146 z" style="opacity:1;vector-effect:none;fill:#c2c2c2;fill-opacity:1;stroke:none;stroke-width:0.26458335px;stroke-linecap:butt;stroke-linejoin:miter;stroke-miterlimit:4;stroke-dasharray:none;stroke-dashoffset:0;stroke-opacity:1"/><path style="opacity:1;vector-effect:none;fill:#c2c2c2;fill-opacity:1;stroke:none;stroke-width:0.26458335px;stroke-linecap:butt;stroke-linejoin:miter;stroke-miterlimit:4;stroke-dasharray:none;stroke-dashoffset:0;stroke-opacity:1" d="m 17.729628,280.46354 1.14568,0.66146 v 1.32292 l -1.14568,-0.66146 z" id="path7660"/><path id="path7662" d="m 16.583949,278.47917 1.14568,0.66146 v 1.32292 l -1.14568,-0.66146 z" style="opacity:1;vector-effect:none;fill:#c2c2c2;fill-opacity:1;stroke:none;stroke-width:0.26458335px;stroke-linecap:butt;stroke-linejoin:miter;stroke-miterlimit:4;stroke-dasharray:none;stroke-dashoffset:0;stroke-opacity:1"/><path style="opacity:1;vector-effect:none;fill:#c2c2c2;fill-opacity:1;stroke:none;stroke-width:0.26458335px;stroke-linecap:butt;stroke-linejoin:miter;stroke-miterlimit:4;stroke-dasharray:none;stroke-dashoffset:0;stroke-opacity:1" d="m 13.14691,277.8177 1.14568,0.66146 v 1.32292 l -1.14568,-0.66146 z" id="path7664"/><path id="path7666" d="m 12.001231,275.83333 1.14568,0.66146 v 1.32292 l -1.14568,-0.66146 z" style="opacity:1;vector-effect:none;fill:#c2c2c2;fill-opacity:1;stroke:none;stroke-width:0.26458335px;stroke-linecap:butt;stroke-linejoin:miter;stroke-miterlimit:4;stroke-dasharray:none;stroke-dashoffset:0;stroke-opacity:1"/><path style="opacity:1;vector-effect:none;fill:#c2c2c2;fill-opacity:1;stroke:none;stroke-width:0.26458335px;stroke-linecap:butt;stroke-linejoin:miter;stroke-miterlimit:4;stroke-dasharray:none;stroke-dashoffset:0;stroke-opacity:1" d="m 15.438269,279.14062 1.14568,0.66146 v 1.32292 l -1.14568,-0.66146 z" id="path7668"/><path id="path7670" d="m 10.855551,276.49479 1.14568,0.66146 v 1.32292 l -1.14568,-0.66146 z" style="opacity:1;vector-effect:none;fill:#c2c2c2;fill-opacity:1;stroke:none;stroke-width:0.26458335px;stroke-linecap:butt;stroke-linejoin:miter;stroke-miterlimit:4;stroke-dasharray:none;stroke-dashoffset:0;stroke-opacity:1"/><path style="opacity:1;vector-effect:none;fill:#c2c2c2;fill-opacity:1;stroke:none;stroke-width:0.26458335px;stroke-linecap:butt;stroke-linejoin:miter;stroke-miterlimit:4;stroke-dasharray:none;stroke-dashoffset:0;stroke-opacity:1" d="m 10.855551,279.14062 1.14568,0.66146 v 1.32292 l -1.14568,-0.66146 z" id="path7672"/><path id="path7674" d="m 18.875308,283.77084 1.14568,0.66146 v 1.32292 l -1.14568,-0.66146 z" style="opacity:1;vector-effect:none;fill:#c2c2c2;fill-opacity:1;stroke:none;stroke-width:0.26458335px;stroke-linecap:butt;stroke-linejoin:miter;stroke-miterlimit:4;stroke-dasharray:none;stroke-dashoffset:0;stroke-opacity:1"/><path id="path7678" d="m 25.749384,285.09375 1.14568,0.66146 v 1.32292 l -1.14568,-0.66146 z" style="opacity:1;vector-effect:none;fill:#c2c2c2;fill-opacity:1;stroke:none;stroke-width:0.26458335px;stroke-linecap:butt;stroke-linejoin:miter;stroke-miterlimit:4;stroke-dasharray:none;stroke-dashoffset:0;stroke-opacity:1"/><path style="opacity:1;vector-effect:none;fill:#c2c2c2;fill-opacity:1;stroke:none;stroke-width:0.26458335px;stroke-linecap:butt;stroke-linejoin:miter;stroke-miterlimit:4;stroke-dasharray:none;stroke-dashoffset:0;stroke-opacity:1" d="m 26.895064,287.07813 1.14568,0.66146 v 1.32292 l -1.14568,-0.66146 z" id="path7680"/><path id="path7682" d="m 16.583948,282.44791 1.14568,0.66146 v 1.32292 l -1.14568,-0.66146 z" style="opacity:1;vector-effect:none;fill:#c2c2c2;fill-opacity:1;stroke:none;stroke-width:0.26458335px;stroke-linecap:butt;stroke-linejoin:miter;stroke-miterlimit:4;stroke-dasharray:none;stroke-dashoffset:0;stroke-opacity:1"/><path style="opacity:1;vector-effect:none;fill:#c2c2c2;fill-opacity:1;stroke:none;stroke-width:0.26458335px;stroke-linecap:butt;stroke-linejoin:miter;stroke-miterlimit:4;stroke-dasharray:none;stroke-dashoffset:0;stroke-opacity:1" d="m 13.14691,280.46354 1.14568,0.66146 v 1.32292 l -1.14568,-0.66146 z" id="path7684"/><path id="path1938" d="m 29.186423,287.07813 -1.145679,0.66146 v 1.32292 l 1.145679,-0.66146 z" style="opacity:1;vector-effect:none;fill:#747474;fill-opacity:1;stroke:none;stroke-width:0.26458335px;stroke-linecap:butt;stroke-linejoin:miter;stroke-miterlimit:4;stroke-dasharray:none;stroke-dashoffset:0;stroke-opacity:1"/><path style="opacity:1;vector-effect:none;fill:#747474;fill-opacity:1;stroke:none;stroke-width:0.26458335px;stroke-linecap:butt;stroke-linejoin:miter;stroke-miterlimit:4;stroke-dasharray:none;stroke-dashoffset:0;stroke-opacity:1" d="m 37.20618,282.44792 -1.145679,0.66146 v 1.32292 l 1.145679,-0.66146 z" id="path7701"/><path id="path7703" d="m 33.769141,284.4323 -1.145679,0.66146 v 1.32292 l 1.145679,-0.66146 z" style="opacity:1;vector-effect:none;fill:#747474;fill-opacity:1;stroke:none;stroke-width:0.26458335px;stroke-linecap:butt;stroke-linejoin:miter;stroke-miterlimit:4;stroke-dasharray:none;stroke-dashoffset:0;stroke-opacity:1"/><path style="opacity:1;vector-effect:none;fill:#747474;fill-opacity:1;stroke:none;stroke-width:0.26458335px;stroke-linecap:butt;stroke-linejoin:miter;stroke-miterlimit:4;stroke-dasharray:none;stroke-dashoffset:0;stroke-opacity:1" d="m 34.914821,282.44792 -1.145679,0.66146 v 1.32292 l 1.145679,-0.66146 z" id="path7705"/><path id="path7707" d="m 31.477782,284.4323 -1.145679,0.66146 v 1.32292 l 1.145679,-0.66146 z" style="opacity:1;vector-effect:none;fill:#747474;fill-opacity:1;stroke:none;stroke-width:0.26458335px;stroke-linecap:butt;stroke-linejoin:miter;stroke-miterlimit:4;stroke-dasharray:none;stroke-dashoffset:0;stroke-opacity:1"/><path style="opacity:1;vector-effect:none;fill:#747474;fill-opacity:1;stroke:none;stroke-width:0.26458335px;stroke-linecap:butt;stroke-linejoin:miter;stroke-miterlimit:4;stroke-dasharray:none;stroke-dashoffset:0;stroke-opacity:1" d="m 32.623462,282.44792 -1.145679,0.66146 v 1.32292 l 1.145679,-0.66146 z" id="path7709"/><path id="path7711" d="m 21.166667,291.70834 1.145679,-0.66146 -1.145679,-0.66146 -1.14568,0.66146 z" style="fill:#e9bb4c;fill-opacity:1;stroke:none;stroke-width:0.26458335px;stroke-linecap:butt;stroke-linejoin:miter;stroke-opacity:1"/><path style="fill:#e9bb4c;fill-opacity:1;stroke:none;stroke-width:0.26458335px;stroke-linecap:butt;stroke-linejoin:miter;stroke-opacity:1" d="m 21.166667,290.38543 1.145679,-0.66146 -1.145679,-0.66146 -1.14568,0.66146 z" id="path7713"/><path style="fill:#e9bb4c;fill-opacity:1;stroke:none;stroke-width:0.26458335px;stroke-linecap:butt;stroke-linejoin:miter;stroke-opacity:1" d="m 18.875308,290.38543 1.145679,-0.66146 -1.145679,-0.66146 -1.14568,0.66146 z" id="path7715"/><path id="path7717" d="m 20.020988,288.40105 1.145679,-0.66146 -1.145679,-0.66146 -1.14568,0.66146 z" style="fill:#e9bb4c;fill-opacity:1;stroke:none;stroke-width:0.26458335px;stroke-linecap:butt;stroke-linejoin:miter;stroke-opacity:1"/><path style="fill:#e9bb4c;fill-opacity:1;stroke:none;stroke-width:0.26458335px;stroke-linecap:butt;stroke-linejoin:miter;stroke-opacity:1" d="m 22.312346,288.40105 1.145679,-0.66146 -1.145679,-0.66146 -1.14568,0.66146 z" id="path7719"/><path id="path7721" d="m 17.729629,289.72397 1.145679,-0.66146 -1.145679,-0.66146 -1.14568,0.66146 z" style="fill:#e9bb4c;fill-opacity:1;stroke:none;stroke-width:0.26458335px;stroke-linecap:butt;stroke-linejoin:miter;stroke-opacity:1"/><path style="fill:#e9bb4c;fill-opacity:1;stroke:none;stroke-width:0.26458335px;stroke-linecap:butt;stroke-linejoin:miter;stroke-opacity:1" d="m 16.583949,290.38543 1.145679,-0.66146 -1.145679,-0.66146 -1.14568,0.66146 z" id="path7723"/><path id="path7747" d="m 17.729629,288.40105 1.145679,-0.66146 -1.145679,-0.66146 -1.14568,0.66146 z" style="fill:#e9bb4c;fill-opacity:1;stroke:none;stroke-width:0.26458335px;stroke-linecap:butt;stroke-linejoin:miter;stroke-opacity:1"/><path id="path4675" d="m 12.001232,281.12501 -6.8740776,3.96876 6.8740766,3.96874 6.874077,-3.96875 z" style="opacity:1;vector-effect:none;fill:#b6b6b6;fill-opacity:1;stroke:none;stroke-width:0.13229167;stroke-linecap:butt;stroke-linejoin:miter;stroke-miterlimit:4;stroke-dasharray:none;stroke-dashoffset:0;stroke-opacity:1"/><path style="fill:#acacac;fill-opacity:1;stroke:none;stroke-width:0.26458335px;stroke-linecap:butt;stroke-linejoin:miter;stroke-opacity:1" d="m 15.43827,283.10938 1.14568,0.66146 -1.14568,0.66146 -1.145679,-0.66146 z" id="path8530"/><path style="fill:#acacac;fill-opacity:1;stroke:none;stroke-width:0.26458335px;stroke-linecap:butt;stroke-linejoin:miter;stroke-opacity:1" d="m 16.583949,285.09376 1.14568,0.66146 -1.14568,0.66146 -1.145679,-0.66146 z" id="path8534"/><path id="path8536" d="m 14.29259,285.09375 1.14568,0.66146 -1.14568,0.66146 -1.145679,-0.66146 z" style="fill:#acacac;fill-opacity:1;stroke:none;stroke-width:0.26458335px;stroke-linecap:butt;stroke-linejoin:miter;stroke-opacity:1"/><path style="fill:#acacac;fill-opacity:1;stroke:none;stroke-width:0.26458335px;stroke-linecap:butt;stroke-linejoin:miter;stroke-opacity:1" d="m 12.001231,286.41667 1.14568,0.66146 -1.14568,0.66146 -1.145679,-0.66146 z" id="path8538"/><path id="path8540" d="m 9.7098723,282.44792 1.1456797,0.66146 -1.1456797,0.66146 -1.1456787,-0.66146 z" style="fill:#acacac;fill-opacity:1;stroke:none;stroke-width:0.26458335px;stroke-linecap:butt;stroke-linejoin:miter;stroke-opacity:1"/><path style="fill:#acacac;fill-opacity:1;stroke:none;stroke-width:0.26458335px;stroke-linecap:butt;stroke-linejoin:miter;stroke-opacity:1" d="m 10.855552,284.4323 1.145679,0.66146 -1.145679,0.66146 -1.1456789,-0.66146 z" id="path8542"/><path id="path8544" d="m 7.4185134,285.09375 1.1456797,0.66146 -1.1456797,0.66146 -1.1456787,-0.66146 z" style="fill:#acacac;fill-opacity:1;stroke:none;stroke-width:0.26458335px;stroke-linecap:butt;stroke-linejoin:miter;stroke-opacity:1"/><path style="fill:#acacac;fill-opacity:1;stroke:none;stroke-width:0.26458335px;stroke-linecap:butt;stroke-linejoin:miter;stroke-opacity:1" d="m 12.001231,282.44792 1.14568,0.66146 -1.14568,0.66146 -1.145679,-0.66146 z" id="path8656"/><path id="path8658" d="m 7.4185134,283.77084 1.14568,0.66146 -1.14568,0.66146 -1.1456789,-0.66146 z" style="fill:#acacac;fill-opacity:1;stroke:none;stroke-width:0.26458335px;stroke-linecap:butt;stroke-linejoin:miter;stroke-opacity:1"/><path style="opacity:1;vector-effect:none;fill:#d56500;fill-opacity:1;stroke:none;stroke-width:0.26458335px;stroke-linecap:butt;stroke-linejoin:miter;stroke-miterlimit:4;stroke-dasharray:none;stroke-dashoffset:0;stroke-opacity:1" d="m 23.458026,283.77086 2.291359,1.3229 v 1.32291 l -2.291359,-1.3229 z" id="path10024"/><path style="opacity:1;vector-effect:none;fill:#c2c2c2;fill-opacity:1;stroke:none;stroke-width:0.26458335px;stroke-linecap:butt;stroke-linejoin:miter;stroke-miterlimit:4;stroke-dasharray:none;stroke-dashoffset:0;stroke-opacity:1" d="m 26.895064,284.4323 1.14568,0.66146 v 1.32292 l -1.14568,-0.66146 z" id="path5394"/><path id="path5396" d="m 23.458025,282.44792 1.14568,0.66146 v 1.32292 l -1.14568,-0.66146 z" style="opacity:1;vector-effect:none;fill:#c2c2c2;fill-opacity:1;stroke:none;stroke-width:0.26458335px;stroke-linecap:butt;stroke-linejoin:miter;stroke-miterlimit:4;stroke-dasharray:none;stroke-dashoffset:0;stroke-opacity:1"/><path id="path6093" d="m 28.040743,285.09376 9.165437,-5.29167 -6.874076,-3.96875 -2.291361,1.32292 z" style="fill:#e3ab24;stroke:none;stroke-width:0.26458334px;stroke-linecap:butt;stroke-linejoin:miter;stroke-opacity:1;font-variant-east_asian:normal;opacity:1;vector-effect:none;fill-opacity:1;stroke-miterlimit:4;stroke-dasharray:none;stroke-dashoffset:0"/><path id="path6038" d="m 28.040743,285.09376 v -1.32292 l 1.145681,0.66146 z" style="fill:#cf9a1a;stroke:none;stroke-width:0.26458334px;stroke-linecap:butt;stroke-linejoin:miter;stroke-opacity:1;font-variant-east_asian:normal;opacity:1;vector-effect:none;fill-opacity:1;stroke-miterlimit:4;stroke-dasharray:none;stroke-dashoffset:0"/><path id="path6045" d="m 28.040743,282.44792 2.291358,1.32292 1.145681,-0.66146 -3.437039,-1.98437 z" style="fill:#cf9a1a;stroke:none;stroke-width:0.26458334px;stroke-linecap:butt;stroke-linejoin:miter;stroke-opacity:1;font-variant-east_asian:normal;opacity:1;vector-effect:none;fill-opacity:1;stroke-miterlimit:4;stroke-dasharray:none;stroke-dashoffset:0"/><path style="opacity:1;vector-effect:none;fill:#cf9a1a;fill-opacity:1;stroke:none;stroke-width:0.26458335px;stroke-linecap:butt;stroke-linejoin:miter;stroke-miterlimit:4;stroke-dasharray:none;stroke-dashoffset:0;stroke-opacity:1" d="m 28.040744,279.80209 4.582716,2.64584 1.145681,-0.66146 -5.728397,-3.30729 z" id="path6061"/><path id="path6063" d="m 28.040744,277.15626 6.874077,3.96875 1.145681,-0.66146 -6.874079,-3.96875 z" style="opacity:1;vector-effect:none;fill:#cf9a1a;fill-opacity:1;stroke:none;stroke-width:0.26458335px;stroke-linecap:butt;stroke-linejoin:miter;stroke-miterlimit:4;stroke-dasharray:none;stroke-dashoffset:0;stroke-opacity:1"/><path id="path6124" d="m 24.603706,283.10938 3.437038,-1.98438 v 1.32292 l -2.291359,1.32292 z" style="opacity:1;vector-effect:none;fill:#e4ad27;fill-opacity:1;stroke:none;stroke-width:0.26458335px;stroke-linecap:butt;stroke-linejoin:miter;stroke-miterlimit:4;stroke-dasharray:none;stroke-dashoffset:0;stroke-opacity:1"/><path style="opacity:1;vector-effect:none;fill:#e4ad27;fill-opacity:1;stroke:none;stroke-width:0.26458335px;stroke-linecap:butt;stroke-linejoin:miter;stroke-miterlimit:4;stroke-dasharray:none;stroke-dashoffset:0;stroke-opacity:1" d="m 26.895064,284.4323 1.14568,-0.66147 v 1.32292 z" id="path6131"/><path style="opacity:1;vector-effect:none;fill:#e4ad27;fill-opacity:1;stroke:none;stroke-width:0.26458335px;stroke-linecap:butt;stroke-linejoin:miter;stroke-miterlimit:4;stroke-dasharray:none;stroke-dashoffset:0;stroke-opacity:1" d="m 22.312347,281.78646 5.728397,-3.30729 v 1.32292 l -4.582718,2.64583 z" id="path6133"/><path style="opacity:1;vector-effect:none;fill:#e9bb4c;fill-opacity:1;stroke:none;stroke-width:0.26458335px;stroke-linecap:butt;stroke-linejoin:miter;stroke-miterlimit:4;stroke-dasharray:none;stroke-dashoffset:0;stroke-opacity:1" d="m 10.855552,275.17188 9.165436,5.29167 10.311115,-5.95313 -9.165224,-5.29165 z" id="path6561"/><path style="opacity:1;vector-effect:none;fill:#e3ab24;fill-opacity:1;stroke:none;stroke-width:0.26458335px;stroke-linecap:butt;stroke-linejoin:miter;stroke-miterlimit:4;stroke-dasharray:none;stroke-dashoffset:0;stroke-opacity:1" d="m 20.020988,280.46355 10.311114,-5.95313 -9.165435,-5.29166 -1.145679,0.66146 z" id="path6135"/><path id="path6137" transform="matrix(0.26458334,0,0,0.26458334,0,259.95834)" d="M 80 35 L 75.669922 37.5 L 110.31055 57.5 L 114.64062 55 L 80 35 z M 75.669922 42.5 L 75.669922 47.5 L 101.65039 62.5 L 105.98047 60 L 75.669922 42.5 z M 75.669922 52.5 L 75.669922 57.5 L 92.990234 67.5 L 97.320312 65 L 75.669922 52.5 z M 75.669922 62.5 L 75.669922 67.5 L 84.330078 72.5 L 88.660156 70 L 75.669922 62.5 z M 75.669922 72.5 L 75.669922 77.5 L 80 75 L 75.669922 72.5 z " style="opacity:1;vector-effect:none;fill:#cf9a1a;fill-opacity:1;stroke:none;stroke-width:1px;stroke-linecap:butt;stroke-linejoin:miter;stroke-miterlimit:4;stroke-dasharray:none;stroke-dashoffset:0;stroke-opacity:1"/><path style="opacity:1;vector-effect:none;fill:#808080;fill-opacity:1;stroke:none;stroke-width:0.26458335px;stroke-linecap:butt;stroke-linejoin:miter;stroke-miterlimit:4;stroke-dasharray:none;stroke-dashoffset:0;stroke-opacity:1" d="m 20.020988,280.46355 10.311115,-5.95313 v 1.32292 l -9.165436,5.29167 v 3.96875 l -1.145679,0.66146 z" id="path6145"/><path id="path6147" d="m 20.02091,271.20313 -8.019666,4.63021 1.145667,0.66146 6.873999,-3.96875 z m 0,2.64584 -5.728333,3.30729 1.145667,0.66146 4.582666,-2.64584 z m 0,2.64583 -3.437,1.98437 1.145667,0.66146 2.291333,-1.32291 z m 0,2.64583 -1.145667,0.66146 1.145667,0.66146 z" style="opacity:1;vector-effect:none;fill:#e4ad27;fill-opacity:1;stroke:none;stroke-width:0.26458335px;stroke-linecap:butt;stroke-linejoin:miter;stroke-miterlimit:4;stroke-dasharray:none;stroke-dashoffset:0;stroke-opacity:1"/><path style="opacity:1;vector-effect:none;fill:#747474;fill-opacity:1;stroke:none;stroke-width:0.26458335px;stroke-linecap:butt;stroke-linejoin:miter;stroke-miterlimit:4;stroke-dasharray:none;stroke-dashoffset:0;stroke-opacity:1" d="m 30.332102,283.77084 -1.145679,0.66146 v 1.32292 l 1.145679,-0.66146 z" id="path6155"/><path style="opacity:1;vector-effect:none;fill:#747474;fill-opacity:1;stroke:none;stroke-width:0.26458335px;stroke-linecap:butt;stroke-linejoin:miter;stroke-miterlimit:4;stroke-dasharray:none;stroke-dashoffset:0;stroke-opacity:1" d="m 37.20618,279.80209 -1.145679,0.66146 v 1.32292 l 1.145679,-0.66146 z" id="path6157"/><path id="path6159" d="m 23.458025,278.47917 -1.145679,0.66146 v 1.32292 l 1.145679,-0.66146 z" style="opacity:1;vector-effect:none;fill:#747474;fill-opacity:1;stroke:none;stroke-width:0.26458335px;stroke-linecap:butt;stroke-linejoin:miter;stroke-miterlimit:4;stroke-dasharray:none;stroke-dashoffset:0;stroke-opacity:1"/><path style="opacity:1;vector-effect:none;fill:#747474;fill-opacity:1;stroke:none;stroke-width:0.26458335px;stroke-linecap:butt;stroke-linejoin:miter;stroke-miterlimit:4;stroke-dasharray:none;stroke-dashoffset:0;stroke-opacity:1" d="m 26.895064,276.4948 -1.145679,0.66146 v 1.32292 l 1.145679,-0.66146 z" id="path6161"/><path id="path6163" d="m 29.186423,275.17188 -1.145679,0.66146 v 1.32292 l 1.145679,-0.66146 z" style="opacity:1;vector-effect:none;fill:#747474;fill-opacity:1;stroke:none;stroke-width:0.26458335px;stroke-linecap:butt;stroke-linejoin:miter;stroke-miterlimit:4;stroke-dasharray:none;stroke-dashoffset:0;stroke-opacity:1"/><path style="opacity:1;vector-effect:none;fill:#747474;fill-opacity:1;stroke:none;stroke-width:0.26458335px;stroke-linecap:butt;stroke-linejoin:miter;stroke-miterlimit:4;stroke-dasharray:none;stroke-dashoffset:0;stroke-opacity:1" d="m 21.166667,283.77084 -1.145679,0.66146 v 1.32292 l 1.145679,-0.66146 z" id="path6167"/><path id="path6169" d="m 21.166667,281.125 -1.145679,0.66146 v 1.32292 l 1.145679,-0.66146 z" style="opacity:1;vector-effect:none;fill:#747474;fill-opacity:1;stroke:none;stroke-width:0.26458335px;stroke-linecap:butt;stroke-linejoin:miter;stroke-miterlimit:4;stroke-dasharray:none;stroke-dashoffset:0;stroke-opacity:1"/><path style="opacity:1;vector-effect:none;fill:#c2c2c2;fill-opacity:1;stroke:none;stroke-width:0.26458335px;stroke-linecap:butt;stroke-linejoin:miter;stroke-miterlimit:4;stroke-dasharray:none;stroke-dashoffset:0;stroke-opacity:1" d="m 21.166666,281.12501 1.14568,0.66146 v 1.32292 l -1.14568,-0.66146 z" id="path6190"/><path id="path6192" d="m 22.312346,283.10938 1.14568,0.66146 v 1.32292 l -1.14568,-0.66146 z" style="opacity:1;vector-effect:none;fill:#c2c2c2;fill-opacity:1;stroke:none;stroke-width:0.26458335px;stroke-linecap:butt;stroke-linejoin:miter;stroke-miterlimit:4;stroke-dasharray:none;stroke-dashoffset:0;stroke-opacity:1"/></g></svg>
