<?xml version="1.0" encoding="UTF-8" standalone="no"?>
<svg xmlns:dc="http://purl.org/dc/elements/1.1/" xmlns:cc="http://creativecommons.org/ns#" xmlns:rdf="http://www.w3.org/1999/02/22-rdf-syntax-ns#" xmlns:svg="http://www.w3.org/2000/svg" xmlns="http://www.w3.org/2000/svg" id="svg8" version="1.1" viewBox="0 0 42.333337 37.041666" height="140" width="160"><defs id="defs2"/><metadata id="metadata5"><rdf:RDF><cc:Work rdf:about=""><dc:format>image/svg+xml</dc:format><dc:type rdf:resource="http://purl.org/dc/dcmitype/StillImage"/><dc:title/></cc:Work></rdf:RDF></metadata><g transform="translate(0,-259.95834)" id="layer1"><path id="path8631" d="m 12.001232,279.80209 10.311115,-5.95314 17.185192,9.92189 -10.311115,5.95313 z" style="fill:#000000;fill-opacity:0.1254902;stroke:none;stroke-width:0.26458335px;stroke-linecap:butt;stroke-linejoin:miter;stroke-opacity:1"/><path id="path8585" d="m 15.43827,288.40105 3.437038,-1.98438 1.145679,0.66146 1.14568,-0.66146 3.437038,1.98438 -1.145679,0.66146 1.145679,0.66146 -3.437038,1.98437 -1.14568,-0.66146 -1.145679,0.66146 -3.437038,-1.98437 1.145679,-0.66146 z" style="fill:#e5ae2a;stroke:none;stroke-width:0.26458335px;stroke-linecap:butt;stroke-linejoin:miter;stroke-opacity:1;font-variant-east_asian:normal;opacity:1;vector-effect:none;fill-opacity:1;stroke-miterlimit:4;stroke-dasharray:none;stroke-dashoffset:0"/><path id="path6411" d="m 28.040744,286.41668 9.165436,-5.29167 0,2.64583 -9.165436,5.29167 z" style="opacity:1;vector-effect:none;fill:#808080;fill-opacity:1;stroke:none;stroke-width:0.26458335px;stroke-linecap:butt;stroke-linejoin:miter;stroke-miterlimit:4;stroke-dasharray:none;stroke-dashoffset:0;stroke-opacity:1"/><path id="path6441" d="m 10.855552,276.4948 v -1.32292 l 1.145679,0.66146 v 1.32292 z" style="opacity:1;vector-effect:none;fill:#e4aa1e;fill-opacity:1;stroke:none;stroke-width:0.26458335px;stroke-linecap:butt;stroke-linejoin:miter;stroke-miterlimit:4;stroke-dasharray:none;stroke-dashoffset:0;stroke-opacity:1;font-variant-east_asian:normal"/><path style="fill:#ab7f14;fill-opacity:1;stroke:none;stroke-width:0.26458335px;stroke-linecap:butt;stroke-linejoin:miter;stroke-opacity:1" d="m 28.040744,286.41669 v -1.32293 l 10.311115,-5.95312 v 1.32292 z" id="path6466"/><path id="path6468" d="m 10.85534,275.17188 1.145891,0.66146 0,-1.32292 z" style="opacity:1;vector-effect:none;fill:#e9bb4c;fill-opacity:1;stroke:none;stroke-width:0.26458335px;stroke-linecap:butt;stroke-linejoin:miter;stroke-miterlimit:4;stroke-dasharray:none;stroke-dashoffset:0;stroke-opacity:1"/><path style="opacity:1;vector-effect:none;fill:#e9bb4c;fill-opacity:1;stroke:none;stroke-width:0.26458335px;stroke-linecap:butt;stroke-linejoin:miter;stroke-miterlimit:4;stroke-dasharray:none;stroke-dashoffset:0;stroke-opacity:1" d="m 21.166455,281.125 6.874289,3.96876 10.311115,-5.95313 -6.874077,-3.96875 z" id="path6489"/><path style="opacity:1;vector-effect:none;fill:#e4aa1e;fill-opacity:1;stroke:none;stroke-width:0.26458335px;stroke-linecap:butt;stroke-linejoin:miter;stroke-miterlimit:4;stroke-dasharray:none;stroke-dashoffset:0;stroke-opacity:1" d="m 12.001231,275.83334 v -1.32292 l 1.14568,0.66146 v 1.32292 z" id="path6495"/><path id="path6524" d="m 20.020988,280.46355 v -1.32292 l 1.145679,0.66146 v 1.32292 z" style="opacity:1;vector-effect:none;fill:#e4aa1e;fill-opacity:1;stroke:none;stroke-width:0.26458335px;stroke-linecap:butt;stroke-linejoin:miter;stroke-miterlimit:4;stroke-dasharray:none;stroke-dashoffset:0;stroke-opacity:1"/><path style="opacity:1;vector-effect:none;fill:#e4aa1e;fill-opacity:1;stroke:none;stroke-width:0.26458335px;stroke-linecap:butt;stroke-linejoin:miter;stroke-miterlimit:4;stroke-dasharray:none;stroke-dashoffset:0;stroke-opacity:1" d="m 18.875308,278.47917 v -1.32292 l 1.14568,0.66147 v 1.32292 z" id="path6528"/><path style="opacity:1;vector-effect:none;fill:#e6b12f;fill-opacity:1;stroke:none;stroke-width:0.26458335px;stroke-linecap:butt;stroke-linejoin:miter;stroke-miterlimit:4;stroke-dasharray:none;stroke-dashoffset:0;stroke-opacity:1;font-variant-east_asian:normal" d="m 21.166667,281.12501 10.311115,-5.95312 1.145679,0.66146 -10.311115,5.95312 z" id="path8655"/><path style="fill:#ab7f14;fill-opacity:1;stroke:none;stroke-width:0.26458335px;stroke-linecap:butt;stroke-linejoin:miter;stroke-opacity:1" d="m 21.166667,281.12502 v -1.32293 l 10.311115,-5.95312 v 1.32292 z" id="path6549"/><path id="path6553" d="m 20.020988,279.14065 v -1.32293 l 10.311115,-5.95312 v 1.32292 z" style="fill:#ab7f14;fill-opacity:1;stroke:none;stroke-width:0.26458335px;stroke-linecap:butt;stroke-linejoin:miter;stroke-opacity:1"/><path style="opacity:1;vector-effect:none;fill:#e9bb4c;fill-opacity:1;stroke:none;stroke-width:0.26458335px;stroke-linecap:butt;stroke-linejoin:miter;stroke-miterlimit:4;stroke-dasharray:none;stroke-dashoffset:0;stroke-opacity:1" d="m 14.29259,273.18751 4.582718,2.64583 10.311115,-5.95313 -4.582506,-2.64582 z" id="path6561"/><path id="path6563" d="m 13.146911,273.84897 1.145679,0.66145 v -1.32291 z" style="opacity:1;vector-effect:none;fill:#e9bb4c;fill-opacity:1;stroke:none;stroke-width:0.26458335px;stroke-linecap:butt;stroke-linejoin:miter;stroke-miterlimit:4;stroke-dasharray:none;stroke-dashoffset:0;stroke-opacity:1"/><path style="opacity:1;vector-effect:none;fill:#e9bb4c;fill-opacity:1;stroke:none;stroke-width:0.26458335px;stroke-linecap:butt;stroke-linejoin:miter;stroke-miterlimit:4;stroke-dasharray:none;stroke-dashoffset:0;stroke-opacity:1" d="m 12.001019,274.51042 1.145891,0.66146 10e-7,-1.32291 z" id="path6565"/><path id="path4932" d="m 12.001231,279.80209 v -3.96875 l 1.14568,0.66146 v -1.32292 l 1.145679,0.66146 v -1.32292 l 4.582718,2.64583 v 1.32292 l 1.14568,0.66146 v 1.32292 l 1.145679,0.66146 v 1.32291 l 6.874077,3.96875 v 2.64584 z" style="opacity:1;vector-effect:none;fill:#cdcdcd;fill-opacity:1;stroke:none;stroke-width:0.26458335px;stroke-linecap:butt;stroke-linejoin:miter;stroke-miterlimit:4;stroke-dasharray:none;stroke-dashoffset:0;stroke-opacity:1"/><path id="path6592" d="m 20.020988,279.14063 10.311115,-5.95312 1.145679,0.66146 -10.311115,5.95312 z" style="opacity:1;vector-effect:none;fill:#e6b12f;fill-opacity:1;stroke:none;stroke-width:0.26458335px;stroke-linecap:butt;stroke-linejoin:miter;stroke-miterlimit:4;stroke-dasharray:none;stroke-dashoffset:0;stroke-opacity:1;font-variant-east_asian:normal"/><path style="opacity:1;vector-effect:none;fill:#e6b12f;fill-opacity:1;stroke:none;stroke-width:0.26458335px;stroke-linecap:butt;stroke-linejoin:miter;stroke-miterlimit:4;stroke-dasharray:none;stroke-dashoffset:0;stroke-opacity:1;font-variant-east_asian:normal" d="m 18.875309,277.15626 10.311115,-5.95312 1.145679,0.66146 -10.311115,5.95312 z" id="path6594"/><path id="path6526" d="m 13.146911,275.17188 v -1.32292 l 1.145679,0.66146 v 1.32292 z" style="opacity:1;vector-effect:none;fill:#e4aa1e;fill-opacity:1;stroke:none;stroke-width:0.26458335px;stroke-linecap:butt;stroke-linejoin:miter;stroke-miterlimit:4;stroke-dasharray:none;stroke-dashoffset:0;stroke-opacity:1"/><path id="path6503" d="m 14.29259,274.51042 v -1.32292 l 4.582718,2.64584 v 1.32292 z" style="opacity:1;vector-effect:none;fill:#e4aa1e;fill-opacity:1;stroke:none;stroke-width:0.26458335px;stroke-linecap:butt;stroke-linejoin:miter;stroke-miterlimit:4;stroke-dasharray:none;stroke-dashoffset:0;stroke-opacity:1"/><path style="opacity:1;vector-effect:none;fill:#e4aa1e;fill-opacity:1;stroke:none;stroke-width:0.26458335px;stroke-linecap:butt;stroke-linejoin:miter;stroke-miterlimit:4;stroke-dasharray:none;stroke-dashoffset:0;stroke-opacity:1" d="M 21.166667,282.44792 V 281.125 l 6.874077,3.96875 v 1.32292 z" id="path6522"/><path id="path1032" d="m 15.43827,281.78647 0,-1.32291 2.291359,1.32291 0,1.32291 z" style="opacity:1;vector-effect:none;fill:#df6a00;fill-opacity:1;stroke:none;stroke-width:0.26458335px;stroke-linecap:butt;stroke-linejoin:miter;stroke-miterlimit:4;stroke-dasharray:none;stroke-dashoffset:0;stroke-opacity:1"/><path id="path4717" d="m 15.43827,279.14066 2.291359,1.3229 v 1.32291 l -2.291359,-1.3229 z" style="opacity:1;vector-effect:none;fill:#d56500;fill-opacity:1;stroke:none;stroke-width:0.26458335px;stroke-linecap:butt;stroke-linejoin:miter;stroke-miterlimit:4;stroke-dasharray:none;stroke-dashoffset:0;stroke-opacity:1"/><path id="path7904" d="m 23.458026,286.41667 0,-2.64583 2.291359,1.32292 0,2.64583 z" style="opacity:1;vector-effect:none;fill:#df6a00;fill-opacity:1;stroke:none;stroke-width:0.26458335px;stroke-linecap:butt;stroke-linejoin:miter;stroke-miterlimit:4;stroke-dasharray:none;stroke-dashoffset:0;stroke-opacity:1"/><path id="path1863" d="m 21.166667,282.44792 1.14568,0.66146 v 1.32292 l -1.14568,-0.66146 z" style="opacity:1;vector-effect:none;fill:#c2c2c2;fill-opacity:1;stroke:none;stroke-width:0.26458335px;stroke-linecap:butt;stroke-linejoin:miter;stroke-miterlimit:4;stroke-dasharray:none;stroke-dashoffset:0;stroke-opacity:1"/><path style="opacity:1;vector-effect:none;fill:#c2c2c2;fill-opacity:1;stroke:none;stroke-width:0.26458335px;stroke-linecap:butt;stroke-linejoin:miter;stroke-miterlimit:4;stroke-dasharray:none;stroke-dashoffset:0;stroke-opacity:1" d="m 18.875308,281.12501 1.14568,0.66146 v 1.32292 l -1.14568,-0.66146 z" id="path7660"/><path id="path7662" d="m 17.729629,277.81772 1.14568,0.66146 v 1.32292 l -1.14568,-0.66146 z" style="opacity:1;vector-effect:none;fill:#c2c2c2;fill-opacity:1;stroke:none;stroke-width:0.26458335px;stroke-linecap:butt;stroke-linejoin:miter;stroke-miterlimit:4;stroke-dasharray:none;stroke-dashoffset:0;stroke-opacity:1"/><path style="opacity:1;vector-effect:none;fill:#c2c2c2;fill-opacity:1;stroke:none;stroke-width:0.26458335px;stroke-linecap:butt;stroke-linejoin:miter;stroke-miterlimit:4;stroke-dasharray:none;stroke-dashoffset:0;stroke-opacity:1" d="m 15.438269,275.17188 1.14568,0.66146 v 1.32292 l -1.14568,-0.66146 z" id="path7664"/><path id="path7666" d="m 13.146911,275.17188 1.14568,0.66146 v 1.32292 l -1.14568,-0.66146 z" style="opacity:1;vector-effect:none;fill:#c2c2c2;fill-opacity:1;stroke:none;stroke-width:0.26458335px;stroke-linecap:butt;stroke-linejoin:miter;stroke-miterlimit:4;stroke-dasharray:none;stroke-dashoffset:0;stroke-opacity:1"/><path style="opacity:1;vector-effect:none;fill:#c2c2c2;fill-opacity:1;stroke:none;stroke-width:0.26458335px;stroke-linecap:butt;stroke-linejoin:miter;stroke-miterlimit:4;stroke-dasharray:none;stroke-dashoffset:0;stroke-opacity:1" d="m 15.43827,277.81771 1.14568,0.66146 v 1.32292 l -1.14568,-0.66146 z" id="path7668"/><path id="path7670" d="m 13.146911,277.81771 1.14568,0.66146 v 1.32292 l -1.14568,-0.66146 z" style="opacity:1;vector-effect:none;fill:#c2c2c2;fill-opacity:1;stroke:none;stroke-width:0.26458335px;stroke-linecap:butt;stroke-linejoin:miter;stroke-miterlimit:4;stroke-dasharray:none;stroke-dashoffset:0;stroke-opacity:1"/><path style="opacity:1;vector-effect:none;fill:#c2c2c2;fill-opacity:1;stroke:none;stroke-width:0.26458335px;stroke-linecap:butt;stroke-linejoin:miter;stroke-miterlimit:4;stroke-dasharray:none;stroke-dashoffset:0;stroke-opacity:1" d="m 12.001231,278.47917 1.14568,0.66146 v 1.32292 l -1.14568,-0.66146 z" id="path7672"/><path id="path7674" d="m 20.020987,283.10938 1.14568,0.66146 v 1.32292 l -1.14568,-0.66146 z" style="opacity:1;vector-effect:none;fill:#c2c2c2;fill-opacity:1;stroke:none;stroke-width:0.26458335px;stroke-linecap:butt;stroke-linejoin:miter;stroke-miterlimit:4;stroke-dasharray:none;stroke-dashoffset:0;stroke-opacity:1"/><path id="path7678" d="m 25.749384,285.09375 1.14568,0.66146 v 1.32292 l -1.14568,-0.66146 z" style="opacity:1;vector-effect:none;fill:#c2c2c2;fill-opacity:1;stroke:none;stroke-width:0.26458335px;stroke-linecap:butt;stroke-linejoin:miter;stroke-miterlimit:4;stroke-dasharray:none;stroke-dashoffset:0;stroke-opacity:1"/><path style="opacity:1;vector-effect:none;fill:#c2c2c2;fill-opacity:1;stroke:none;stroke-width:0.26458335px;stroke-linecap:butt;stroke-linejoin:miter;stroke-miterlimit:4;stroke-dasharray:none;stroke-dashoffset:0;stroke-opacity:1" d="m 26.895064,287.07813 1.14568,0.66146 v 1.32292 l -1.14568,-0.66146 z" id="path7680"/><path id="path7682" d="m 17.729628,281.78646 1.14568,0.66146 v 1.32292 l -1.14568,-0.66146 z" style="opacity:1;vector-effect:none;fill:#c2c2c2;fill-opacity:1;stroke:none;stroke-width:0.26458335px;stroke-linecap:butt;stroke-linejoin:miter;stroke-miterlimit:4;stroke-dasharray:none;stroke-dashoffset:0;stroke-opacity:1"/><path style="opacity:1;vector-effect:none;fill:#c2c2c2;fill-opacity:1;stroke:none;stroke-width:0.26458335px;stroke-linecap:butt;stroke-linejoin:miter;stroke-miterlimit:4;stroke-dasharray:none;stroke-dashoffset:0;stroke-opacity:1" d="m 14.29259,279.80209 1.14568,0.66146 v 1.32292 l -1.14568,-0.66146 z" id="path7684"/><path id="path1938" d="m 30.332102,286.41667 -1.145679,0.66146 v 1.32292 l 1.145679,-0.66146 z" style="opacity:1;vector-effect:none;fill:#747474;fill-opacity:1;stroke:none;stroke-width:0.26458335px;stroke-linecap:butt;stroke-linejoin:miter;stroke-miterlimit:4;stroke-dasharray:none;stroke-dashoffset:0;stroke-opacity:1"/><path style="opacity:1;vector-effect:none;fill:#747474;fill-opacity:1;stroke:none;stroke-width:0.26458335px;stroke-linecap:butt;stroke-linejoin:miter;stroke-miterlimit:4;stroke-dasharray:none;stroke-dashoffset:0;stroke-opacity:1" d="m 37.20618,282.44792 -1.145679,0.66146 v 1.32292 l 1.145679,-0.66146 z" id="path7701"/><path id="path7703" d="m 36.0605,281.78646 -1.145679,0.66146 v 1.32292 l 1.145679,-0.66146 z" style="opacity:1;vector-effect:none;fill:#747474;fill-opacity:1;stroke:none;stroke-width:0.26458335px;stroke-linecap:butt;stroke-linejoin:miter;stroke-miterlimit:4;stroke-dasharray:none;stroke-dashoffset:0;stroke-opacity:1"/><path style="opacity:1;vector-effect:none;fill:#747474;fill-opacity:1;stroke:none;stroke-width:0.26458335px;stroke-linecap:butt;stroke-linejoin:miter;stroke-miterlimit:4;stroke-dasharray:none;stroke-dashoffset:0;stroke-opacity:1" d="m 33.769141,284.4323 -1.145679,0.66146 v 1.32292 l 1.145679,-0.66146 z" id="path7705"/><path id="path7707" d="m 31.477782,284.4323 -1.145679,0.66146 v 1.32292 l 1.145679,-0.66146 z" style="opacity:1;vector-effect:none;fill:#747474;fill-opacity:1;stroke:none;stroke-width:0.26458335px;stroke-linecap:butt;stroke-linejoin:miter;stroke-miterlimit:4;stroke-dasharray:none;stroke-dashoffset:0;stroke-opacity:1"/><path style="opacity:1;vector-effect:none;fill:#747474;fill-opacity:1;stroke:none;stroke-width:0.26458335px;stroke-linecap:butt;stroke-linejoin:miter;stroke-miterlimit:4;stroke-dasharray:none;stroke-dashoffset:0;stroke-opacity:1" d="m 32.623462,283.77084 -1.145679,0.66146 v 1.32292 l 1.145679,-0.66146 z" id="path7709"/><path style="fill:#ab7f14;fill-opacity:1;stroke:none;stroke-width:0.26458335px;stroke-linecap:butt;stroke-linejoin:miter;stroke-opacity:1" d="m 18.875308,277.15627 v -1.32293 l 10.311115,-5.95312 v 1.32292 z" id="path6557"/><path id="path7711" d="m 21.166667,291.70834 1.145679,-0.66146 -1.145679,-0.66146 -1.14568,0.66146 z" style="fill:#e9bb4c;fill-opacity:1;stroke:none;stroke-width:0.26458335px;stroke-linecap:butt;stroke-linejoin:miter;stroke-opacity:1"/><path style="fill:#e9bb4c;fill-opacity:1;stroke:none;stroke-width:0.26458335px;stroke-linecap:butt;stroke-linejoin:miter;stroke-opacity:1" d="m 21.166667,290.38543 1.145679,-0.66146 -1.145679,-0.66146 -1.14568,0.66146 z" id="path7713"/><path style="fill:#e9bb4c;fill-opacity:1;stroke:none;stroke-width:0.26458335px;stroke-linecap:butt;stroke-linejoin:miter;stroke-opacity:1" d="m 18.875308,290.38543 1.145679,-0.66146 -1.145679,-0.66146 -1.14568,0.66146 z" id="path7715"/><path id="path7717" d="m 20.020988,288.40105 1.145679,-0.66146 -1.145679,-0.66146 -1.14568,0.66146 z" style="fill:#e9bb4c;fill-opacity:1;stroke:none;stroke-width:0.26458335px;stroke-linecap:butt;stroke-linejoin:miter;stroke-opacity:1"/><path style="fill:#e9bb4c;fill-opacity:1;stroke:none;stroke-width:0.26458335px;stroke-linecap:butt;stroke-linejoin:miter;stroke-opacity:1" d="m 22.312346,288.40105 1.145679,-0.66146 -1.145679,-0.66146 -1.14568,0.66146 z" id="path7719"/><path id="path7721" d="m 17.729629,289.72397 1.145679,-0.66146 -1.145679,-0.66146 -1.14568,0.66146 z" style="fill:#e9bb4c;fill-opacity:1;stroke:none;stroke-width:0.26458335px;stroke-linecap:butt;stroke-linejoin:miter;stroke-opacity:1"/><path style="fill:#e9bb4c;fill-opacity:1;stroke:none;stroke-width:0.26458335px;stroke-linecap:butt;stroke-linejoin:miter;stroke-opacity:1" d="m 16.583949,290.38543 1.145679,-0.66146 -1.145679,-0.66146 -1.14568,0.66146 z" id="path7723"/><path id="path7747" d="m 17.729629,288.40105 1.145679,-0.66146 -1.145679,-0.66146 -1.14568,0.66146 z" style="fill:#e9bb4c;fill-opacity:1;stroke:none;stroke-width:0.26458335px;stroke-linecap:butt;stroke-linejoin:miter;stroke-opacity:1"/><path id="path4675" d="m 13.146911,280.46355 -8.0197566,4.63022 6.8740766,3.96874 8.019756,-4.63021 z" style="opacity:1;vector-effect:none;fill:#b6b6b6;fill-opacity:1;stroke:none;stroke-width:0.13229167;stroke-linecap:butt;stroke-linejoin:miter;stroke-miterlimit:4;stroke-dasharray:none;stroke-dashoffset:0;stroke-opacity:1"/><path id="path5282" d="m 14.29259,281.12501 1.14568,0.66146 -1.14568,0.66146 -1.145679,-0.66146 z" style="fill:#acacac;fill-opacity:1;stroke:none;stroke-width:0.26458335px;stroke-linecap:butt;stroke-linejoin:miter;stroke-opacity:1"/><path style="fill:#acacac;fill-opacity:1;stroke:none;stroke-width:0.26458335px;stroke-linecap:butt;stroke-linejoin:miter;stroke-opacity:1" d="m 14.29259,283.77084 1.14568,0.66146 -1.14568,0.66146 -1.145679,-0.66146 z" id="path8530"/><path id="path8532" d="m 17.729629,283.10938 1.14568,0.66146 -1.14568,0.66146 -1.145679,-0.66146 z" style="fill:#acacac;fill-opacity:1;stroke:none;stroke-width:0.26458335px;stroke-linecap:butt;stroke-linejoin:miter;stroke-opacity:1"/><path style="fill:#acacac;fill-opacity:1;stroke:none;stroke-width:0.26458335px;stroke-linecap:butt;stroke-linejoin:miter;stroke-opacity:1" d="m 16.583949,285.09376 1.14568,0.66146 -1.14568,0.66146 -1.145679,-0.66146 z" id="path8534"/><path id="path8536" d="m 14.29259,285.09375 1.14568,0.66146 -1.14568,0.66146 -1.145679,-0.66146 z" style="fill:#acacac;fill-opacity:1;stroke:none;stroke-width:0.26458335px;stroke-linecap:butt;stroke-linejoin:miter;stroke-opacity:1"/><path style="fill:#acacac;fill-opacity:1;stroke:none;stroke-width:0.26458335px;stroke-linecap:butt;stroke-linejoin:miter;stroke-opacity:1" d="m 12.001231,286.41667 1.14568,0.66146 -1.14568,0.66146 -1.145679,-0.66146 z" id="path8538"/><path id="path8540" d="m 9.7098723,282.44792 1.1456797,0.66146 -1.1456797,0.66146 -1.1456787,-0.66146 z" style="fill:#acacac;fill-opacity:1;stroke:none;stroke-width:0.26458335px;stroke-linecap:butt;stroke-linejoin:miter;stroke-opacity:1"/><path style="fill:#acacac;fill-opacity:1;stroke:none;stroke-width:0.26458335px;stroke-linecap:butt;stroke-linejoin:miter;stroke-opacity:1" d="m 10.855552,284.4323 1.145679,0.66146 -1.145679,0.66146 -1.1456789,-0.66146 z" id="path8542"/><path id="path8544" d="m 7.4185134,285.09375 1.1456797,0.66146 -1.1456797,0.66146 -1.1456787,-0.66146 z" style="fill:#acacac;fill-opacity:1;stroke:none;stroke-width:0.26458335px;stroke-linecap:butt;stroke-linejoin:miter;stroke-opacity:1"/><path style="fill:#acacac;fill-opacity:1;stroke:none;stroke-width:0.26458335px;stroke-linecap:butt;stroke-linejoin:miter;stroke-opacity:1" d="m 12.001231,282.44792 1.14568,0.66146 -1.14568,0.66146 -1.145679,-0.66146 z" id="path8656"/><path id="path8658" d="m 7.4185134,283.77084 1.14568,0.66146 -1.14568,0.66146 -1.1456789,-0.66146 z" style="fill:#acacac;fill-opacity:1;stroke:none;stroke-width:0.26458335px;stroke-linecap:butt;stroke-linejoin:miter;stroke-opacity:1"/><path style="opacity:1;vector-effect:none;fill:#d56500;fill-opacity:1;stroke:none;stroke-width:0.26458335px;stroke-linecap:butt;stroke-linejoin:miter;stroke-miterlimit:4;stroke-dasharray:none;stroke-dashoffset:0;stroke-opacity:1" d="m 23.458026,283.77086 2.291359,1.3229 v 1.32291 l -2.291359,-1.3229 z" id="path10024"/></g></svg>
