<?xml version="1.0" encoding="UTF-8" standalone="no"?>
<svg xmlns:dc="http://purl.org/dc/elements/1.1/" xmlns:cc="http://creativecommons.org/ns#" xmlns:rdf="http://www.w3.org/1999/02/22-rdf-syntax-ns#" xmlns:svg="http://www.w3.org/2000/svg" xmlns="http://www.w3.org/2000/svg" id="svg8" version="1.1" viewBox="0 0 42.333337 37.041666" height="140" width="160"><defs id="defs2"/><metadata id="metadata5"><rdf:RDF><cc:Work rdf:about=""><dc:format>image/svg+xml</dc:format><dc:type rdf:resource="http://purl.org/dc/dcmitype/StillImage"/><dc:title/></cc:Work></rdf:RDF></metadata><g transform="translate(0,-259.95834)" id="layer1"><path id="path8657" d="M 2.8357955,283.77084 21.166667,294.35417 39.497538,283.77084 21.166667,273.18751 Z" style="fill:#876b28;fill-opacity:1;stroke:none;stroke-width:0.26458335px;stroke-linecap:butt;stroke-linejoin:miter;stroke-opacity:1"/><path id="path8631" d="m 15.43827,277.81772 6.874077,-3.96876 6.874075,3.96876 -6.874076,3.96875 z" style="fill:#000000;fill-opacity:0.1254902;stroke:none;stroke-width:0.26458335px;stroke-linecap:butt;stroke-linejoin:miter;stroke-opacity:1"/><path id="path5650" transform="matrix(0.26458334,0,0,0.26458334,0,259.95834)" d="M 54.019531 70 L 45.359375 75 L 105.98047 110 L 114.64062 105 L 54.019531 70 z M 105.98047 70 L 97.320312 75 L 131.96094 95 L 140.62109 90 L 105.98047 70 z M 41.029297 77.5 L 32.369141 82.5 L 92.990234 117.5 L 101.65039 112.5 L 41.029297 77.5 z M 92.990234 77.5 L 84.330078 82.5 L 118.9707 102.5 L 127.63086 97.5 L 92.990234 77.5 z M 28.039062 85 L 19.378906 90 L 80 125 L 88.660156 120 L 28.039062 85 z " style="fill:#10b12f;fill-opacity:1;stroke:none;stroke-width:1px;stroke-linecap:butt;stroke-linejoin:miter;stroke-opacity:1"/><path id="path6460" d="m 15.43827,277.81772 0,-3.96876 5.728397,3.3073 v 3.96875 z" style="fill:#cdcdcd;fill-opacity:1;stroke:none;stroke-width:0.26458335px;stroke-linecap:butt;stroke-linejoin:miter;stroke-opacity:1"/><path style="fill:#808080;fill-opacity:1;stroke:none;stroke-width:0.26458335px;stroke-linecap:butt;stroke-linejoin:miter;stroke-opacity:1" d="m 26.895064,277.81772 0,-3.96876 -5.728397,3.3073 v 3.96875 z" id="path6462"/><path id="path6468" d="m 15.43827,273.84897 5.728397,3.30729 5.728397,-3.30729 -5.728397,-3.30729 z" style="opacity:1;vector-effect:none;fill:#e9bb4c;fill-opacity:1;stroke:none;stroke-width:0.26458335px;stroke-linecap:butt;stroke-linejoin:miter;stroke-miterlimit:4;stroke-dasharray:none;stroke-dashoffset:0;stroke-opacity:1"/><path id="path9905" d="m 21.166667,270.54167 5.728396,3.3073 -5.728396,3.30729 z" style="fill:#e3ab24;stroke:none;stroke-width:0.26458335px;stroke-linecap:butt;stroke-linejoin:miter;stroke-opacity:1;font-variant-east_asian:normal;opacity:1;vector-effect:none;fill-opacity:1;stroke-miterlimit:4;stroke-dasharray:none;stroke-dashoffset:0"/><path id="path1863" d="m 15.43827,275.17188 1.14568,0.66146 v 1.32292 l -1.14568,-0.66146 z" style="opacity:1;vector-effect:none;fill:#c2c2c2;fill-opacity:1;stroke:none;stroke-width:0.26458335px;stroke-linecap:butt;stroke-linejoin:miter;stroke-miterlimit:4;stroke-dasharray:none;stroke-dashoffset:0;stroke-opacity:1"/><path style="opacity:1;vector-effect:none;fill:#c2c2c2;fill-opacity:1;stroke:none;stroke-width:0.26458335px;stroke-linecap:butt;stroke-linejoin:miter;stroke-miterlimit:4;stroke-dasharray:none;stroke-dashoffset:0;stroke-opacity:1" d="m 20.020987,279.14063 1.14568,0.66146 v 1.32292 l -1.14568,-0.66146 z" id="path7869"/><path id="path1938" transform="matrix(0.26458334,0,0,0.26458334,0,259.95834)" d="M 101.65039 52.5 L 97.320312 55 L 97.320312 60 L 101.65039 57.5 L 101.65039 52.5 z M 97.320312 60 L 92.990234 62.5 L 92.990234 67.5 L 97.320312 65 L 97.320312 60 z M 97.320312 65 L 97.320312 70 L 101.65039 67.5 L 101.65039 62.5 L 97.320312 65 z M 92.990234 67.5 L 88.660156 70 L 88.660156 75 L 92.990234 72.5 L 92.990234 67.5 z M 88.660156 60 L 84.330078 62.5 L 84.330078 67.5 L 88.660156 65 L 88.660156 60 z M 84.330078 67.5 L 80 70 L 80 75 L 84.330078 72.5 L 84.330078 67.5 z " style="opacity:1;vector-effect:none;fill:#747474;fill-opacity:1;stroke:none;stroke-width:1px;stroke-linecap:butt;stroke-linejoin:miter;stroke-miterlimit:4;stroke-dasharray:none;stroke-dashoffset:0;stroke-opacity:1"/><path id="path7904" d="m 18.875308,279.80209 1e-6,-2.64583 1.145679,0.66146 -10e-7,2.64583 z" style="opacity:1;vector-effect:none;fill:#df6a00;fill-opacity:1;stroke:none;stroke-width:0.26458335px;stroke-linecap:butt;stroke-linejoin:miter;stroke-miterlimit:4;stroke-dasharray:none;stroke-dashoffset:0;stroke-opacity:1"/><path id="path10019" d="m 20.020987,293.69272 1.14568,0.66145 v -1.32291 l -1.14568,-0.66146 z" style="fill:#876b28;stroke:none;stroke-width:0.26458335px;stroke-linecap:butt;stroke-linejoin:miter;stroke-opacity:1;fill-opacity:1"/><path style="opacity:1;vector-effect:none;fill:#c2c2c2;fill-opacity:1;stroke:none;stroke-width:0.26458335px;stroke-linecap:butt;stroke-linejoin:miter;stroke-miterlimit:4;stroke-dasharray:none;stroke-dashoffset:0;stroke-opacity:1" d="m 16.583949,277.15626 1.14568,0.66146 v 1.32292 l -1.14568,-0.66146 z" id="path9802"/><path style="opacity:1;vector-effect:none;fill:#d56500;fill-opacity:1;stroke:none;stroke-width:0.26458335px;stroke-linecap:butt;stroke-linejoin:miter;stroke-miterlimit:4;stroke-dasharray:none;stroke-dashoffset:0;stroke-opacity:1" d="m 18.875308,277.15626 1.145679,0.66146 v 1.32291 l -1.145679,-0.66146 z" id="path9677"/><path style="opacity:1;vector-effect:none;fill:#747474;fill-opacity:1;stroke:none;stroke-width:0.26458335px;stroke-linecap:butt;stroke-linejoin:miter;stroke-miterlimit:4;stroke-dasharray:none;stroke-dashoffset:0;stroke-opacity:1" d="m 24.603705,277.81771 -1.145679,0.66146 v 1.32292 l 1.145679,-0.66146 z" id="path9825"/><path id="path9796" transform="matrix(0.26458334,0,0,0.26458334,0,259.95834)" d="M 80 40 L 58.349609 52.5 L 62.679688 55 L 80 45 L 80 40 z M 80 50 L 67.009766 57.5 L 71.339844 60 L 80 55 L 80 50 z M 80 60 L 75.669922 62.5 L 80 65 L 80 60 z " style="opacity:1;vector-effect:none;fill:#e4ad27;fill-opacity:1;stroke:none;stroke-width:1px;stroke-linecap:butt;stroke-linejoin:miter;stroke-miterlimit:4;stroke-dasharray:none;stroke-dashoffset:0;stroke-opacity:1"/><path id="path9848" transform="matrix(0.26458334,0,0,0.26458334,0,259.95834)" d="M 80 40 L 80 45 L 97.320312 55 L 101.65039 52.5 L 80 40 z M 80 50 L 80 55 L 88.660156 60 L 92.990234 57.5 L 80 50 z M 80 60 L 80 65 L 84.330078 62.5 L 80 60 z " style="opacity:1;vector-effect:none;fill:#cf9a1a;fill-opacity:1;stroke:none;stroke-width:1px;stroke-linecap:butt;stroke-linejoin:miter;stroke-miterlimit:4;stroke-dasharray:none;stroke-dashoffset:0;stroke-opacity:1"/><g id="g10028" transform="translate(-2.2913599,5.2916674)"><path style="opacity:1;vector-effect:none;fill:#696969;fill-opacity:1;stroke:none;stroke-width:0.26458335px;stroke-linecap:butt;stroke-linejoin:miter;stroke-miterlimit:4;stroke-dasharray:none;stroke-dashoffset:0;stroke-opacity:1" d="m 18.875309,270.54168 1.145679,0.66145 -1.14568,0.66146 z" id="path5599"/><path style="opacity:1;vector-effect:none;fill:#e0e0e0;fill-opacity:1;stroke:none;stroke-width:0.26458335px;stroke-linecap:butt;stroke-linejoin:miter;stroke-miterlimit:4;stroke-dasharray:none;stroke-dashoffset:0;stroke-opacity:1" d="m 20.020988,271.20313 -1.145679,0.66146 1.145679,0.66146 z" id="path5603"/></g><path id="path10051" d="m 17.729628,275.17188 1.14568,0.66146 v 1.32292 l -1.14568,-0.66146 z" style="opacity:1;vector-effect:none;fill:#c2c2c2;fill-opacity:1;stroke:none;stroke-width:0.26458335px;stroke-linecap:butt;stroke-linejoin:miter;stroke-miterlimit:4;stroke-dasharray:none;stroke-dashoffset:0;stroke-opacity:1"/><path id="path5652" d="m 13.147001,279.14063 -1.145666,0.66146 1.145666,0.66146 1.145667,-0.66146 z m 1.145667,0.66146 1.145666,0.66146 1.145667,-0.66146 -1.145667,-0.66146 z m 1.145666,0.66146 -1.145666,0.66146 1.145666,0.66146 1.145667,-0.66146 z m 1.145667,0.66146 1.145667,0.66146 1.145666,-0.66146 -1.145666,-0.66146 z m 10.310999,-1.98438 -1.145667,0.66146 1.145667,0.66146 1.145667,-0.66146 z m -16.039332,1.32292 -1.1456661,0.66146 1.1456661,0.66146 1.145667,-0.66146 z m 18.330666,0 -1.145667,0.66146 1.145667,0.66146 1.145664,-0.66146 z m 1.145664,0.66146 2.291334,1.32291 1.145667,-0.66145 -2.291334,-1.32292 z m 2.291334,1.32291 -1.145667,0.66146 1.145667,0.66146 1.145667,-0.66146 z m 1.145667,0.66146 1.145667,0.66146 1.145667,-0.66146 -1.145667,-0.66146 z m -8.019666,-1.98437 -1.145666,0.66146 1.145666,0.66145 1.145667,-0.66145 z m 0,1.32291 -1.145666,0.66146 1.145666,0.66146 1.145667,-0.66146 z m 1.145667,0.66146 1.145667,0.66146 1.145667,-0.66146 -1.145667,-0.66146 z m 1.145667,0.66146 -1.145667,0.66146 1.145667,0.66146 1.145667,-0.66146 z m -14.893666,-1.98437 -1.145666,0.66145 1.145666,0.66146 1.145667,-0.66146 z m 0,1.32291 -1.145666,0.66146 1.145666,0.66146 1.145667,-0.66146 z m 1.145667,0.66146 1.145666,0.66146 1.145667,-0.66146 -1.145667,-0.66146 z m 1.145666,0.66146 -1.145666,0.66146 1.145666,0.66146 1.145667,-0.66146 z m 3.437,-1.98438 -1.145666,0.66146 1.145666,0.66146 1.145667,-0.66146 z m 1.145667,0.66146 1.145666,0.66146 1.145667,-0.66146 -1.145667,-0.66146 z m -12.6023323,0.66146 -1.1456665,0.66146 1.1456665,0.66146 1.1456667,-0.66146 z m 1.1456667,0.66146 1.1456665,0.66146 1.1456661,-0.66146 -1.1456661,-0.66146 z M 23.458,283.77084 l -1.145666,0.66146 1.145666,0.66146 1.145667,-0.66146 z m 0,1.32292 -1.145666,0.66146 1.145666,0.66145 1.145667,-0.66145 z m 8.019665,-0.66146 -1.145667,0.66146 1.145667,0.66146 1.145667,-0.66146 z m 0,1.32292 -1.145667,0.66145 1.145667,0.66146 1.145667,-0.66146 z m -19.47633,-0.66146 -2.2913331,1.32291 1.1456661,0.66146 2.291333,-1.32291 z m 5.728333,0.66146 -1.145667,0.66145 1.145667,0.66146 1.145666,-0.66146 z m 1.145666,0.66145 1.145667,0.66146 1.145666,-0.66146 -1.145666,-0.66145 z m -4.582666,0 -1.145667,0.66146 1.145667,0.66146 1.145666,-0.66146 z m 0,1.32292 -1.145667,0.66146 1.145667,0.66146 1.145666,-0.66146 z m 1.145666,0.66146 1.145667,0.66146 1.145667,-0.66146 -1.145667,-0.66146 z m 1.145667,0.66146 -1.145667,0.66146 1.145667,0.66145 1.145667,-0.66145 z m 9.165332,-2.64584 -1.145666,0.66146 1.145666,0.66146 1.145667,-0.66146 z m 1.145667,0.66146 1.145667,0.66146 1.145667,-0.66146 -1.145667,-0.66146 z m 1.145667,0.66146 -1.145667,0.66146 1.145667,0.66146 1.145667,-0.66146 z m -5.728333,-0.66146 -1.145667,0.66146 1.145667,0.66146 1.145666,-0.66146 z m 1.145666,1.98438 -1.145666,0.66146 1.145666,0.66145 1.145667,-0.66145 z m 1.145667,0.66146 1.145666,0.66145 1.145667,-0.66145 -1.145667,-0.66146 z m -5.728333,0.66145 -1.145666,0.66146 1.145666,0.66146 1.145667,-0.66146 z m 1.145667,0.66146 1.145666,0.66146 1.145667,-0.66146 -1.145667,-0.66146 z" style="fill:#0e9b2a;fill-opacity:1;stroke:none;stroke-width:0.26458335px;stroke-linecap:butt;stroke-linejoin:miter;stroke-opacity:1"/></g></svg>
