<?xml version="1.0" encoding="UTF-8" standalone="no"?>
<!-- Created with Inkscape (http://www.inkscape.org/) -->

<svg
   xmlns:dc="http://purl.org/dc/elements/1.1/"
   xmlns:cc="http://creativecommons.org/ns#"
   xmlns:rdf="http://www.w3.org/1999/02/22-rdf-syntax-ns#"
   xmlns:svg="http://www.w3.org/2000/svg"
   xmlns="http://www.w3.org/2000/svg"
   xmlns:sodipodi="http://sodipodi.sourceforge.net/DTD/sodipodi-0.dtd"
   xmlns:inkscape="http://www.inkscape.org/namespaces/inkscape"
   width="160"
   height="140"
   viewBox="0 0 42.333337 37.041666"
   version="1.1"
   id="svg8"
   inkscape:version="0.92.1 r15371"
   sodipodi:docname="gold.svg">
  <defs
     id="defs2" />
  <sodipodi:namedview
     id="base"
     pagecolor="#ffffff"
     bordercolor="#666666"
     borderopacity="1.0"
     inkscape:pageopacity="0.0"
     inkscape:pageshadow="2"
     inkscape:zoom="8"
     inkscape:cx="83.965294"
     inkscape:cy="52.567895"
     inkscape:document-units="px"
     inkscape:current-layer="layer1"
     showgrid="true"
     units="px"
     inkscape:pagecheckerboard="true"
     inkscape:window-width="1366"
     inkscape:window-height="704"
     inkscape:window-x="0"
     inkscape:window-y="27"
     inkscape:window-maximized="1">
    <inkscape:grid
       type="axonomgrid"
       id="grid4487"
       units="px"
       empspacing="4"
       originx="21.166667"
       originy="13.229167"
       spacingy="0.66145835"
       gridanglex="30" />
  </sodipodi:namedview>
  <metadata
     id="metadata5">
    <rdf:RDF>
      <cc:Work
         rdf:about="">
        <dc:format>image/svg+xml</dc:format>
        <dc:type
           rdf:resource="http://purl.org/dc/dcmitype/StillImage" />
        <dc:title />
      </cc:Work>
    </rdf:RDF>
  </metadata>
  <g
     inkscape:label="Layer 1"
     inkscape:groupmode="layer"
     id="layer1"
     transform="translate(0,-259.95834)">
    <path
       style="fill:#000000;fill-opacity:0.1254902;stroke:none;stroke-width:0.26458335px;stroke-linecap:butt;stroke-linejoin:miter;stroke-opacity:1"
       d="m 12.001231,283.77084 10.311115,5.95313 10.311116,-5.95313 -10.311116,-5.95312 z"
       id="path1757"
       inkscape:connector-curvature="0"
       sodipodi:nodetypes="ccccc" />
    <path
       sodipodi:nodetypes="ccccc"
       inkscape:connector-curvature="0"
       id="path1943"
       d="m 26.895064,283.10938 1.14568,0.66146 v -1.32292 l -1.14568,-0.66146 z"
       style="fill:#ffd02c;fill-opacity:1;stroke:none;stroke-width:0.26458335px;stroke-linecap:butt;stroke-linejoin:miter;stroke-opacity:1" />
    <path
       style="fill:#ffed8b;fill-opacity:1;stroke:none;stroke-width:1px;stroke-linecap:butt;stroke-linejoin:miter;stroke-opacity:1"
       d="m 105.98047,80 v 10 l 8.66015,-5 z"
       transform="matrix(0.26458334,0,0,0.26458334,0,259.95834)"
       id="path1945"
       inkscape:connector-curvature="0"
       sodipodi:nodetypes="cccc" />
    <path
       style="fill:#ffed8b;fill-opacity:1;stroke:none;stroke-width:1px;stroke-linecap:butt;stroke-linejoin:miter;stroke-opacity:1"
       d="m 67.009766,62.5 -8.660157,5 4.330079,2.5 8.660156,-5 z"
       transform="matrix(0.26458334,0,0,0.26458334,0,259.95834)"
       id="path1743"
       inkscape:connector-curvature="0"
       sodipodi:nodetypes="ccccc" />
    <path
       style="fill:#ffd02c;fill-opacity:1;stroke:none;stroke-width:0.26458335px;stroke-linecap:butt;stroke-linejoin:miter;stroke-opacity:1"
       d="m 15.438269,279.14063 1.14568,0.66146 v -1.32292 l -1.14568,-0.66146 z"
       id="path1733"
       inkscape:connector-curvature="0"
       sodipodi:nodetypes="ccccc" />
    <path
       style="fill:#ffd02c;fill-opacity:1;stroke:none;stroke-width:0.26458335px;stroke-linecap:butt;stroke-linejoin:miter;stroke-opacity:1"
       d="m 23.458026,282.44792 2.291359,1.32292 v -2.64583 l -2.291359,-1.32293 z"
       id="path1597"
       inkscape:connector-curvature="0"
       sodipodi:nodetypes="ccccc" />
    <path
       style="fill:#ffed8b;fill-opacity:1;stroke:none;stroke-width:0.26458335px;stroke-linecap:butt;stroke-linejoin:miter;stroke-opacity:1"
       d="m 25.749385,281.12501 -2.291359,-1.32292 2.291359,-1.32291 2.291359,1.32291 z"
       id="path1599"
       inkscape:connector-curvature="0"
       sodipodi:nodetypes="ccccc" />
    <path
       sodipodi:nodetypes="ccccc"
       inkscape:connector-curvature="0"
       id="path1589"
       d="m 14.29259,282.44792 2.291359,1.32292 v -2.64583 l -2.291359,-1.32293 z"
       style="fill:#ffd02c;fill-opacity:1;stroke:none;stroke-width:0.26458335px;stroke-linecap:butt;stroke-linejoin:miter;stroke-opacity:1" />
    <path
       style="fill:#c79b00;fill-opacity:1;stroke:none;stroke-width:0.26458335px;stroke-linecap:butt;stroke-linejoin:miter;stroke-opacity:1"
       d="m 18.875308,282.44793 -2.291359,1.32291 v -2.64583 l 2.291359,-1.32292 z"
       id="path1593"
       inkscape:connector-curvature="0"
       sodipodi:nodetypes="ccccc" />
    <path
       style="fill:#ffd02c;fill-opacity:1;stroke:none;stroke-width:0.26458335px;stroke-linecap:butt;stroke-linejoin:miter;stroke-opacity:1"
       d="m 16.583949,283.77084 4.582718,2.64583 v -5.29166 l -4.582718,-2.64584 z"
       id="path1021"
       inkscape:connector-curvature="0"
       sodipodi:nodetypes="ccccc" />
    <path
       style="fill:#ffed8b;fill-opacity:1;stroke:none;stroke-width:0.26458335px;stroke-linecap:butt;stroke-linejoin:miter;stroke-opacity:1"
       d="m 21.166667,281.12501 -4.582718,-2.64584 4.582718,-2.64583 4.582718,2.64583 z"
       id="path1568"
       inkscape:connector-curvature="0"
       sodipodi:nodetypes="ccccc" />
    <path
       sodipodi:nodetypes="ccccc"
       inkscape:connector-curvature="0"
       id="path1570"
       d="m 24.603705,284.4323 1.14568,0.66146 0,-1.32292 -1.14568,-0.66146 z"
       style="fill:#ffd02c;fill-opacity:1;stroke:none;stroke-width:0.26458335px;stroke-linecap:butt;stroke-linejoin:miter;stroke-opacity:1" />
    <path
       style="fill:#ffed8b;fill-opacity:1;stroke:none;stroke-width:1px;stroke-linecap:butt;stroke-linejoin:miter;stroke-opacity:1"
       d="M 92.99038,82.500001 84.330078,87.5 l 4.330078,2.5 4.330078,-2.5 4.330078,2.5 8.660158,-5 -4.32984,-2.499999 -4.330123,2.5 z"
       transform="matrix(0.26458334,0,0,0.26458334,0,259.95834)"
       id="path1572"
       inkscape:connector-curvature="0"
       sodipodi:nodetypes="ccccccccc" />
    <path
       sodipodi:nodetypes="ccccc"
       inkscape:connector-curvature="0"
       id="path1585"
       d="m 17.729629,285.75522 -1.14568,0.66145 v -2.64583 l 1.14568,-0.66146 z"
       style="fill:#c79b00;fill-opacity:1;stroke:none;stroke-width:0.26458335px;stroke-linecap:butt;stroke-linejoin:miter;stroke-opacity:1" />
    <path
       sodipodi:nodetypes="ccccc"
       inkscape:connector-curvature="0"
       id="path1605"
       d="m 17.729628,285.75522 1.14568,0.66146 v -1.32292 l -1.14568,-0.66146 z"
       style="fill:#ffd02c;fill-opacity:1;stroke:none;stroke-width:0.26458335px;stroke-linecap:butt;stroke-linejoin:miter;stroke-opacity:1" />
    <path
       sodipodi:nodetypes="ccccc"
       inkscape:connector-curvature="0"
       id="path1607"
       d="m 18.875308,285.09376 -1.14568,-0.66146 1.14568,-0.66146 1.145679,0.66146 z"
       style="fill:#ffed8b;fill-opacity:1;stroke:none;stroke-width:0.26458335px;stroke-linecap:butt;stroke-linejoin:miter;stroke-opacity:1" />
    <path
       sodipodi:nodetypes="ccccc"
       inkscape:connector-curvature="0"
       id="path1623"
       d="m 23.458026,285.09376 -1.14568,-0.66146 1.14568,-0.66146 1.145679,0.66146 z"
       style="fill:#ffed8b;fill-opacity:1;stroke:none;stroke-width:0.26458335px;stroke-linecap:butt;stroke-linejoin:miter;stroke-opacity:1" />
    <path
       style="fill:#c79b00;fill-opacity:1;stroke:none;stroke-width:1px;stroke-linecap:butt;stroke-linejoin:miter;stroke-opacity:1"
       d="M 92.990234,87.5 88.660156,90 v 5 l 4.330224,-2.499999 z"
       id="path1625"
       inkscape:connector-curvature="0"
       sodipodi:nodetypes="ccccc"
       transform="matrix(0.26458334,0,0,0.26458334,0,259.95834)" />
    <path
       style="fill:#ffd02c;fill-opacity:1;stroke:none;stroke-width:0.26458335px;stroke-linecap:butt;stroke-linejoin:miter;stroke-opacity:1"
       d="m 24.603705,281.78647 1.14568,0.66146 v -1.32292 l -1.14568,-0.66146 z"
       id="path1629"
       inkscape:connector-curvature="0"
       sodipodi:nodetypes="ccccc" />
    <path
       style="fill:#ffed8b;fill-opacity:1;stroke:none;stroke-width:0.26458335px;stroke-linecap:butt;stroke-linejoin:miter;stroke-opacity:1"
       d="m 25.749385,281.12501 -1.14568,-0.66146 1.14568,-0.66146 z"
       id="path1631"
       inkscape:connector-curvature="0"
       sodipodi:nodetypes="cccc" />
    <path
       style="fill:#ffd02c;fill-opacity:1;stroke:none;stroke-width:1px;stroke-linecap:butt;stroke-linejoin:miter;stroke-opacity:1"
       d="m 71.339844,65 v 5 L 80,75 v -5 z"
       transform="matrix(0.26458334,0,0,0.26458334,0,259.95834)"
       id="path1637"
       inkscape:connector-curvature="0"
       sodipodi:nodetypes="ccccc" />
    <path
       style="fill:#ffed8b;fill-opacity:1;stroke:none;stroke-width:1px;stroke-linecap:butt;stroke-linejoin:miter;stroke-opacity:1"
       d="M 80,60 71.339844,65 80,70 88.660156,65 Z"
       transform="matrix(0.26458334,0,0,0.26458334,0,259.95834)"
       id="path1639"
       inkscape:connector-curvature="0"
       sodipodi:nodetypes="ccccc" />
    <path
       style="fill:#c79b00;fill-opacity:1;stroke:none;stroke-width:1px;stroke-linecap:butt;stroke-linejoin:miter;stroke-opacity:1"
       d="M 88.660156,65 80,70 v 5 l 8.660156,-5 z"
       transform="matrix(0.26458334,0,0,0.26458334,0,259.95834)"
       id="path1657"
       inkscape:connector-curvature="0"
       sodipodi:nodetypes="ccccc" />
    <path
       style="fill:#ffed8b;fill-opacity:1;stroke:none;stroke-width:1px;stroke-linecap:butt;stroke-linejoin:miter;stroke-opacity:1"
       d="m 75.669922,97.5 8.660204,5 12.990381,-7.499999 -4.330078,-2.5 L 88.660156,95 84.330078,92.5 Z"
       id="path1695"
       inkscape:connector-curvature="0"
       sodipodi:nodetypes="ccccccc"
       transform="matrix(0.26458334,0,0,0.26458334,0,259.95834)" />
    <path
       sodipodi:nodetypes="ccccc"
       inkscape:connector-curvature="0"
       id="path1701"
       d="m 22.312346,284.43231 1.14568,0.66146 v -1.32292 l -1.14568,-0.66146 z"
       style="fill:#ffd02c;fill-opacity:1;stroke:none;stroke-width:0.26458335px;stroke-linecap:butt;stroke-linejoin:miter;stroke-opacity:1" />
    <path
       style="fill:#ffd02c;fill-opacity:1;stroke:none;stroke-width:0.26458335px;stroke-linecap:butt;stroke-linejoin:miter;stroke-opacity:1"
       d="m 16.583949,282.44793 1.14568,0.66146 v -1.32292 l -1.14568,-0.66146 z"
       id="path1709"
       inkscape:connector-curvature="0"
       sodipodi:nodetypes="ccccc" />
    <path
       sodipodi:nodetypes="ccccc"
       inkscape:connector-curvature="0"
       id="path1717"
       d="m 15.438269,281.78647 1.14568,0.66146 v -1.32292 l -1.14568,-0.66146 z"
       style="fill:#ffd02c;fill-opacity:1;stroke:none;stroke-width:0.26458335px;stroke-linecap:butt;stroke-linejoin:miter;stroke-opacity:1" />
    <path
       style="fill:#ffd02c;fill-opacity:1;stroke:none;stroke-width:1px;stroke-linecap:butt;stroke-linejoin:miter;stroke-opacity:1"
       d="m 75.669922,97.5 v 5 l 8.660156,5 v -5 z"
       transform="matrix(0.26458334,0,0,0.26458334,0,259.95834)"
       id="path1749"
       inkscape:connector-curvature="0"
       sodipodi:nodetypes="ccccc" />
    <path
       style="fill:#c79b00;fill-opacity:1;stroke:none;stroke-width:1px;stroke-linecap:butt;stroke-linejoin:miter;stroke-opacity:1"
       d="m 105.98047,85 -8.660158,5 v 5 l -12.990234,7.5 v 5 L 114.64062,90 v -5 l -8.66015,5 z"
       id="path1845"
       inkscape:connector-curvature="0"
       sodipodi:nodetypes="ccccccccc"
       transform="matrix(0.26458334,0,0,0.26458334,0,259.95834)" />
    <path
       sodipodi:nodetypes="ccccc"
       inkscape:connector-curvature="0"
       id="path1908"
       d="m 13.14691,283.10938 1.14568,0.66146 v -1.32292 l -1.14568,-0.66146 z"
       style="fill:#ffd02c;fill-opacity:1;stroke:none;stroke-width:0.26458335px;stroke-linecap:butt;stroke-linejoin:miter;stroke-opacity:1" />
    <path
       style="fill:#ffed8b;fill-opacity:1;stroke:none;stroke-width:1px;stroke-linecap:butt;stroke-linejoin:miter;stroke-opacity:1"
       d="m 54.019531,80 -8.660156,5 8.660156,5 v -5 l 4.330078,-2.5 z"
       transform="matrix(0.26458334,0,0,0.26458334,0,259.95834)"
       id="path1910"
       inkscape:connector-curvature="0"
       sodipodi:nodetypes="cccccc" />
    <path
       sodipodi:nodetypes="ccccc"
       inkscape:connector-curvature="0"
       id="path1880"
       d="m 17.729628,287.07813 1.14568,0.66146 v -1.32292 l -1.14568,-0.66146 z"
       style="fill:#ffd02c;fill-opacity:1;stroke:none;stroke-width:0.26458335px;stroke-linecap:butt;stroke-linejoin:miter;stroke-opacity:1" />
    <path
       style="fill:#c79b00;fill-opacity:1;stroke:none;stroke-width:0.26458335px;stroke-linecap:butt;stroke-linejoin:miter;stroke-opacity:1"
       d="m 20.020987,287.07813 -1.145679,0.66145 v -1.32291 l 1.145679,-0.66146 z"
       id="path1884"
       inkscape:connector-curvature="0"
       sodipodi:nodetypes="ccccc" />
    <path
       sodipodi:nodetypes="ccccc"
       inkscape:connector-curvature="0"
       id="path1927"
       d="m 15.438269,281.78647 1.14568,0.66146 v -1.32292 l -1.14568,-0.66146 z"
       style="fill:#ffd02c;fill-opacity:1;stroke:none;stroke-width:0.26458335px;stroke-linecap:butt;stroke-linejoin:miter;stroke-opacity:1" />
    <path
       style="fill:#c79b00;fill-opacity:1;stroke:none;stroke-width:0.26458335px;stroke-linecap:butt;stroke-linejoin:miter;stroke-opacity:1"
       d="m 17.729628,281.78647 -1.145679,0.66145 v -1.32291 l 1.145679,-0.66146 z"
       id="path1931"
       inkscape:connector-curvature="0"
       sodipodi:nodetypes="ccccc" />
    <path
       style="fill:#ffd02c;fill-opacity:1;stroke:none;stroke-width:1px;stroke-linecap:butt;stroke-linejoin:miter;stroke-opacity:1"
       d="m 67.009766,87.5 v 10 l 4.330078,-2.5 4.330078,2.5 v -5 z"
       transform="matrix(0.26458334,0,0,0.26458334,0,259.95834)"
       id="path1613"
       inkscape:connector-curvature="0"
       sodipodi:nodetypes="cccccc" />
    <path
       style="fill:#ffed8b;fill-opacity:1;stroke:none;stroke-width:1px;stroke-linecap:butt;stroke-linejoin:miter;stroke-opacity:1"
       d="m 58.349609,82.5 -4.330078,2.5 8.660157,5 4.330078,-2.5 8.660156,5 L 80,90 67.009766,82.5 62.679688,85 Z"
       transform="matrix(0.26458334,0,0,0.26458334,0,259.95834)"
       id="path1902"
       inkscape:connector-curvature="0"
       sodipodi:nodetypes="ccccccccc" />
    <path
       style="fill:#ffd02c;fill-opacity:1;stroke:none;stroke-width:1px;stroke-linecap:butt;stroke-linejoin:miter;stroke-opacity:1"
       d="m 45.359375,85 v 5 l 17.320313,10 V 90 l -8.660157,-5 v 5 z"
       transform="matrix(0.26458334,0,0,0.26458334,0,259.95834)"
       id="path1849"
       inkscape:connector-curvature="0"
       sodipodi:nodetypes="ccccccc" />
    <path
       style="fill:#c79b00;fill-opacity:1;stroke:none;stroke-width:1px;stroke-linecap:butt;stroke-linejoin:miter;stroke-opacity:1"
       d="M 97.320312,70 80,80 v 10 l -4.330078,2.5 v 5 l 8.660204,-4.999999 v -5 l 8.660254,-5 v -5 l 4.330127,-2.5 z"
       transform="matrix(0.26458334,0,0,0.26458334,0,259.95834)"
       id="path1566"
       inkscape:connector-curvature="0"
       sodipodi:nodetypes="ccccccccccc" />
    <path
       sodipodi:nodetypes="cccccc"
       inkscape:connector-curvature="0"
       id="path1601"
       d="m 28.040744,282.44793 -1.14568,-0.66146 -1.145679,0.66145 0,-1.32291 2.291359,-1.32292 z"
       style="fill:#c79b00;fill-opacity:1;stroke:none;stroke-width:0.26458335px;stroke-linecap:butt;stroke-linejoin:miter;stroke-opacity:1" />
    <path
       style="fill:#ffed8b;stroke:none;stroke-width:0.26458334px;stroke-linecap:butt;stroke-linejoin:miter;stroke-opacity:1;font-variant-east_asian:normal;opacity:1;vector-effect:none;fill-opacity:1;stroke-miterlimit:4;stroke-dasharray:none;stroke-dashoffset:0"
       d="m 18.875308,286.41667 1.145679,-0.66145 -1.145679,-0.66146 -1.145679,0.66146 z"
       id="path1995"
       inkscape:connector-curvature="0" />
    <path
       sodipodi:nodetypes="cccccc"
       inkscape:connector-curvature="0"
       id="path1591"
       d="m 16.583949,281.12501 -2.291359,-1.32292 2.291359,-1.32291 0,1.32291 1.14568,0.66146 z"
       style="fill:#ffed8b;fill-opacity:1;stroke:none;stroke-width:0.26458335px;stroke-linecap:butt;stroke-linejoin:miter;stroke-opacity:1" />
  </g>
</svg>
