<?xml version="1.0" encoding="UTF-8" standalone="no"?>
<svg xmlns:dc="http://purl.org/dc/elements/1.1/" xmlns:cc="http://creativecommons.org/ns#" xmlns:rdf="http://www.w3.org/1999/02/22-rdf-syntax-ns#" xmlns:svg="http://www.w3.org/2000/svg" xmlns="http://www.w3.org/2000/svg" id="svg8" version="1.1" viewBox="0 0 42.333337 37.041666" height="140" width="160"><defs id="defs2"/><metadata id="metadata5"><rdf:RDF><cc:Work rdf:about=""><dc:format>image/svg+xml</dc:format><dc:type rdf:resource="http://purl.org/dc/dcmitype/StillImage"/><dc:title/></cc:Work></rdf:RDF></metadata><g transform="translate(0,-259.95834)" id="layer1"><path id="path1757" d="m 12.001231,283.77084 10.311115,5.95313 10.311116,-5.95313 -10.311116,-5.95312 z" style="fill:#000000;fill-opacity:0.1254902;stroke:none;stroke-width:0.26458335px;stroke-linecap:butt;stroke-linejoin:miter;stroke-opacity:1"/><path id="path5154" d="m 17.729629,287.07813 1.145678,0.66146 1.14568,-0.66146 2.291359,1.32292 8.019755,-4.63021 v -1.32292 l -2.291358,-1.32291 v -1.32292 l -6.874077,-3.96875 -2.291359,1.32292 -1.145678,-0.66146 -2.291359,1.32292 v 1.32291 l -1.14568,0.66146 v 1.32292 l -2.29136,1.32291 v 1.32292 l 4.582719,2.64583 1.14568,-0.66145 z" style="opacity:1;vector-effect:none;fill:#999892;fill-opacity:1;stroke:none;stroke-width:0.26458335px;stroke-linecap:butt;stroke-linejoin:miter;stroke-miterlimit:4;stroke-dasharray:none;stroke-dashoffset:0;stroke-opacity:1"/><path id="path1657" d="m 23.458077,277.15626 -2.291333,1.32291 v 1.32292 l 2.291333,-1.32292 z m 2.291333,1.32291 -4.582666,2.64584 v 2.64583 l -1.145666,0.66146 v 1.32292 l 2.291333,-1.32292 v -1.32292 l 2.291333,-1.32291 v -1.32292 l 1.145666,-0.66146 z m -5.728332,7.27605 -1.145667,0.66145 v 1.32292 l 1.145667,-0.66146 z m 8.019666,-5.95313 -2.291334,1.32292 v 1.32291 l 1.145667,-0.66145 1.145667,0.66145 z m 0,2.64583 -2.291334,1.32292 v 1.32292 l -3.436999,1.98437 v 1.32292 l 8.019664,-4.63021 v -1.32292 l -2.291331,1.32292 z m -10.310999,-1.98437 -1.145667,0.66146 v 1.32291 l 1.145667,-0.66145 z m 0,2.64583 -1.145667,0.66146 v 2.64583 l 1.145667,-0.66145 z m 6.873999,0 -1.145667,0.66146 v 1.32292 l 1.145667,-0.66146 z" style="opacity:1;vector-effect:none;fill:#676560;fill-opacity:1;stroke:none;stroke-width:0.26458335px;stroke-linecap:butt;stroke-linejoin:miter;stroke-miterlimit:4;stroke-dasharray:none;stroke-dashoffset:0;stroke-opacity:1"/><path id="path1599" d="m 21.166628,275.83334 -2.291333,1.32292 2.291333,1.32291 2.291333,-1.32291 z m 2.291333,1.32292 v 1.32291 l -2.291333,1.32292 -2.291333,-1.32292 v -1.32291 l -1.145666,-0.66146 -2.291334,1.32292 5.728333,3.30729 4.582718,-2.64584 v 1.32292 l -1.14568,0.66146 1.145628,0.66146 2.291334,-1.32292 z m -6.873999,1.32291 -2.291333,1.32292 2.291333,1.32292 1.145667,-0.66146 -1.145667,-0.66146 z m -2.291333,2.64584 -2.291333,1.32291 1.145576,0.66146 v -1.32291 l 3.43709,1.98437 1.145667,-0.66146 2.291333,1.32292 1.145666,-0.66146 -3.436999,-1.98437 -1.145667,0.66145 z m 10.310999,0.66146 -2.291333,1.32291 1.145666,0.66146 1.145667,-0.66146 1.145666,0.66146 2.291334,-1.32292 -1.145667,-0.66145 -1.145667,0.66145 z m -2.291333,2.64583 -2.291333,1.32292 2.291333,1.32291 3.436999,-1.98437 -1.145666,-0.66146 -1.145667,0.66146 z m -2.291333,1.32292 -1.145667,-0.66146 -1.145666,0.66146 1.145666,0.66145 z" style="opacity:1;vector-effect:none;fill:#c5c5c5;fill-opacity:1;stroke:none;stroke-width:0.26458335px;stroke-linecap:butt;stroke-linejoin:miter;stroke-miterlimit:4;stroke-dasharray:none;stroke-dashoffset:0;stroke-opacity:1;font-variant-east_asian:normal"/><path id="path5866" d="m 28.040743,281.12501 2.291358,1.32291 -2.291358,1.32292 z" style="fill:#c5c5c5;stroke:none;stroke-width:0.26458335px;stroke-linecap:butt;stroke-linejoin:miter;stroke-opacity:1;font-variant-east_asian:normal;opacity:1;vector-effect:none;fill-opacity:1;stroke-miterlimit:4;stroke-dasharray:none;stroke-dashoffset:0"/></g></svg>
