<?xml version="1.0" encoding="UTF-8" standalone="no"?>
<svg xmlns:dc="http://purl.org/dc/elements/1.1/" xmlns:cc="http://creativecommons.org/ns#" xmlns:rdf="http://www.w3.org/1999/02/22-rdf-syntax-ns#" xmlns:svg="http://www.w3.org/2000/svg" xmlns="http://www.w3.org/2000/svg" id="svg8" version="1.1" viewBox="0 0 42.333337 37.041666" height="140" width="160"><defs id="defs2"/><metadata id="metadata5"><rdf:RDF><cc:Work rdf:about=""><dc:format>image/svg+xml</dc:format><dc:type rdf:resource="http://purl.org/dc/dcmitype/StillImage"/><dc:title/></cc:Work></rdf:RDF></metadata><g transform="translate(0,-259.95834)" id="layer1"><path id="path5822" d="m 20.020987,285.75522 -6.874076,3.96875 -3.4370387,-1.98438 6.8740767,-3.96875 z" style="fill:#b6b6b6;stroke:none;stroke-width:0.13229167;stroke-linecap:butt;stroke-linejoin:miter;stroke-opacity:1;font-variant-east_asian:normal;opacity:1;vector-effect:none;fill-opacity:1;stroke-miterlimit:4;stroke-dasharray:none;stroke-dashoffset:0"/><path id="path5681" transform="matrix(0.26458334,0,0,0.26458334,0,259.95834)" d="M 62.679688 90 L 58.349609 92.5 L 62.679688 95 L 67.009766 92.5 L 62.679688 90 z M 54.019531 95 L 49.689453 97.5 L 54.019531 100 L 58.349609 97.5 L 54.019531 95 z M 67.009766 97.5 L 62.679688 100 L 67.009766 102.5 L 71.339844 100 L 67.009766 97.5 z M 45.359375 100 L 41.029297 102.5 L 45.359375 105 L 49.689453 102.5 L 45.359375 100 z M 58.349609 102.5 L 54.019531 105 L 58.349609 107.5 L 62.679688 105 L 58.349609 102.5 z M 49.689453 107.5 L 45.359375 110 L 49.689453 112.5 L 54.019531 110 L 49.689453 107.5 z " style="opacity:1;vector-effect:none;fill:#acacac;fill-opacity:1;stroke:none;stroke-width:1px;stroke-linecap:butt;stroke-linejoin:miter;stroke-miterlimit:4;stroke-dasharray:none;stroke-dashoffset:0;stroke-opacity:1"/><path id="path5659" d="m 15.43827,283.10938 7.446916,4.29948 7.446915,-4.29948 -7.446915,-4.29948 z" style="fill:#000000;fill-opacity:0.1254902;stroke:none;stroke-width:0.26458335px;stroke-linecap:butt;stroke-linejoin:miter;stroke-opacity:1"/><path transform="matrix(0.26458334,0,0,0.26458334,0,259.95834)" id="path5326" d="M 75.669922 22.5 L 75.669922 27.5 L 80 30 L 80 25 L 75.669922 22.5 z M 67.009766 27.5 L 67.009766 32.5 L 71.339844 35 L 71.339844 30 L 67.009766 27.5 z M 84.330078 27.5 L 84.330078 32.5 L 88.660156 35 L 88.660156 30 L 84.330078 27.5 z M 58.349609 32.5 L 58.349609 87.5 L 80 100 L 80 45 L 75.669922 42.5 L 75.669922 47.5 L 71.339844 45 L 71.339844 40 L 67.009766 37.5 L 67.009766 42.5 L 62.679688 40 L 62.679688 35 L 58.349609 32.5 z M 92.990234 32.5 L 92.990234 37.5 L 97.320312 40 L 97.320312 35 L 92.990234 32.5 z M 84.330078 37.5 L 84.330078 42.5 L 88.660156 45 L 88.660156 40 L 84.330078 37.5 z " style="opacity:1;vector-effect:none;fill:#c1c1c1;fill-opacity:1;stroke:none;stroke-width:1px;stroke-linecap:butt;stroke-linejoin:miter;stroke-miterlimit:4;stroke-dasharray:none;stroke-dashoffset:0;stroke-opacity:1"/><path id="path5342" transform="matrix(0.26458334,0,0,0.26458334,0,259.95834)" d="M 84.330078 22.5 L 80 25 L 80 30 L 84.330078 27.5 L 84.330078 22.5 z M 75.669922 27.5 L 71.339844 30 L 71.339844 35 L 75.669922 32.5 L 75.669922 27.5 z M 92.990234 27.5 L 88.660156 30 L 88.660156 35 L 92.990234 32.5 L 92.990234 27.5 z M 67.009766 32.5 L 62.679688 35 L 62.679688 40 L 67.009766 37.5 L 67.009766 32.5 z M 101.65039 32.5 L 97.320312 35 L 97.320312 40 L 92.990234 42.5 L 92.990234 37.5 L 88.660156 40 L 88.660156 45 L 84.330078 47.5 L 84.330078 42.5 L 80 45 L 80 100 L 101.65039 87.5 L 101.65039 32.5 z M 75.669922 37.5 L 71.339844 40 L 71.339844 45 L 75.669922 42.5 L 75.669922 37.5 z " style="opacity:1;vector-effect:none;fill:#818181;fill-opacity:1;stroke:none;stroke-width:1px;stroke-linecap:butt;stroke-linejoin:miter;stroke-miterlimit:4;stroke-dasharray:none;stroke-dashoffset:0;stroke-opacity:1"/><path id="path5364" d="m 15.438258,268.5573 1.145679,-0.66146 1.14568,0.66146 -1.14568,0.66145 z" style="fill:#ffffff;fill-opacity:1;stroke:none;stroke-width:0.26458335px;stroke-linecap:butt;stroke-linejoin:miter;stroke-opacity:1"/><path style="fill:#ffffff;fill-opacity:1;stroke:none;stroke-width:0.26458335px;stroke-linecap:butt;stroke-linejoin:miter;stroke-opacity:1" d="m 17.729617,269.88022 1.145679,-0.66146 1.14568,0.66146 -1.14568,0.66145 z" id="path5366"/><path id="path5368" d="m 20.020976,271.20313 1.145679,-0.66146 1.14568,0.66146 -1.14568,0.66145 z" style="fill:#ffffff;fill-opacity:1;stroke:none;stroke-width:0.26458335px;stroke-linecap:butt;stroke-linejoin:miter;stroke-opacity:1"/><path style="fill:#ffffff;fill-opacity:1;stroke:none;stroke-width:0.26458335px;stroke-linecap:butt;stroke-linejoin:miter;stroke-opacity:1" d="m 22.312335,269.88022 1.145679,-0.66146 1.14568,0.66146 -1.14568,0.66145 z" id="path5370"/><path id="path5372" d="m 24.603694,268.5573 1.145679,-0.66146 1.14568,0.66146 -1.14568,0.66145 z" style="fill:#ffffff;fill-opacity:1;stroke:none;stroke-width:0.26458335px;stroke-linecap:butt;stroke-linejoin:miter;stroke-opacity:1"/><path style="fill:#ffffff;fill-opacity:1;stroke:none;stroke-width:0.26458335px;stroke-linecap:butt;stroke-linejoin:miter;stroke-opacity:1" d="m 22.312335,267.23439 1.145679,-0.66146 1.14568,0.66146 -1.14568,0.66145 z" id="path5374"/><path id="path5376" d="m 20.020976,265.91146 1.145679,-0.66146 1.14568,0.66146 -1.14568,0.66145 z" style="fill:#ffffff;fill-opacity:1;stroke:none;stroke-width:0.26458335px;stroke-linecap:butt;stroke-linejoin:miter;stroke-opacity:1"/><path style="fill:#ffffff;fill-opacity:1;stroke:none;stroke-width:0.26458335px;stroke-linecap:butt;stroke-linejoin:miter;stroke-opacity:1" d="m 17.729617,267.23438 1.145679,-0.66146 1.14568,0.66146 -1.14568,0.66145 z" id="path5378"/><path id="path5504" d="m 17.729629,284.4323 v -2.64583 l 1.145679,0.66145 v 2.64584 z" style="opacity:1;vector-effect:none;fill:#df6a00;fill-opacity:1;stroke:none;stroke-width:0.26458335px;stroke-linecap:butt;stroke-linejoin:miter;stroke-miterlimit:4;stroke-dasharray:none;stroke-dashoffset:0;stroke-opacity:1"/><path id="path1881" d="m 15.438334,271.20313 v 1.32292 l 1.145667,0.66146 v -1.32292 z m 1.145667,1.98438 v 1.32291 l 1.145667,0.66146 v -1.32291 z m 1.145667,1.98437 v 1.32292 l 1.145666,0.66146 v -1.32292 z m 0,1.32292 -2.291334,-1.32292 v 1.32292 l 2.291334,1.32292 z m 0,-5.29167 v 1.32292 l 1.145666,0.66146 v -1.32292 z m 2.291333,2.64584 v 1.32291 l 1.145666,0.66146 v -1.32292 z m 0,2.64583 v 1.32292 l 1.145666,0.66145 v -1.32291 z m -4.582667,1.32292 v 1.32291 l 1.145667,0.66146 v -1.32292 z m 3.437,0.66145 v 1.32292 l 1.145667,0.66146 v -1.32292 z m 1.145667,1.98438 v 1.32292 l 1.145666,0.66145 v -1.32291 z m -1.145667,-0.66146 -1.145666,-0.66146 v 1.32292 l 1.145666,0.66146 z m -3.437,0.66146 v 1.32292 l 1.145667,0.66145 v -1.32291 z m 1.145667,1.98437 v 1.32292 l 1.145667,0.66146 v -1.32292 z m 3.437,0.66146 v 1.32292 l 1.145666,0.66146 v -1.32292 z m 0,1.32292 -1.145667,-0.66146 v 1.32292 l 1.145667,0.66146 z" style="opacity:1;vector-effect:none;fill:#aeaeae;fill-opacity:1;stroke:none;stroke-width:0.26458335px;stroke-linecap:butt;stroke-linejoin:miter;stroke-miterlimit:4;stroke-dasharray:none;stroke-dashoffset:0;stroke-opacity:1"/><path id="path1901" transform="matrix(0.26458334,0,0,0.26458334,0,259.95834)" d="M 101.65039 32.5 L 97.320312 35 L 97.320312 40 L 101.65039 37.5 L 101.65039 32.5 z M 92.990234 37.5 L 88.660156 40 L 88.660156 45 L 92.990234 42.5 L 92.990234 37.5 z M 88.660156 45 L 84.330078 47.5 L 84.330078 52.5 L 88.660156 50 L 88.660156 45 z M 97.320312 45 L 92.990234 47.5 L 92.990234 52.5 L 97.320312 50 L 97.320312 45 z M 97.320312 50 L 97.320312 55 L 101.65039 52.5 L 101.65039 47.5 L 97.320312 50 z M 84.330078 57.5 L 80 60 L 80 65 L 84.330078 62.5 L 84.330078 57.5 z M 92.990234 57.5 L 88.660156 60 L 88.660156 65 L 92.990234 62.5 L 92.990234 57.5 z M 88.660156 65 L 84.330078 67.5 L 84.330078 72.5 L 88.660156 70 L 88.660156 65 z M 97.320312 65 L 92.990234 67.5 L 92.990234 72.5 L 97.320312 70 L 97.320312 65 z M 97.320312 70 L 97.320312 75 L 101.65039 72.5 L 101.65039 67.5 L 97.320312 70 z M 84.330078 77.5 L 80 80 L 80 85 L 84.330078 82.5 L 84.330078 77.5 z M 92.990234 77.5 L 88.660156 80 L 88.660156 85 L 92.990234 82.5 L 92.990234 77.5 z M 101.65039 77.5 L 97.320312 80 L 97.320312 85 L 101.65039 82.5 L 101.65039 77.5 z M 97.320312 85 L 92.990234 87.5 L 92.990234 92.5 L 97.320312 90 L 97.320312 85 z M 88.660156 90 L 84.330078 92.5 L 84.330078 97.5 L 88.660156 95 L 88.660156 90 z " style="opacity:1;vector-effect:none;fill:#787878;fill-opacity:1;stroke:none;stroke-width:1px;stroke-linecap:butt;stroke-linejoin:miter;stroke-miterlimit:4;stroke-dasharray:none;stroke-dashoffset:0;stroke-opacity:1"/><path id="path5599" d="m 17.729629,273.84897 1.145679,0.66145 0,2.64584 -1.145679,-0.66146 z" style="fill:#696969;fill-opacity:1;stroke:none;stroke-width:0.26458335px;stroke-linecap:butt;stroke-linejoin:miter;stroke-opacity:1;font-variant-east_asian:normal;opacity:1;vector-effect:none;stroke-miterlimit:4;stroke-dasharray:none;stroke-dashoffset:0"/><path style="fill:#464646;fill-opacity:1;stroke:none;stroke-width:0.26458335px;stroke-linecap:butt;stroke-linejoin:miter;stroke-opacity:1;font-variant-east_asian:normal;opacity:1;vector-effect:none;stroke-miterlimit:4;stroke-dasharray:none;stroke-dashoffset:0" d="m 24.603705,273.84897 -1.145679,0.66145 0,2.64584 1.145679,-0.66146 z" id="path5601"/><path style="fill:#696969;fill-opacity:1;stroke:none;stroke-width:0.26458335px;stroke-linecap:butt;stroke-linejoin:miter;stroke-opacity:1;font-variant-east_asian:normal;opacity:1;vector-effect:none;stroke-miterlimit:4;stroke-dasharray:none;stroke-dashoffset:0" d="m 23.458026,275.83334 1.145679,0.66146 -1.145679,0.66146 z" id="path5605"/><path id="path88" d="m 17.729629,283.10938 v -1.32291 l 1.145679,0.66145 v 1.32292 z" style="fill:#d56500;stroke:none;stroke-width:0.26458335px;stroke-linecap:butt;stroke-linejoin:miter;stroke-opacity:1;font-variant-east_asian:normal;opacity:1;vector-effect:none;fill-opacity:1;stroke-miterlimit:4;stroke-dasharray:none;stroke-dashoffset:0"/><path id="path1594" transform="matrix(0.26458334,0,0,0.26458334,0,259.95834)" d="M 75.669922 27.5 L 75.669922 32.5 L 71.339844 35 L 75.669922 37.5 L 75.669922 42.5 L 80 40 L 84.330078 42.5 L 84.330078 37.5 L 88.660156 35 L 84.330078 32.5 L 84.330078 27.5 L 80 30 L 75.669922 27.5 z M 88.660156 35 L 92.990234 37.5 L 92.990234 32.5 L 88.660156 35 z M 92.990234 37.5 L 92.990234 42.5 L 97.320312 40 L 92.990234 37.5 z M 84.330078 42.5 L 84.330078 47.5 L 88.660156 45 L 84.330078 42.5 z M 75.669922 42.5 L 71.339844 45 L 75.669922 47.5 L 75.669922 42.5 z M 71.339844 35 L 67.009766 32.5 L 67.009766 37.5 L 71.339844 35 z M 67.009766 37.5 L 62.679688 40 L 67.009766 42.5 L 67.009766 37.5 z M 71.339844 60 L 67.009766 62.5 L 71.339844 65 L 71.339844 60 z " style="fill:#e0e0e0;fill-opacity:1;stroke:none;stroke-width:1px;stroke-linecap:butt;stroke-linejoin:miter;stroke-opacity:1"/></g></svg>
