<?xml version="1.0" encoding="UTF-8" standalone="no"?>
<svg xmlns:dc="http://purl.org/dc/elements/1.1/" xmlns:cc="http://creativecommons.org/ns#" xmlns:rdf="http://www.w3.org/1999/02/22-rdf-syntax-ns#" xmlns:svg="http://www.w3.org/2000/svg" xmlns="http://www.w3.org/2000/svg" id="svg8" version="1.1" viewBox="0 0 21.166668 21.166666" height="80" width="80"><defs id="defs2"/><metadata id="metadata5"><rdf:RDF><cc:Work rdf:about=""><dc:format>image/svg+xml</dc:format><dc:type rdf:resource="http://purl.org/dc/dcmitype/StillImage"/><dc:title/></cc:Work></rdf:RDF></metadata><g transform="translate(0,-275.83334)" id="layer1"><g id="g5664"><path style="fill:#7e5e1f;fill-opacity:1;stroke:none;stroke-width:0.26458335px;stroke-linecap:butt;stroke-linejoin:miter;stroke-opacity:1" d="m 9.4376544,289.0625 1.1456796,0.66146 v -0.66145 l -1.1456796,-0.66146 z" id="path4536"/><path id="path4538" d="m 11.729013,289.0625 -1.145679,0.66146 0,-0.66145 1.145679,-0.66146 z" style="fill:#594216;fill-opacity:1;stroke:none;stroke-width:0.26458335px;stroke-linecap:butt;stroke-linejoin:miter;stroke-opacity:1"/><path style="opacity:1;vector-effect:none;fill:#319518;fill-opacity:1;stroke:none;stroke-width:0.26458335px;stroke-linecap:butt;stroke-linejoin:miter;stroke-miterlimit:4;stroke-dasharray:none;stroke-dashoffset:0;stroke-opacity:1" d="m 10.583334,289.0625 -2.2913589,-1.32291 v -2.64584 l 2.2913589,1.32292 z" id="path4516"/><path id="path4534" d="m 10.583334,289.0625 2.291359,-1.32291 v -2.64583 l -2.291359,1.32291 z" style="opacity:1;vector-effect:none;fill:#216610;fill-opacity:1;stroke:none;stroke-width:0.26458335px;stroke-linecap:butt;stroke-linejoin:miter;stroke-miterlimit:4;stroke-dasharray:none;stroke-dashoffset:0;stroke-opacity:1"/><path style="opacity:1;vector-effect:none;fill:#38a91b;fill-opacity:1;stroke:none;stroke-width:0.26458335px;stroke-linecap:butt;stroke-linejoin:miter;stroke-miterlimit:4;stroke-dasharray:none;stroke-dashoffset:0;stroke-opacity:1" d="m 10.583334,286.41668 -2.2913589,-1.32292 2.2913589,-1.32292 2.291359,1.32292 z" id="path4540"/><path style="opacity:1;vector-effect:none;fill:#2e8c17;fill-opacity:1;stroke:none;stroke-width:1px;stroke-linecap:butt;stroke-linejoin:miter;stroke-miterlimit:4;stroke-dasharray:none;stroke-dashoffset:0;stroke-opacity:1" d="M 31.339844 35 L 31.339844 40 L 35.669922 42.5 L 35.669922 37.5 L 31.339844 35 z M 35.669922 42.5 L 35.669922 47.5 L 40 50 L 40 45 L 35.669922 42.5 z " id="path6388" transform="matrix(0.26458334,0,0,0.26458334,0,275.83334)"/><path style="opacity:1;vector-effect:none;fill:#1e5c0e;fill-opacity:1;stroke:none;stroke-width:1px;stroke-linecap:butt;stroke-linejoin:miter;stroke-miterlimit:4;stroke-dasharray:none;stroke-dashoffset:0;stroke-opacity:1" d="M 44.330078 37.5 L 40 40 L 40 45 L 44.330078 42.5 L 44.330078 37.5 z M 44.330078 42.5 L 44.330078 47.5 L 48.660156 45 L 48.660156 40 L 44.330078 42.5 z " id="path6435" transform="matrix(0.26458334,0,0,0.26458334,0,275.83334)"/><path style="opacity:1;vector-effect:none;fill:#35a11a;fill-opacity:1;stroke:none;stroke-width:1px;stroke-linecap:butt;stroke-linejoin:miter;stroke-miterlimit:4;stroke-dasharray:none;stroke-dashoffset:0;stroke-opacity:1" d="M 40 30 L 35.669922 32.5 L 40 35 L 44.330078 32.5 L 40 30 z M 40 35 L 35.669922 37.5 L 40 40 L 44.330078 37.5 L 40 35 z " id="path10061" transform="matrix(0.26458334,0,0,0.26458334,0,275.83334)"/></g><path id="path4554" d="m 9.4376667,287.07814 1.1456673,0.66145 v 1.32292 l -1.1456673,-0.66146 z" style="fill:#e11000;fill-opacity:1;stroke:none;stroke-width:0.26458335px;stroke-linecap:butt;stroke-linejoin:miter;stroke-opacity:1"/><path style="fill:#7a0900;fill-opacity:1;stroke:none;stroke-width:0.26458335px;stroke-linecap:butt;stroke-linejoin:miter;stroke-opacity:1" d="m 12.874693,286.41668 -1.145667,0.66145 v 1.32292 l 1.145667,-0.66146 z" id="path4556"/><path id="path4560" d="m 11.729,285.75522 -1.145666,-0.66146 1.145666,-0.66146 1.145693,0.66146 z" style="fill:#ff2110;stroke:none;stroke-width:0.26458335px;stroke-linecap:butt;stroke-linejoin:miter;stroke-opacity:1;font-variant-east_asian:normal;opacity:1;vector-effect:none;fill-opacity:1;stroke-miterlimit:4;stroke-dasharray:none;stroke-dashoffset:0"/><path style="opacity:1;vector-effect:none;fill:#ff2110;fill-opacity:1;stroke:none;stroke-width:0.26458335px;stroke-linecap:butt;stroke-linejoin:miter;stroke-miterlimit:4;stroke-dasharray:none;stroke-dashoffset:0;stroke-opacity:1" d="m 9.4376411,285.75522 -1.145666,-0.66146 1.145666,-0.66146 1.1456929,0.66146 z" id="path4576"/></g></svg>
