<?xml version="1.0" encoding="UTF-8" standalone="no"?>
<svg xmlns:dc="http://purl.org/dc/elements/1.1/" xmlns:cc="http://creativecommons.org/ns#" xmlns:rdf="http://www.w3.org/1999/02/22-rdf-syntax-ns#" xmlns:svg="http://www.w3.org/2000/svg" xmlns="http://www.w3.org/2000/svg" id="svg8" version="1.1" viewBox="0 0 21.166668 21.166666" height="80" width="80"><defs id="defs2"/><metadata id="metadata5"><rdf:RDF><cc:Work rdf:about=""><dc:format>image/svg+xml</dc:format><dc:type rdf:resource="http://purl.org/dc/dcmitype/StillImage"/><dc:title/></cc:Work></rdf:RDF></metadata><g transform="translate(0,-275.83334)" id="layer1"><g id="g4571"><path style="fill:#7e5e1f;fill-opacity:1;stroke:none;stroke-width:0.26458335px;stroke-linecap:butt;stroke-linejoin:miter;stroke-opacity:1" d="m 9.4376544,289.0625 1.1456796,0.66146 v -0.66145 l -1.1456796,-0.66146 z" id="path4536"/><path id="path4538" d="m 11.729013,289.0625 -1.145679,0.66146 0,-0.66145 1.145679,-0.66146 z" style="fill:#594216;fill-opacity:1;stroke:none;stroke-width:0.26458335px;stroke-linecap:butt;stroke-linejoin:miter;stroke-opacity:1"/><path style="opacity:1;vector-effect:none;fill:#319518;fill-opacity:1;stroke:none;stroke-width:0.26458335px;stroke-linecap:butt;stroke-linejoin:miter;stroke-miterlimit:4;stroke-dasharray:none;stroke-dashoffset:0;stroke-opacity:1" d="m 10.583334,289.0625 -3.4370384,-1.98437 v -2.64584 l 1.1456795,-0.66145 v -1.32292 l 1.1456794,-0.66146 v -1.32292 l 1.1456795,0.66147 z" id="path4516"/><path style="opacity:1;vector-effect:none;fill:#216610;fill-opacity:1;stroke:none;stroke-width:0.26458335px;stroke-linecap:butt;stroke-linejoin:miter;stroke-miterlimit:4;stroke-dasharray:none;stroke-dashoffset:0;stroke-opacity:1" d="m 10.583334,289.0625 3.437038,-1.98437 v -2.64584 l -1.145679,-0.66145 v -1.32292 l -1.145679,-0.66146 v -1.32292 l -1.14568,0.66146 z" id="path4534"/><path style="opacity:1;vector-effect:none;fill:#38a91b;fill-opacity:1;stroke:none;stroke-width:0.26458335px;stroke-linecap:butt;stroke-linejoin:miter;stroke-miterlimit:4;stroke-dasharray:none;stroke-dashoffset:0;stroke-opacity:1" d="m 10.583334,279.80209 -1.1456665,0.66146 1.1456665,0.66146 1.145666,-0.66146 z m -1.1456665,1.98437 -1.1456665,0.66146 2.291333,1.32292 1.145666,-0.66146 z m -1.1456665,1.98438 -1.1456665,0.66146 3.4369995,1.98437 1.145666,-0.66145 z" id="path4556"/><path style="opacity:1;vector-effect:none;fill:#319518;fill-opacity:1;stroke:none;stroke-width:0.26458335px;stroke-linecap:butt;stroke-linejoin:miter;stroke-miterlimit:4;stroke-dasharray:none;stroke-dashoffset:0;stroke-opacity:1" d="m 11.729013,281.78646 -1.145666,0.66145 1.145666,0.66146 1.145667,-0.66146 z m 1.145667,1.98437 -2.291333,1.32292 1.145666,0.66146 2.291333,-1.32292 z" id="path4558"/><path style="opacity:1;vector-effect:none;fill:#2e8c17;fill-opacity:1;stroke:none;stroke-width:0.26458335px;stroke-linecap:butt;stroke-linejoin:miter;stroke-miterlimit:4;stroke-dasharray:none;stroke-dashoffset:0;stroke-opacity:1" d="m 9.4376545,283.10937 v 1.32292 l 1.1456665,0.66146 v -1.32292 z m -1.1456665,1.98438 v 1.32292 l 1.1456665,0.66146 v -1.32292 z m 1.1456665,1.98438 v 1.32291 l 1.1456665,0.66146 v -1.32292 z M 8.291988,286.41667 7.1463215,285.75521 v 1.32292 l 1.1456665,0.66145 z" id="path6388"/><path style="opacity:1;vector-effect:none;fill:#35a11a;fill-opacity:1;stroke:none;stroke-width:0.26458335px;stroke-linecap:butt;stroke-linejoin:miter;stroke-miterlimit:4;stroke-dasharray:none;stroke-dashoffset:0;stroke-opacity:1" d="m 9.4376545,281.78647 -1.145667,0.66146 1.145667,0.66146 1.1456665,-0.66146 z m 0,2.64583 -1.145667,0.66146 1.145667,0.66146 1.1456665,-0.66146 z" id="path6433"/><path style="opacity:1;vector-effect:none;fill:#1e5c0e;fill-opacity:1;stroke:none;stroke-width:0.26458335px;stroke-linecap:butt;stroke-linejoin:miter;stroke-miterlimit:4;stroke-dasharray:none;stroke-dashoffset:0;stroke-opacity:1" d="m 12.874693,282.44793 -1.145667,0.66146 v 1.32292 l 1.145667,-0.66146 z m 1.145666,1.98438 -1.145666,0.66145 v 1.32292 l 1.145666,-0.66146 z m -1.145666,1.98437 -1.145667,0.66146 v 1.32292 l 1.145667,-0.66146 z" id="path6435"/><path style="opacity:1;vector-effect:none;fill:#2c8716;fill-opacity:1;stroke:none;stroke-width:0.26458335px;stroke-linecap:butt;stroke-linejoin:miter;stroke-miterlimit:4;stroke-dasharray:none;stroke-dashoffset:0;stroke-opacity:1" d="m 12.874693,285.09376 -1.145679,-0.66145 1.145679,-0.66146 1.14568,0.66146 z" id="path7772"/></g></g></svg>
