<?xml version="1.0" encoding="UTF-8" standalone="no"?>
<svg xmlns:dc="http://purl.org/dc/elements/1.1/" xmlns:cc="http://creativecommons.org/ns#" xmlns:rdf="http://www.w3.org/1999/02/22-rdf-syntax-ns#" xmlns:svg="http://www.w3.org/2000/svg" xmlns="http://www.w3.org/2000/svg" id="svg8" version="1.1" viewBox="0 0 42.333337 37.041667" height="140" width="160"><defs id="defs2"/><metadata id="metadata5"><rdf:RDF><cc:Work rdf:about=""><dc:format>image/svg+xml</dc:format><dc:type rdf:resource="http://purl.org/dc/dcmitype/StillImage"/><dc:title/></cc:Work></rdf:RDF></metadata><g transform="translate(0,-259.95833)" id="layer1"><path id="path4675" d="m 10.855552,285.75521 -2.2913589,1.32292 6.8740769,3.96874 2.291359,-1.32291 z" style="opacity:1;vector-effect:none;fill:#b6b6b6;fill-opacity:1;stroke:none;stroke-width:0.13229167;stroke-linecap:butt;stroke-linejoin:miter;stroke-miterlimit:4;stroke-dasharray:none;stroke-dashoffset:0;stroke-opacity:1"/><path id="path4543" transform="matrix(0.26458335,0,0,0.26458335,0,259.95833)" d="M 36.699219 100 L 32.369141 102.5 L 36.699219 105 L 41.029297 102.5 L 36.699219 100 z M 41.029297 102.5 L 45.359375 105 L 49.689453 102.5 L 45.359375 100 L 41.029297 102.5 z M 49.689453 107.5 L 45.359375 110 L 49.689453 112.5 L 54.019531 110 L 49.689453 107.5 z M 54.019531 110 L 58.349609 112.5 L 62.679688 110 L 58.349609 107.5 L 54.019531 110 z " style="fill:#acacac;fill-opacity:1;stroke:none;stroke-width:1px;stroke-linecap:butt;stroke-linejoin:miter;stroke-opacity:1"/><path id="path4526" d="m 22.312346,275.17187 14.893834,8.59896 -14.893834,8.59896 -14.8938326,-8.59896 z" style="opacity:1;vector-effect:none;fill:#000000;fill-opacity:0.1254902;stroke:none;stroke-width:0.26458335px;stroke-linecap:butt;stroke-linejoin:miter;stroke-miterlimit:4;stroke-dasharray:none;stroke-dashoffset:0;stroke-opacity:1"/><path id="path1281" d="m 7.4185134,283.77084 v -6.61459 l 13.7481536,7.9375 v 6.61459 l -4.582718,-2.64584 0,-3.96875 -4.582718,-2.64584 v 3.96875 z" style="fill:#c1c1c1;fill-opacity:1;stroke:none;stroke-width:0.26458335px;stroke-linecap:butt;stroke-linejoin:miter;stroke-opacity:1"/><path style="fill:#818181;fill-opacity:1;stroke:none;stroke-width:0.26458335px;stroke-linecap:butt;stroke-linejoin:miter;stroke-opacity:1" d="m 34.914821,283.77084 v -6.61459 l -13.748154,7.9375 v 6.61459 z" id="path1287"/><path style="opacity:1;vector-effect:none;fill:#818181;fill-opacity:1;stroke:none;stroke-width:0.26458335px;stroke-linecap:butt;stroke-linejoin:miter;stroke-miterlimit:4;stroke-dasharray:none;stroke-dashoffset:0;stroke-opacity:1" d="m 17.729628,277.81771 -5.728397,3.30729 v -2.64583 l 1.145679,-0.66146 v 1.32292 l 1.14568,-0.66146 v -1.32292 l 1.145679,-0.66145 v 1.32291 l 1.14568,-0.66146 v -1.32291 l 1.145679,-0.66146 z" id="path1309"/><path id="path1311" d="m 26.895065,272.52603 -5.728397,3.30729 v -2.64583 l 1.145679,-0.66146 v 1.32292 l 1.14568,-0.66146 v -1.32292 l 1.145679,-0.66145 v 1.32291 l 1.14568,-0.66146 v -1.32291 l 1.145679,-0.66146 z" style="opacity:1;vector-effect:none;fill:#818181;fill-opacity:1;stroke:none;stroke-width:0.26458335px;stroke-linecap:butt;stroke-linejoin:miter;stroke-miterlimit:4;stroke-dasharray:none;stroke-dashoffset:0;stroke-opacity:1"/><path style="opacity:1;vector-effect:none;fill:#818181;fill-opacity:1;stroke:none;stroke-width:0.26458335px;stroke-linecap:butt;stroke-linejoin:miter;stroke-miterlimit:4;stroke-dasharray:none;stroke-dashoffset:0;stroke-opacity:1" d="m 36.0605,277.81771 -5.728397,3.30729 v -2.64583 l 1.145679,-0.66146 v 1.32292 l 1.14568,-0.66146 v -1.32292 l 1.145679,-0.66145 v 1.32291 l 1.14568,-0.66146 v -1.32291 l 1.145679,-0.66146 z" id="path1307"/><path id="path1291" d="m 26.895064,283.10938 -5.728397,3.30729 v -2.64583 l 1.145679,-0.66146 v 1.32292 l 1.14568,-0.66146 v -1.32292 l 1.145679,-0.66145 v 1.32291 l 1.14568,-0.66146 v -1.32291 l 1.145679,-0.66146 z" style="opacity:1;vector-effect:none;fill:#818181;fill-opacity:1;stroke:none;stroke-width:0.26458335px;stroke-linecap:butt;stroke-linejoin:miter;stroke-miterlimit:4;stroke-dasharray:none;stroke-dashoffset:0;stroke-opacity:1"/><path style="fill:#c1c1c1;fill-opacity:1;stroke:none;stroke-width:0.26458335px;stroke-linecap:butt;stroke-linejoin:miter;stroke-opacity:1" d="m 15.43827,283.10938 5.728397,3.30729 v -2.64583 l -1.145679,-0.66146 v 1.32292 l -1.14568,-0.66146 v -1.32292 l -1.145679,-0.66145 v 1.32291 l -1.14568,-0.66146 v -1.32291 l -1.145679,-0.66146 z" id="path1285"/><g transform="translate(9.1654358,5.2916656)" id="g1395"><path id="path1379" transform="matrix(0.26458335,0,0,0.26458335,-9.1654358,254.66666)" d="M 80 25 L 75.669922 27.5 L 80 30 L 84.330078 27.5 L 80 25 z M 71.339844 30 L 67.009766 32.5 L 71.339844 35 L 75.669922 32.5 L 71.339844 30 z M 88.660156 30 L 84.330078 32.5 L 88.660156 35 L 92.990234 32.5 L 88.660156 30 z M 62.679688 35 L 58.349609 37.5 L 62.679688 40 L 67.009766 37.5 L 62.679688 35 z M 97.320312 35 L 92.990234 37.5 L 97.320312 40 L 101.65039 37.5 L 97.320312 35 z M 71.339844 40 L 67.009766 42.5 L 71.339844 45 L 75.669922 42.5 L 71.339844 40 z M 88.660156 40 L 84.330078 42.5 L 88.660156 45 L 92.990234 42.5 L 88.660156 40 z M 45.359375 45 L 41.029297 47.5 L 45.359375 50 L 49.689453 47.5 L 45.359375 45 z M 80 45 L 75.669922 47.5 L 80 50 L 84.330078 47.5 L 80 45 z M 114.64062 45 L 110.31055 47.5 L 114.64062 50 L 118.9707 47.5 L 114.64062 45 z M 36.699219 50 L 32.369141 52.5 L 36.699219 55 L 41.029297 52.5 L 36.699219 50 z M 54.019531 50 L 49.689453 52.5 L 54.019531 55 L 58.349609 52.5 L 54.019531 50 z M 105.98047 50 L 101.65039 52.5 L 105.98047 55 L 110.31055 52.5 L 105.98047 50 z M 123.30078 50 L 118.9707 52.5 L 123.30078 55 L 127.63086 52.5 L 123.30078 50 z M 28.039062 55 L 23.708984 57.5 L 28.039062 60 L 32.369141 57.5 L 28.039062 55 z M 62.679688 55 L 58.349609 57.5 L 62.679688 60 L 67.009766 57.5 L 62.679688 55 z M 97.320312 55 L 92.990234 57.5 L 97.320312 60 L 101.65039 57.5 L 97.320312 55 z M 131.96094 55 L 127.63086 57.5 L 131.96094 60 L 136.29102 57.5 L 131.96094 55 z M 36.699219 60 L 32.369141 62.5 L 36.699219 65 L 41.029297 62.5 L 36.699219 60 z M 54.019531 60 L 49.689453 62.5 L 54.019531 65 L 58.349609 62.5 L 54.019531 60 z M 105.98047 60 L 101.65039 62.5 L 105.98047 65 L 110.31055 62.5 L 105.98047 60 z M 123.30078 60 L 118.9707 62.5 L 123.30078 65 L 127.63086 62.5 L 123.30078 60 z M 45.359375 65 L 41.029297 67.5 L 45.359375 70 L 49.689453 67.5 L 45.359375 65 z M 80 65 L 75.669922 67.5 L 80 70 L 84.330078 67.5 L 80 65 z M 114.64062 65 L 110.31055 67.5 L 114.64062 70 L 118.9707 67.5 L 114.64062 65 z M 71.339844 70 L 67.009766 72.5 L 71.339844 75 L 75.669922 72.5 L 71.339844 70 z M 88.660156 70 L 84.330078 72.5 L 88.660156 75 L 92.990234 72.5 L 88.660156 70 z M 62.679688 75 L 58.349609 77.5 L 62.679688 80 L 67.009766 77.5 L 62.679688 75 z M 97.320312 75 L 92.990234 77.5 L 97.320312 80 L 101.65039 77.5 L 97.320312 75 z M 71.339844 80 L 67.009766 82.5 L 71.339844 85 L 75.669922 82.5 L 71.339844 80 z M 88.660156 80 L 84.330078 82.5 L 88.660156 85 L 92.990234 82.5 L 88.660156 80 z M 80 85 L 75.669922 87.5 L 80 90 L 84.330078 87.5 L 80 85 z " style="fill:#ffffff;fill-opacity:1;stroke:none;stroke-width:1px;stroke-linecap:butt;stroke-linejoin:miter;stroke-opacity:1"/></g><g id="g1377" transform="translate(18.330872)"/><path id="path1313" d="m 24.603706,277.81771 5.728397,3.30729 v -2.64583 l -1.145679,-0.66146 v 1.32292 l -1.14568,-0.66146 v -1.32292 l -1.145679,-0.66145 v 1.32291 l -1.14568,-0.66146 v -1.32291 l -1.145679,-0.66146 z" style="fill:#c1c1c1;fill-opacity:1;stroke:none;stroke-width:0.26458335px;stroke-linecap:butt;stroke-linejoin:miter;stroke-opacity:1"/><path style="fill:#c1c1c1;fill-opacity:1;stroke:none;stroke-width:0.26458335px;stroke-linecap:butt;stroke-linejoin:miter;stroke-opacity:1" d="m 15.43827,272.52603 5.728397,3.30729 v -2.64583 l -1.145679,-0.66146 v 1.32292 l -1.14568,-0.66146 v -1.32292 l -1.145679,-0.66145 v 1.32291 l -1.14568,-0.66146 v -1.32291 L 15.43827,269.8802 Z" id="path1315"/><path id="path1283" d="m 6.2728339,277.81771 5.7283971,3.30729 v -2.64583 l -1.145679,-0.66146 v 1.32292 l -1.1456797,-0.66146 v -1.32292 L 8.5641928,276.4948 v 1.32291 l -1.1456794,-0.66146 v -1.32291 l -1.1456795,-0.66146 z" style="fill:#c1c1c1;fill-opacity:1;stroke:none;stroke-width:0.26458335px;stroke-linecap:butt;stroke-linejoin:miter;stroke-opacity:1"/><g id="g1341"/><path id="path1413" d="m 15.438269,280.46355 v 1.32291 L 14.29259,281.125 Z" style="fill:#f8f8f8;fill-opacity:1;stroke:none;stroke-width:0.26458335px;stroke-linecap:butt;stroke-linejoin:miter;stroke-opacity:1"/><path style="fill:#f8f8f8;fill-opacity:1;stroke:none;stroke-width:0.26458335px;stroke-linecap:butt;stroke-linejoin:miter;stroke-opacity:1" d="m 28.040744,279.80209 -1.145679,0.66146 v 1.32291 l 2.291358,-1.32291 z" id="path1415"/><path id="path1417" d="m 17.729628,280.46355 10e-7,1.32291 -1.14568,0.66146 V 281.125 Z" style="opacity:1;vector-effect:none;fill:#818181;fill-opacity:1;stroke:none;stroke-width:0.26458335px;stroke-linecap:butt;stroke-linejoin:miter;stroke-miterlimit:4;stroke-dasharray:none;stroke-dashoffset:0;stroke-opacity:1"/><path style="opacity:1;vector-effect:none;fill:#818181;fill-opacity:1;stroke:none;stroke-width:0.26458335px;stroke-linecap:butt;stroke-linejoin:miter;stroke-miterlimit:4;stroke-dasharray:none;stroke-dashoffset:0;stroke-opacity:1" d="m 10.855551,276.4948 10e-7,1.32291 -1.1456797,0.66146 v -1.32292 z" id="path1442"/><path id="path1444" d="m 8.5641921,275.17189 1e-6,1.32291 -1.1456797,0.66146 v -1.32292 z" style="opacity:1;vector-effect:none;fill:#818181;fill-opacity:1;stroke:none;stroke-width:0.26458335px;stroke-linecap:butt;stroke-linejoin:miter;stroke-miterlimit:4;stroke-dasharray:none;stroke-dashoffset:0;stroke-opacity:1"/><path style="opacity:1;vector-effect:none;fill:#818181;fill-opacity:1;stroke:none;stroke-width:0.26458335px;stroke-linecap:butt;stroke-linejoin:miter;stroke-miterlimit:4;stroke-dasharray:none;stroke-dashoffset:0;stroke-opacity:1" d="m 17.729628,269.88021 10e-7,1.32291 -1.14568,0.66146 v -1.32292 z" id="path1446"/><path id="path1448" d="m 10.855551,273.84897 10e-7,1.32291 -1.1456802,0.66146 v -1.32292 z" style="opacity:1;vector-effect:none;fill:#818181;fill-opacity:1;stroke:none;stroke-width:0.26458335px;stroke-linecap:butt;stroke-linejoin:miter;stroke-miterlimit:4;stroke-dasharray:none;stroke-dashoffset:0;stroke-opacity:1"/><path style="opacity:1;vector-effect:none;fill:#818181;fill-opacity:1;stroke:none;stroke-width:0.26458335px;stroke-linecap:butt;stroke-linejoin:miter;stroke-miterlimit:4;stroke-dasharray:none;stroke-dashoffset:0;stroke-opacity:1" d="m 13.14691,272.52605 10e-7,1.32291 -1.14568,0.66146 v -1.32292 z" id="path1450"/><path id="path1452" d="m 15.438269,273.84897 10e-7,1.32291 -1.14568,0.66146 v -1.32292 z" style="opacity:1;vector-effect:none;fill:#818181;fill-opacity:1;stroke:none;stroke-width:0.26458335px;stroke-linecap:butt;stroke-linejoin:miter;stroke-miterlimit:4;stroke-dasharray:none;stroke-dashoffset:0;stroke-opacity:1"/><path style="opacity:1;vector-effect:none;fill:#818181;fill-opacity:1;stroke:none;stroke-width:0.26458335px;stroke-linecap:butt;stroke-linejoin:miter;stroke-miterlimit:4;stroke-dasharray:none;stroke-dashoffset:0;stroke-opacity:1" d="m 20.020987,271.20312 10e-7,1.32291 -1.14568,0.66146 v -1.32292 z" id="path1454"/><path id="path1456" d="m 20.020988,268.55728 1e-6,1.32291 -1.14568,0.66146 v -1.32292 z" style="opacity:1;vector-effect:none;fill:#818181;fill-opacity:1;stroke:none;stroke-width:0.26458335px;stroke-linecap:butt;stroke-linejoin:miter;stroke-miterlimit:4;stroke-dasharray:none;stroke-dashoffset:0;stroke-opacity:1"/><path style="opacity:1;vector-effect:none;fill:#818181;fill-opacity:1;stroke:none;stroke-width:0.26458335px;stroke-linecap:butt;stroke-linejoin:miter;stroke-miterlimit:4;stroke-dasharray:none;stroke-dashoffset:0;stroke-opacity:1" d="m 22.312347,267.23437 1e-6,1.32291 -1.14568,0.66146 v -1.32292 z" id="path1458"/><path id="path1460" d="m 24.603706,268.55728 1e-6,1.32291 -1.14568,0.66146 v -1.32292 z" style="opacity:1;vector-effect:none;fill:#818181;fill-opacity:1;stroke:none;stroke-width:0.26458335px;stroke-linecap:butt;stroke-linejoin:miter;stroke-miterlimit:4;stroke-dasharray:none;stroke-dashoffset:0;stroke-opacity:1"/><path style="opacity:1;vector-effect:none;fill:#818181;fill-opacity:1;stroke:none;stroke-width:0.26458335px;stroke-linecap:butt;stroke-linejoin:miter;stroke-miterlimit:4;stroke-dasharray:none;stroke-dashoffset:0;stroke-opacity:1" d="m 29.186423,273.84897 10e-7,1.32291 -1.14568,0.66146 v -1.32292 z" id="path1462"/><path id="path1464" d="m 31.477781,272.52605 1e-6,1.32291 -1.14568,0.66146 v -1.32292 z" style="opacity:1;vector-effect:none;fill:#818181;fill-opacity:1;stroke:none;stroke-width:0.26458335px;stroke-linecap:butt;stroke-linejoin:miter;stroke-miterlimit:4;stroke-dasharray:none;stroke-dashoffset:0;stroke-opacity:1"/><path id="path1466" d="m 26.895064,275.17189 10e-7,1.32291 -1.14568,0.66146 v -1.32292 z" style="opacity:1;vector-effect:none;fill:#818181;fill-opacity:1;stroke:none;stroke-width:0.26458335px;stroke-linecap:butt;stroke-linejoin:miter;stroke-miterlimit:4;stroke-dasharray:none;stroke-dashoffset:0;stroke-opacity:1"/><path style="opacity:1;vector-effect:none;fill:#818181;fill-opacity:1;stroke:none;stroke-width:0.26458335px;stroke-linecap:butt;stroke-linejoin:miter;stroke-miterlimit:4;stroke-dasharray:none;stroke-dashoffset:0;stroke-opacity:1" d="m 33.76914,273.84897 10e-7,1.32291 -1.14568,0.66146 v -1.32292 z" id="path1468"/><path id="path1470" d="m 29.186423,276.4948 10e-7,1.32291 -1.14568,0.66146 v -1.32292 z" style="opacity:1;vector-effect:none;fill:#818181;fill-opacity:1;stroke:none;stroke-width:0.26458335px;stroke-linecap:butt;stroke-linejoin:miter;stroke-miterlimit:4;stroke-dasharray:none;stroke-dashoffset:0;stroke-opacity:1"/><path style="opacity:1;vector-effect:none;fill:#818181;fill-opacity:1;stroke:none;stroke-width:0.26458335px;stroke-linecap:butt;stroke-linejoin:miter;stroke-miterlimit:4;stroke-dasharray:none;stroke-dashoffset:0;stroke-opacity:1" d="m 24.603705,279.14064 10e-7,1.32291 -1.14568,0.66146 v -1.32292 z" id="path1472"/><path id="path1474" d="m 22.312346,277.81772 10e-7,1.32291 -1.14568,0.66146 v -1.32292 z" style="opacity:1;vector-effect:none;fill:#818181;fill-opacity:1;stroke:none;stroke-width:0.26458335px;stroke-linecap:butt;stroke-linejoin:miter;stroke-miterlimit:4;stroke-dasharray:none;stroke-dashoffset:0;stroke-opacity:1"/><path style="opacity:1;vector-effect:none;fill:#818181;fill-opacity:1;stroke:none;stroke-width:0.26458335px;stroke-linecap:butt;stroke-linejoin:miter;stroke-miterlimit:4;stroke-dasharray:none;stroke-dashoffset:0;stroke-opacity:1" d="m 20.020987,279.14064 10e-7,1.32291 -1.14568,0.66146 v -1.32292 z" id="path1476"/><path id="path1478" d="m 20.020987,281.78647 10e-7,1.32291 -1.14568,0.66146 v -1.32292 z" style="opacity:1;vector-effect:none;fill:#818181;fill-opacity:1;stroke:none;stroke-width:0.26458335px;stroke-linecap:butt;stroke-linejoin:miter;stroke-miterlimit:4;stroke-dasharray:none;stroke-dashoffset:0;stroke-opacity:1;font-variant-east_asian:normal"/><path id="path1480" d="m 26.895064,273.84896 1.14568,0.66146 v 1.32292 l -1.14568,-0.66146 z" style="opacity:1;vector-effect:none;fill:#c1c1c1;fill-opacity:1;stroke:none;stroke-width:0.26458335px;stroke-linecap:butt;stroke-linejoin:miter;stroke-miterlimit:4;stroke-dasharray:none;stroke-dashoffset:0;stroke-opacity:1"/><path style="opacity:1;vector-effect:none;fill:#c1c1c1;fill-opacity:1;stroke:none;stroke-width:0.26458335px;stroke-linecap:butt;stroke-linejoin:miter;stroke-miterlimit:4;stroke-dasharray:none;stroke-dashoffset:0;stroke-opacity:1" d="m 29.186423,272.52604 1.14568,0.66146 v 1.32292 l -1.14568,-0.66146 z" id="path1496"/><path id="path1498" d="m 31.477782,273.84896 1.14568,0.66146 v 1.32292 l -1.14568,-0.66146 z" style="opacity:1;vector-effect:none;fill:#c1c1c1;fill-opacity:1;stroke:none;stroke-width:0.26458335px;stroke-linecap:butt;stroke-linejoin:miter;stroke-miterlimit:4;stroke-dasharray:none;stroke-dashoffset:0;stroke-opacity:1"/><path style="opacity:1;vector-effect:none;fill:#c1c1c1;fill-opacity:1;stroke:none;stroke-width:0.26458335px;stroke-linecap:butt;stroke-linejoin:miter;stroke-miterlimit:4;stroke-dasharray:none;stroke-dashoffset:0;stroke-opacity:1" d="m 33.769141,275.17188 1.14568,0.66146 v 1.32292 l -1.14568,-0.66146 z" id="path1500"/><path id="path1502" d="m 31.477782,276.49479 1.14568,0.66146 v 1.32292 l -1.14568,-0.66146 z" style="opacity:1;vector-effect:none;fill:#c1c1c1;fill-opacity:1;stroke:none;stroke-width:0.26458335px;stroke-linecap:butt;stroke-linejoin:miter;stroke-miterlimit:4;stroke-dasharray:none;stroke-dashoffset:0;stroke-opacity:1"/><path style="opacity:1;vector-effect:none;fill:#c1c1c1;fill-opacity:1;stroke:none;stroke-width:0.26458335px;stroke-linecap:butt;stroke-linejoin:miter;stroke-miterlimit:4;stroke-dasharray:none;stroke-dashoffset:0;stroke-opacity:1" d="m 24.603706,269.8802 1.14568,0.66146 v 1.32292 l -1.14568,-0.66146 z" id="path1504"/><path id="path1506" d="m 22.312347,271.20311 1.14568,0.66146 v 1.32292 l -1.14568,-0.66146 z" style="opacity:1;vector-effect:none;fill:#c1c1c1;fill-opacity:1;stroke:none;stroke-width:0.26458335px;stroke-linecap:butt;stroke-linejoin:miter;stroke-miterlimit:4;stroke-dasharray:none;stroke-dashoffset:0;stroke-opacity:1"/><path style="opacity:1;vector-effect:none;fill:#c1c1c1;fill-opacity:1;stroke:none;stroke-width:0.26458335px;stroke-linecap:butt;stroke-linejoin:miter;stroke-miterlimit:4;stroke-dasharray:none;stroke-dashoffset:0;stroke-opacity:1" d="m 22.312346,268.55728 1.14568,0.66146 v 1.32292 l -1.14568,-0.66146 z" id="path1508"/><path id="path1510" d="m 20.020987,267.23437 1.14568,0.66146 v 1.32292 l -1.14568,-0.66146 z" style="opacity:1;vector-effect:none;fill:#c1c1c1;fill-opacity:1;stroke:none;stroke-width:0.26458335px;stroke-linecap:butt;stroke-linejoin:miter;stroke-miterlimit:4;stroke-dasharray:none;stroke-dashoffset:0;stroke-opacity:1"/><path style="opacity:1;vector-effect:none;fill:#c1c1c1;fill-opacity:1;stroke:none;stroke-width:0.26458335px;stroke-linecap:butt;stroke-linejoin:miter;stroke-miterlimit:4;stroke-dasharray:none;stroke-dashoffset:0;stroke-opacity:1" d="m 17.729629,268.55728 1.14568,0.66146 v 1.32292 l -1.14568,-0.66146 z" id="path1512"/><path id="path1514" d="m 10.855552,272.52604 1.14568,0.66146 v 1.32292 l -1.14568,-0.66146 z" style="opacity:1;vector-effect:none;fill:#c1c1c1;fill-opacity:1;stroke:none;stroke-width:0.26458335px;stroke-linecap:butt;stroke-linejoin:miter;stroke-miterlimit:4;stroke-dasharray:none;stroke-dashoffset:0;stroke-opacity:1"/><path style="opacity:1;vector-effect:none;fill:#c1c1c1;fill-opacity:1;stroke:none;stroke-width:0.26458335px;stroke-linecap:butt;stroke-linejoin:miter;stroke-miterlimit:4;stroke-dasharray:none;stroke-dashoffset:0;stroke-opacity:1" d="m 13.14691,273.84896 1.14568,0.66146 v 1.32292 l -1.14568,-0.66146 z" id="path1516"/><path id="path1518" d="m 15.438269,275.17188 1.14568,0.66146 v 1.32292 l -1.14568,-0.66146 z" style="opacity:1;vector-effect:none;fill:#c1c1c1;fill-opacity:1;stroke:none;stroke-width:0.26458335px;stroke-linecap:butt;stroke-linejoin:miter;stroke-miterlimit:4;stroke-dasharray:none;stroke-dashoffset:0;stroke-opacity:1"/><path style="opacity:1;vector-effect:none;fill:#c1c1c1;fill-opacity:1;stroke:none;stroke-width:0.26458335px;stroke-linecap:butt;stroke-linejoin:miter;stroke-miterlimit:4;stroke-dasharray:none;stroke-dashoffset:0;stroke-opacity:1" d="m 8.5641928,273.84896 1.14568,0.66146 v 1.32292 l -1.14568,-0.66146 z" id="path1520"/><path id="path1522" d="m 17.729628,279.14063 1.14568,0.66146 v 1.32292 l -1.14568,-0.66146 z" style="opacity:1;vector-effect:none;fill:#c1c1c1;fill-opacity:1;stroke:none;stroke-width:0.26458335px;stroke-linecap:butt;stroke-linejoin:miter;stroke-miterlimit:4;stroke-dasharray:none;stroke-dashoffset:0;stroke-opacity:1"/><path style="opacity:1;vector-effect:none;fill:#c1c1c1;fill-opacity:1;stroke:none;stroke-width:0.26458335px;stroke-linecap:butt;stroke-linejoin:miter;stroke-miterlimit:4;stroke-dasharray:none;stroke-dashoffset:0;stroke-opacity:1" d="m 20.020987,277.81771 1.14568,0.66146 v 1.32292 l -1.14568,-0.66146 z" id="path1524"/><path id="path1526" d="m 22.312346,279.14063 1.14568,0.66146 v 1.32292 l -1.14568,-0.66146 z" style="opacity:1;vector-effect:none;fill:#c1c1c1;fill-opacity:1;stroke:none;stroke-width:0.26458335px;stroke-linecap:butt;stroke-linejoin:miter;stroke-miterlimit:4;stroke-dasharray:none;stroke-dashoffset:0;stroke-opacity:1"/><path style="opacity:1;vector-effect:none;fill:#c1c1c1;fill-opacity:1;stroke:none;stroke-width:0.26458335px;stroke-linecap:butt;stroke-linejoin:miter;stroke-miterlimit:4;stroke-dasharray:none;stroke-dashoffset:0;stroke-opacity:1" d="m 24.603705,280.46354 1.14568,0.66146 v 1.32292 l -1.14568,-0.66146 z" id="path1528"/><path id="path1530" d="m 22.312346,281.78646 1.14568,0.66146 v 1.32292 l -1.14568,-0.66146 z" style="opacity:1;vector-effect:none;fill:#c1c1c1;fill-opacity:1;stroke:none;stroke-width:0.26458335px;stroke-linecap:butt;stroke-linejoin:miter;stroke-miterlimit:4;stroke-dasharray:none;stroke-dashoffset:0;stroke-opacity:1"/><path id="path1532" transform="matrix(0.26458335,0,0,0.26458335,0,259.95833)" d="M 75.669922 32.5 L 75.669922 37.5 L 71.339844 40 L 75.669922 42.5 L 75.669922 47.5 L 80 45 L 84.330078 47.5 L 84.330078 52.5 L 88.660156 50 L 84.332031 47.5 L 84.332031 42.5 L 88.660156 40 L 84.332031 37.5 L 84.332031 32.5 L 80 35 L 75.669922 32.5 z M 75.669922 47.5 L 71.339844 50 L 75.669922 52.5 L 75.669922 47.5 z M 71.339844 40 L 67.009766 37.5 L 67.009766 42.5 L 71.339844 40 z M 67.009766 42.5 L 62.679688 45 L 67.009766 47.5 L 67.009766 42.5 z M 92.990234 37.5 L 88.662109 40 L 92.990234 42.5 L 92.990234 37.5 z M 92.990234 42.5 L 92.990234 47.5 L 97.320312 45 L 92.990234 42.5 z M 41.029297 52.5 L 41.029297 57.5 L 36.699219 60 L 41.029297 62.5 L 41.029297 67.5 L 45.359375 65 L 49.689453 67.5 L 49.689453 62.5 L 54.019531 60 L 49.689453 57.5 L 49.689453 52.5 L 45.359375 55 L 41.029297 52.5 z M 54.019531 60 L 58.349609 62.5 L 58.349609 57.5 L 54.019531 60 z M 58.349609 62.5 L 58.349609 67.5 L 62.679688 65 L 58.349609 62.5 z M 49.689453 67.5 L 49.689453 72.5 L 54.019531 70 L 49.689453 67.5 z M 41.029297 67.5 L 36.699219 70 L 41.029297 72.5 L 41.029297 67.5 z M 36.699219 60 L 32.369141 57.5 L 32.369141 62.5 L 36.699219 60 z M 32.369141 62.5 L 28.039062 65 L 32.369141 67.5 L 32.369141 62.5 z M 110.31055 52.5 L 110.31055 57.5 L 105.98047 60 L 110.31055 62.5 L 110.31055 67.5 L 114.64062 65 L 118.9707 67.5 L 118.9707 62.5 L 123.30078 60 L 118.9707 57.5 L 118.9707 52.5 L 114.64062 55 L 110.31055 52.5 z M 123.30078 60 L 127.63086 62.5 L 127.63086 57.5 L 123.30078 60 z M 127.63086 62.5 L 127.63086 67.5 L 131.96094 65 L 127.63086 62.5 z M 118.9707 67.5 L 118.9707 72.5 L 123.30078 70 L 118.9707 67.5 z M 110.31055 67.5 L 105.98047 70 L 110.31055 72.5 L 110.31055 67.5 z M 105.98047 60 L 101.65039 57.5 L 101.65039 62.5 L 105.98047 60 z M 101.65039 62.5 L 97.320312 65 L 101.65039 67.5 L 101.65039 62.5 z M 75.669922 72.5 L 75.669922 77.5 L 71.339844 80 L 75.669922 82.5 L 75.669922 87.5 L 80 85 L 84.330078 87.5 L 84.330078 82.5 L 88.660156 80 L 84.330078 77.5 L 84.330078 72.5 L 80 75 L 75.669922 72.5 z M 88.660156 80 L 92.990234 82.5 L 92.990234 77.5 L 88.660156 80 z M 92.990234 82.5 L 92.990234 87.5 L 97.320312 85 L 92.990234 82.5 z M 84.330078 87.5 L 84.330078 92.5 L 88.660156 90 L 84.330078 87.5 z M 75.669922 87.5 L 71.339844 90 L 75.669922 92.5 L 75.669922 87.5 z M 71.339844 80 L 67.009766 77.5 L 67.009766 82.5 L 71.339844 80 z M 67.009766 82.5 L 62.679688 85 L 67.009766 87.5 L 67.009766 82.5 z " style="fill:#e0e0e0;fill-opacity:1;stroke:none;stroke-width:1px;stroke-linecap:butt;stroke-linejoin:miter;stroke-opacity:1"/><path id="path1580" d="m 13.14691,276.49479 1.14568,0.66146 v 1.32292 l -1.14568,-0.66146 z" style="opacity:1;vector-effect:none;fill:#c1c1c1;fill-opacity:1;stroke:none;stroke-width:0.26458335px;stroke-linecap:butt;stroke-linejoin:miter;stroke-miterlimit:4;stroke-dasharray:none;stroke-dashoffset:0;stroke-opacity:1"/><path id="path147" d="m 15.438269,273.84896 1.14568,-0.66146 1.145679,0.66146 -2.291359,1.32292 z" style="fill:#fafafa;fill-opacity:1;stroke:none;stroke-width:0.26458335px;stroke-linecap:butt;stroke-linejoin:miter;stroke-opacity:1"/><path style="fill:#fafafa;fill-opacity:1;stroke:none;stroke-width:0.26458335px;stroke-linecap:butt;stroke-linejoin:miter;stroke-opacity:1" d="m 26.895064,273.84896 -1.145679,0.66146 1.145679,0.66146 z" id="path954"/><path id="path958" d="m 17.729628,273.84896 v 1.32292 l -1.145679,-0.66146 z" style="opacity:1;vector-effect:none;fill:#696969;fill-opacity:1;stroke:none;stroke-width:0.26458335px;stroke-linecap:butt;stroke-linejoin:miter;stroke-miterlimit:4;stroke-dasharray:none;stroke-dashoffset:0;stroke-opacity:1"/><path id="path974" d="m 16.583949,278.47917 v 1.32292 0 l -1.14568,0.66146 -1.145679,-0.66146 z" style="opacity:1;vector-effect:none;fill:#696969;fill-opacity:1;stroke:none;stroke-width:0.26458335px;stroke-linecap:butt;stroke-linejoin:miter;stroke-miterlimit:4;stroke-dasharray:none;stroke-dashoffset:0;stroke-opacity:1"/><path id="path981" d="m 24.603705,273.84896 -3.437038,1.98438 v 1.32291 l 1.145679,0.66146 v 1.32292 l 1.14568,-0.66146 1.145679,0.66146 v 1.32292 l 1.14568,-0.66146 v -1.32292 l -1.14568,-0.66146 z" style="opacity:1;vector-effect:none;fill:#818181;fill-opacity:1;stroke:none;stroke-width:0.26458335px;stroke-linecap:butt;stroke-linejoin:miter;stroke-miterlimit:4;stroke-dasharray:none;stroke-dashoffset:0;stroke-opacity:1"/><path style="opacity:1;vector-effect:none;fill:#696969;fill-opacity:1;stroke:none;stroke-width:0.26458335px;stroke-linecap:butt;stroke-linejoin:miter;stroke-miterlimit:4;stroke-dasharray:none;stroke-dashoffset:0;stroke-opacity:1" d="m 16.583949,278.47917 v 1.32292 0 l -1.14568,0.66146 -1.145679,-0.66146 z" id="path1004"/><path style="opacity:1;vector-effect:none;fill:#c1c1c1;fill-opacity:1;stroke:none;stroke-width:0.26458335px;stroke-linecap:butt;stroke-linejoin:miter;stroke-miterlimit:4;stroke-dasharray:none;stroke-dashoffset:0;stroke-opacity:1;font-variant-east_asian:normal" d="m 17.729629,273.84896 3.437038,1.98438 v 1.32291 l -1.145679,0.66146 v 1.32292 l -1.14568,-0.66146 -1.145679,0.66146 v 1.32292 l -1.14568,-0.66146 v -1.32292 l 1.14568,-0.66146 z" id="path1022"/><path id="path1024" d="m 25.749385,278.47917 v 1.32292 0 l 1.14568,0.66146 1.145679,-0.66146 z" style="opacity:1;vector-effect:none;fill:#979797;fill-opacity:1;stroke:none;stroke-width:0.26458335px;stroke-linecap:butt;stroke-linejoin:miter;stroke-miterlimit:4;stroke-dasharray:none;stroke-dashoffset:0;stroke-opacity:1;font-variant-east_asian:normal"/><path id="path1028" d="m 7.4185134,278.47917 5.7283976,3.30729 -1.14568,0.66146 -4.5827176,-2.64583 z" style="fill:#818181;fill-opacity:1;stroke:none;stroke-width:0.26458335px;stroke-linecap:butt;stroke-linejoin:miter;stroke-opacity:1"/><path style="fill:#818181;fill-opacity:1;stroke:none;stroke-width:0.26458335px;stroke-linecap:butt;stroke-linejoin:miter;stroke-opacity:1" d="m 16.583949,283.77083 4.582718,2.64584 v 1.32292 l -4.582718,-2.64584 z" id="path1030"/><path id="path1032" d="m 12.001231,286.41666 0,-2.64584 4.582718,2.64584 0,2.64584 z" style="opacity:1;vector-effect:none;fill:#df6a00;fill-opacity:1;stroke:none;stroke-width:0.26458335px;stroke-linecap:butt;stroke-linejoin:miter;stroke-miterlimit:4;stroke-dasharray:none;stroke-dashoffset:0;stroke-opacity:1"/><path id="path1054" d="m 21.166667,286.41667 4.582718,-2.64584 v 0 1.32292 l -4.582718,2.64584 z" style="opacity:1;vector-effect:none;fill:#696969;fill-opacity:1;stroke:none;stroke-width:0.26458335px;stroke-linecap:butt;stroke-linejoin:miter;stroke-miterlimit:4;stroke-dasharray:none;stroke-dashoffset:0;stroke-opacity:1"/><path style="opacity:1;vector-effect:none;fill:#696969;fill-opacity:1;stroke:none;stroke-width:0.26458335px;stroke-linecap:butt;stroke-linejoin:miter;stroke-miterlimit:4;stroke-dasharray:none;stroke-dashoffset:0;stroke-opacity:1" d="m 29.186423,280.46355 1.14568,0.66145 4.582718,-2.64583 v 0 1.32292 l -4.582718,2.64583 -1.14568,-0.66146 z" id="path1070"/><path id="path1081" d="m 13.146911,281.78646 1.145679,-0.66146 -1.145679,-0.66145 -1.14568,0.66145 z" style="opacity:1;vector-effect:none;fill:#696969;fill-opacity:1;stroke:none;stroke-width:0.26458335px;stroke-linecap:butt;stroke-linejoin:miter;stroke-miterlimit:4;stroke-dasharray:none;stroke-dashoffset:0;stroke-opacity:1"/><path id="path1088" d="m 14.29259,281.125 1.145679,-0.66145 -1.145679,-0.66146 -1.145679,0.66146 z" style="opacity:1;vector-effect:none;fill:#c1c1c1;fill-opacity:1;stroke:none;stroke-width:0.26458335px;stroke-linecap:butt;stroke-linejoin:miter;stroke-miterlimit:4;stroke-dasharray:none;stroke-dashoffset:0;stroke-opacity:1"/><path style="opacity:1;vector-effect:none;fill:#c1c1c1;fill-opacity:1;stroke:none;stroke-width:0.26458335px;stroke-linecap:butt;stroke-linejoin:miter;stroke-miterlimit:4;stroke-dasharray:none;stroke-dashoffset:0;stroke-opacity:1" d="m 25.749385,274.51042 1.145679,-0.66145 -1.145679,-0.66146 -1.145679,0.66146 z" id="path1109"/><path style="opacity:1;vector-effect:none;fill:#818181;fill-opacity:1;stroke:none;stroke-width:0.26458335px;stroke-linecap:butt;stroke-linejoin:miter;stroke-miterlimit:4;stroke-dasharray:none;stroke-dashoffset:0;stroke-opacity:1" d="m 24.603706,273.84896 v 1.32292 l 1.145679,-0.66146 z" id="path1172"/><path id="path1202" d="m 21.166667,275.83334 3.437039,-1.98438 v 0 1.32292 l -3.437039,1.98438 z" style="opacity:1;vector-effect:none;fill:#696969;fill-opacity:1;stroke:none;stroke-width:0.26458335px;stroke-linecap:butt;stroke-linejoin:miter;stroke-miterlimit:4;stroke-dasharray:none;stroke-dashoffset:0;stroke-opacity:1"/><path style="fill:#979797;fill-opacity:1;stroke:none;stroke-width:0.26458335px;stroke-linecap:butt;stroke-linejoin:miter;stroke-opacity:1" d="m 17.729629,273.84896 3.437038,1.98438 v 1.32291 l -3.437038,-1.98437 z" id="path1204"/><path id="path1845" d="m 7.4185134,282.44792 1.1456794,0.66146 v 1.32292 l -1.1456794,-0.66146 z" style="opacity:1;vector-effect:none;fill:#aeaeae;fill-opacity:1;stroke:none;stroke-width:0.26458335px;stroke-linecap:butt;stroke-linejoin:miter;stroke-miterlimit:4;stroke-dasharray:none;stroke-dashoffset:0;stroke-opacity:1"/><path style="opacity:1;vector-effect:none;fill:#aeaeae;fill-opacity:1;stroke:none;stroke-width:0.26458335px;stroke-linecap:butt;stroke-linejoin:miter;stroke-miterlimit:4;stroke-dasharray:none;stroke-dashoffset:0;stroke-opacity:1" d="m 8.5641929,280.46354 1.1456794,0.66146 v 1.32292 l -1.1456794,-0.66146 z" id="path1861"/><path id="path1863" d="m 9.7098724,282.44792 1.1456796,0.66146 v 1.32292 l -1.1456796,-0.66146 z" style="opacity:1;vector-effect:none;fill:#aeaeae;fill-opacity:1;stroke:none;stroke-width:0.26458335px;stroke-linecap:butt;stroke-linejoin:miter;stroke-miterlimit:4;stroke-dasharray:none;stroke-dashoffset:0;stroke-opacity:1"/><path style="opacity:1;vector-effect:none;fill:#aeaeae;fill-opacity:1;stroke:none;stroke-width:0.26458335px;stroke-linecap:butt;stroke-linejoin:miter;stroke-miterlimit:4;stroke-dasharray:none;stroke-dashoffset:0;stroke-opacity:1" d="m 10.855552,281.78646 1.145679,0.66146 v 1.32292 l -1.145679,-0.66146 z" id="path1865"/><path id="path1867" d="m 13.146911,281.78646 1.145679,0.66146 v 1.32292 l -1.145679,-0.66146 z" style="opacity:1;vector-effect:none;fill:#aeaeae;fill-opacity:1;stroke:none;stroke-width:0.26458335px;stroke-linecap:butt;stroke-linejoin:miter;stroke-miterlimit:4;stroke-dasharray:none;stroke-dashoffset:0;stroke-opacity:1"/><path style="opacity:1;vector-effect:none;fill:#aeaeae;fill-opacity:1;stroke:none;stroke-width:0.26458335px;stroke-linecap:butt;stroke-linejoin:miter;stroke-miterlimit:4;stroke-dasharray:none;stroke-dashoffset:0;stroke-opacity:1" d="m 14.29259,281.125 1.145679,0.66146 v 1.32292 l -1.145679,-0.66146 z" id="path1869"/><path id="path1871" d="m 15.43827,283.10938 1.145679,0.66146 v 1.32292 L 15.43827,284.4323 Z" style="opacity:1;vector-effect:none;fill:#aeaeae;fill-opacity:1;stroke:none;stroke-width:0.26458335px;stroke-linecap:butt;stroke-linejoin:miter;stroke-miterlimit:4;stroke-dasharray:none;stroke-dashoffset:0;stroke-opacity:1"/><path style="opacity:1;vector-effect:none;fill:#aeaeae;fill-opacity:1;stroke:none;stroke-width:0.26458335px;stroke-linecap:butt;stroke-linejoin:miter;stroke-miterlimit:4;stroke-dasharray:none;stroke-dashoffset:0;stroke-opacity:1" d="m 17.729629,283.10938 1.145679,0.66146 v 1.32292 l -1.145679,-0.66146 z" id="path1873"/><path id="path1875" d="m 17.729629,285.75521 1.145679,0.66146 v 1.32292 l -1.145679,-0.66146 z" style="opacity:1;vector-effect:none;fill:#aeaeae;fill-opacity:1;stroke:none;stroke-width:0.26458335px;stroke-linecap:butt;stroke-linejoin:miter;stroke-miterlimit:4;stroke-dasharray:none;stroke-dashoffset:0;stroke-opacity:1"/><path style="opacity:1;vector-effect:none;fill:#aeaeae;fill-opacity:1;stroke:none;stroke-width:0.26458335px;stroke-linecap:butt;stroke-linejoin:miter;stroke-miterlimit:4;stroke-dasharray:none;stroke-dashoffset:0;stroke-opacity:1" d="m 17.729629,288.40104 1.145679,0.66146 v 1.32292 l -1.145679,-0.66146 z" id="path1877"/><path id="path1879" d="m 20.020988,288.40104 1.145679,0.66146 v 1.32292 l -1.145679,-0.66146 z" style="opacity:1;vector-effect:none;fill:#aeaeae;fill-opacity:1;stroke:none;stroke-width:0.26458335px;stroke-linecap:butt;stroke-linejoin:miter;stroke-miterlimit:4;stroke-dasharray:none;stroke-dashoffset:0;stroke-opacity:1"/><path style="opacity:1;vector-effect:none;fill:#aeaeae;fill-opacity:1;stroke:none;stroke-width:0.26458335px;stroke-linecap:butt;stroke-linejoin:miter;stroke-miterlimit:4;stroke-dasharray:none;stroke-dashoffset:0;stroke-opacity:1" d="m 16.58395,286.41667 1.145679,0.66146 v 1.32292 l -1.145679,-0.66146 z" id="path1881"/><path style="opacity:1;vector-effect:none;fill:#aeaeae;fill-opacity:1;stroke:none;stroke-width:0.26458335px;stroke-linecap:butt;stroke-linejoin:miter;stroke-miterlimit:4;stroke-dasharray:none;stroke-dashoffset:0;stroke-opacity:1" d="m 20.020988,283.10938 1.145679,0.66146 v 1.32292 l -1.145679,-0.66146 z" id="path1883"/><path id="path1885" d="m 24.603706,276.49479 1.145679,0.66146 v 1.32292 l -1.145679,-0.66146 z" style="opacity:1;vector-effect:none;fill:#aeaeae;fill-opacity:1;stroke:none;stroke-width:0.26458335px;stroke-linecap:butt;stroke-linejoin:miter;stroke-miterlimit:4;stroke-dasharray:none;stroke-dashoffset:0;stroke-opacity:1"/><path style="opacity:1;vector-effect:none;fill:#aeaeae;fill-opacity:1;stroke:none;stroke-width:0.26458335px;stroke-linecap:butt;stroke-linejoin:miter;stroke-miterlimit:4;stroke-dasharray:none;stroke-dashoffset:0;stroke-opacity:1" d="m 26.895065,276.49479 1.145679,0.66146 v 1.32292 l -1.145679,-0.66146 z" id="path1887"/><path id="path1889" d="m 28.040744,278.47917 1.145679,0.66146 v 1.32292 l -1.145679,-0.66146 z" style="opacity:1;vector-effect:none;fill:#aeaeae;fill-opacity:1;stroke:none;stroke-width:0.26458335px;stroke-linecap:butt;stroke-linejoin:miter;stroke-miterlimit:4;stroke-dasharray:none;stroke-dashoffset:0;stroke-opacity:1"/><path style="opacity:1;vector-effect:none;fill:#aeaeae;fill-opacity:1;stroke:none;stroke-width:0.26458335px;stroke-linecap:butt;stroke-linejoin:miter;stroke-miterlimit:4;stroke-dasharray:none;stroke-dashoffset:0;stroke-opacity:1" d="m 18.875309,273.1875 1.145679,0.66146 v 1.32292 l -1.145679,-0.66146 z" id="path1891"/><path id="path1893" d="m 8.5641933,277.81771 1.145679,0.66146 v 1.32292 l -1.145679,-0.66146 z" style="opacity:1;vector-effect:none;fill:#aeaeae;fill-opacity:1;stroke:none;stroke-width:0.26458335px;stroke-linecap:butt;stroke-linejoin:miter;stroke-miterlimit:4;stroke-dasharray:none;stroke-dashoffset:0;stroke-opacity:1"/><path style="opacity:1;vector-effect:none;fill:#aeaeae;fill-opacity:1;stroke:none;stroke-width:0.26458335px;stroke-linecap:butt;stroke-linejoin:miter;stroke-miterlimit:4;stroke-dasharray:none;stroke-dashoffset:0;stroke-opacity:1" d="m 10.855552,279.14062 1.145679,0.66146 v 1.32292 l -1.145679,-0.66146 z" id="path1895"/><path id="path1897" d="m 6.2728344,275.17188 1.145679,0.66146 v 1.32292 l -1.145679,-0.66146 z" style="opacity:1;vector-effect:none;fill:#aeaeae;fill-opacity:1;stroke:none;stroke-width:0.26458335px;stroke-linecap:butt;stroke-linejoin:miter;stroke-miterlimit:4;stroke-dasharray:none;stroke-dashoffset:0;stroke-opacity:1"/><path id="path1899" d="m 16.58395,271.86459 1.145679,0.66146 v 1.32292 l -1.145679,-0.66146 z" style="opacity:1;vector-effect:none;fill:#aeaeae;fill-opacity:1;stroke:none;stroke-width:0.26458335px;stroke-linecap:butt;stroke-linejoin:miter;stroke-miterlimit:4;stroke-dasharray:none;stroke-dashoffset:0;stroke-opacity:1"/><path style="opacity:1;vector-effect:none;fill:#787878;fill-opacity:1;stroke:none;stroke-width:0.26458335px;stroke-linecap:butt;stroke-linejoin:miter;stroke-miterlimit:4;stroke-dasharray:none;stroke-dashoffset:0;stroke-opacity:1" d="m 22.312346,288.40104 -1.145679,0.66146 v 1.32292 l 1.145679,-0.66146 z" id="path1901"/><path id="path1926" d="m 24.603705,287.07812 -1.145679,0.66146 v 1.32292 l 1.145679,-0.66146 z" style="opacity:1;vector-effect:none;fill:#787878;fill-opacity:1;stroke:none;stroke-width:0.26458335px;stroke-linecap:butt;stroke-linejoin:miter;stroke-miterlimit:4;stroke-dasharray:none;stroke-dashoffset:0;stroke-opacity:1"/><path style="opacity:1;vector-effect:none;fill:#787878;fill-opacity:1;stroke:none;stroke-width:0.26458335px;stroke-linecap:butt;stroke-linejoin:miter;stroke-miterlimit:4;stroke-dasharray:none;stroke-dashoffset:0;stroke-opacity:1" d="m 26.895064,283.10938 -1.145679,0.66146 v 1.32292 l 1.145679,-0.66146 z" id="path1928"/><path id="path1930" d="m 28.040744,281.125 -1.145679,0.66146 v 1.32292 l 1.145679,-0.66146 z" style="opacity:1;vector-effect:none;fill:#787878;fill-opacity:1;stroke:none;stroke-width:0.26458335px;stroke-linecap:butt;stroke-linejoin:miter;stroke-miterlimit:4;stroke-dasharray:none;stroke-dashoffset:0;stroke-opacity:1"/><path style="opacity:1;vector-effect:none;fill:#787878;fill-opacity:1;stroke:none;stroke-width:0.26458335px;stroke-linecap:butt;stroke-linejoin:miter;stroke-miterlimit:4;stroke-dasharray:none;stroke-dashoffset:0;stroke-opacity:1" d="m 29.186423,283.10938 -1.145679,0.66146 v 1.32292 l 1.145679,-0.66146 z" id="path1932"/><path id="path1934" d="m 28.040744,286.41667 -1.145679,0.66146 v 1.32292 l 1.145679,-0.66146 z" style="opacity:1;vector-effect:none;fill:#787878;fill-opacity:1;stroke:none;stroke-width:0.26458335px;stroke-linecap:butt;stroke-linejoin:miter;stroke-miterlimit:4;stroke-dasharray:none;stroke-dashoffset:0;stroke-opacity:1"/><path style="opacity:1;vector-effect:none;fill:#787878;fill-opacity:1;stroke:none;stroke-width:0.26458335px;stroke-linecap:butt;stroke-linejoin:miter;stroke-miterlimit:4;stroke-dasharray:none;stroke-dashoffset:0;stroke-opacity:1" d="m 23.458025,289.0625 -1.145679,0.66146 v 1.32292 l 1.145679,-0.66146 z" id="path1936"/><path id="path1938" d="m 24.603705,285.75521 -1.145679,0.66146 v 1.32292 l 1.145679,-0.66146 z" style="opacity:1;vector-effect:none;fill:#787878;fill-opacity:1;stroke:none;stroke-width:0.26458335px;stroke-linecap:butt;stroke-linejoin:miter;stroke-miterlimit:4;stroke-dasharray:none;stroke-dashoffset:0;stroke-opacity:1"/><path style="opacity:1;vector-effect:none;fill:#787878;fill-opacity:1;stroke:none;stroke-width:0.26458335px;stroke-linecap:butt;stroke-linejoin:miter;stroke-miterlimit:4;stroke-dasharray:none;stroke-dashoffset:0;stroke-opacity:1" d="m 26.895064,285.75521 -1.145679,0.66146 v 1.32292 l 1.145679,-0.66146 z" id="path1940"/><path id="path1942" d="m 30.332102,285.09375 -1.145679,0.66146 v 1.32292 l 1.145679,-0.66146 z" style="opacity:1;vector-effect:none;fill:#787878;fill-opacity:1;stroke:none;stroke-width:0.26458335px;stroke-linecap:butt;stroke-linejoin:miter;stroke-miterlimit:4;stroke-dasharray:none;stroke-dashoffset:0;stroke-opacity:1"/><path style="opacity:1;vector-effect:none;fill:#787878;fill-opacity:1;stroke:none;stroke-width:0.26458335px;stroke-linecap:butt;stroke-linejoin:miter;stroke-miterlimit:4;stroke-dasharray:none;stroke-dashoffset:0;stroke-opacity:1" d="m 31.477782,283.10938 -1.145679,0.66146 v 1.32292 l 1.145679,-0.66146 z" id="path1944"/><path id="path1946" d="m 33.769141,280.46354 -1.145679,0.66146 v 1.32292 l 1.145679,-0.66146 z" style="opacity:1;vector-effect:none;fill:#787878;fill-opacity:1;stroke:none;stroke-width:0.26458335px;stroke-linecap:butt;stroke-linejoin:miter;stroke-miterlimit:4;stroke-dasharray:none;stroke-dashoffset:0;stroke-opacity:1"/><path style="opacity:1;vector-effect:none;fill:#787878;fill-opacity:1;stroke:none;stroke-width:0.26458335px;stroke-linecap:butt;stroke-linejoin:miter;stroke-miterlimit:4;stroke-dasharray:none;stroke-dashoffset:0;stroke-opacity:1" d="m 34.914821,281.125 -1.145679,0.66146 v 1.32292 l 1.145679,-0.66146 z" id="path1948"/><path id="path1950" d="m 33.769141,283.10938 -1.145679,0.66146 v 1.32292 l 1.145679,-0.66146 z" style="opacity:1;vector-effect:none;fill:#787878;fill-opacity:1;stroke:none;stroke-width:0.26458335px;stroke-linecap:butt;stroke-linejoin:miter;stroke-miterlimit:4;stroke-dasharray:none;stroke-dashoffset:0;stroke-opacity:1"/><path style="opacity:1;vector-effect:none;fill:#787878;fill-opacity:1;stroke:none;stroke-width:0.26458335px;stroke-linecap:butt;stroke-linejoin:miter;stroke-miterlimit:4;stroke-dasharray:none;stroke-dashoffset:0;stroke-opacity:1" d="m 31.477782,279.14063 -1.145679,0.66146 v 1.32292 l 1.145679,-0.66146 z" id="path1952"/><path id="path1954" d="m 33.769141,277.81771 -1.145679,0.66146 v 1.32292 l 1.145679,-0.66146 z" style="opacity:1;vector-effect:none;fill:#787878;fill-opacity:1;stroke:none;stroke-width:0.26458335px;stroke-linecap:butt;stroke-linejoin:miter;stroke-miterlimit:4;stroke-dasharray:none;stroke-dashoffset:0;stroke-opacity:1"/><path style="opacity:1;vector-effect:none;fill:#787878;fill-opacity:1;stroke:none;stroke-width:0.26458335px;stroke-linecap:butt;stroke-linejoin:miter;stroke-miterlimit:4;stroke-dasharray:none;stroke-dashoffset:0;stroke-opacity:1" d="m 36.0605,276.49479 -1.145679,0.66146 v 1.32292 l 1.145679,-0.66146 z" id="path1956"/><path id="path1958" d="m 25.749384,282.44792 -1.145679,0.66146 v 1.32292 l 1.145679,-0.66146 z" style="opacity:1;vector-effect:none;fill:#787878;fill-opacity:1;stroke:none;stroke-width:0.26458335px;stroke-linecap:butt;stroke-linejoin:miter;stroke-miterlimit:4;stroke-dasharray:none;stroke-dashoffset:0;stroke-opacity:1"/><path style="opacity:1;vector-effect:none;fill:#787878;fill-opacity:1;stroke:none;stroke-width:0.26458335px;stroke-linecap:butt;stroke-linejoin:miter;stroke-miterlimit:4;stroke-dasharray:none;stroke-dashoffset:0;stroke-opacity:1" d="m 22.312346,284.43229 -1.145679,0.66146 v 1.32292 l 1.145679,-0.66146 z" id="path1960"/><path id="path1962" d="m 14.29259,278.47917 -1.145679,0.66146 v 1.32292 l 1.145679,-0.66146 z" style="opacity:1;vector-effect:none;fill:#787878;fill-opacity:1;stroke:none;stroke-width:0.26458335px;stroke-linecap:butt;stroke-linejoin:miter;stroke-miterlimit:4;stroke-dasharray:none;stroke-dashoffset:0;stroke-opacity:1"/><path style="opacity:1;vector-effect:none;fill:#787878;fill-opacity:1;stroke:none;stroke-width:0.26458335px;stroke-linecap:butt;stroke-linejoin:miter;stroke-miterlimit:4;stroke-dasharray:none;stroke-dashoffset:0;stroke-opacity:1" d="m 26.895064,269.88021 -1.145679,0.66146 v 1.32292 l 1.145679,-0.66146 z" id="path1964"/><path id="path1966" d="m 25.749385,271.86458 -1.145679,0.66146 v 1.32292 l 1.145679,-0.66146 z" style="opacity:1;vector-effect:none;fill:#787878;fill-opacity:1;stroke:none;stroke-width:0.26458335px;stroke-linecap:butt;stroke-linejoin:miter;stroke-miterlimit:4;stroke-dasharray:none;stroke-dashoffset:0;stroke-opacity:1"/><path style="opacity:1;vector-effect:none;fill:#787878;fill-opacity:1;stroke:none;stroke-width:0.26458335px;stroke-linecap:butt;stroke-linejoin:miter;stroke-miterlimit:4;stroke-dasharray:none;stroke-dashoffset:0;stroke-opacity:1" d="m 25.749385,271.86458 -1.145679,0.66146 v 1.32292 l 1.145679,-0.66146 z" id="path1968"/><path id="path4695" d="m 17.729629,275.17187 1.145679,0.66146 v 1.32292 l -1.145679,-0.66146 z" style="opacity:1;vector-effect:none;fill:#aeaeae;fill-opacity:1;stroke:none;stroke-width:0.26458335px;stroke-linecap:butt;stroke-linejoin:miter;stroke-miterlimit:4;stroke-dasharray:none;stroke-dashoffset:0;stroke-opacity:1"/><path style="opacity:1;vector-effect:none;fill:#aeaeae;fill-opacity:1;stroke:none;stroke-width:0.26458335px;stroke-linecap:butt;stroke-linejoin:miter;stroke-miterlimit:4;stroke-dasharray:none;stroke-dashoffset:0;stroke-opacity:1" d="m 18.875309,277.15625 1.145679,0.66146 v 1.32292 l -1.145679,-0.66146 z" id="path4697"/><path id="path4701" d="m 17.729629,277.81771 0,2.64583 -1.14568,-0.66146 v -1.32291 z" style="opacity:1;vector-effect:none;fill:#696969;fill-opacity:1;stroke:none;stroke-width:0.26458335px;stroke-linecap:butt;stroke-linejoin:miter;stroke-miterlimit:4;stroke-dasharray:none;stroke-dashoffset:0;stroke-opacity:1"/><path id="path4717" d="m 12.001231,282.44792 4.582718,2.64583 v 1.32291 l -4.582718,-2.64583 z" style="fill:#d56500;stroke:none;stroke-width:0.26458335px;stroke-linecap:butt;stroke-linejoin:miter;stroke-opacity:1;font-variant-east_asian:normal;opacity:1;vector-effect:none;fill-opacity:1;stroke-miterlimit:4;stroke-dasharray:none;stroke-dashoffset:0"/><path id="path4680" d="m 25.749384,278.47916 -1.145679,0.66146 v 1.32292 l 1.145679,-0.66146 z" style="opacity:1;vector-effect:none;fill:#787878;fill-opacity:1;stroke:none;stroke-width:0.26458335px;stroke-linecap:butt;stroke-linejoin:miter;stroke-miterlimit:4;stroke-dasharray:none;stroke-dashoffset:0;stroke-opacity:1"/><path style="opacity:1;vector-effect:none;fill:#787878;fill-opacity:1;stroke:none;stroke-width:0.26458335px;stroke-linecap:butt;stroke-linejoin:miter;stroke-miterlimit:4;stroke-dasharray:none;stroke-dashoffset:0;stroke-opacity:1" d="m 23.458025,277.15625 -1.145679,0.66146 v 1.32292 l 1.145679,-0.66146 z" id="path4682"/><path style="opacity:1;vector-effect:none;fill:#787878;fill-opacity:1;stroke:none;stroke-width:0.26458335px;stroke-linecap:butt;stroke-linejoin:miter;stroke-miterlimit:4;stroke-dasharray:none;stroke-dashoffset:0;stroke-opacity:1" d="m 24.603705,275.17187 -1.145679,0.66146 v 1.32292 l 1.145679,-0.66146 z" id="path4684"/><path id="path4686" d="m 22.312346,273.84895 -1.145679,0.66146 v 1.32292 l 1.145679,-0.66146 z" style="opacity:1;vector-effect:none;fill:#787878;fill-opacity:1;stroke:none;stroke-width:0.26458335px;stroke-linecap:butt;stroke-linejoin:miter;stroke-miterlimit:4;stroke-dasharray:none;stroke-dashoffset:0;stroke-opacity:1"/><path style="opacity:1;vector-effect:none;fill:#787878;fill-opacity:1;stroke:none;stroke-width:0.26458335px;stroke-linecap:butt;stroke-linejoin:miter;stroke-miterlimit:4;stroke-dasharray:none;stroke-dashoffset:0;stroke-opacity:1" d="m 24.603705,271.20312 -1.145679,0.66146 v 1.32292 l 1.145679,-0.66146 z" id="path4688"/><path style="opacity:1;vector-effect:none;fill:#787878;fill-opacity:1;stroke:none;stroke-width:0.26458335px;stroke-linecap:butt;stroke-linejoin:miter;stroke-miterlimit:4;stroke-dasharray:none;stroke-dashoffset:0;stroke-opacity:1" d="m 15.43827,276.49479 -1.145679,0.66146 v 1.32292 l 1.145679,-0.66146 z" id="path4690"/><path id="path4692" d="m 17.729629,276.49479 -1.145679,0.66146 v 1.32292 l 1.145679,-0.66146 z" style="opacity:1;vector-effect:none;fill:#787878;fill-opacity:1;stroke:none;stroke-width:0.26458335px;stroke-linecap:butt;stroke-linejoin:miter;stroke-miterlimit:4;stroke-dasharray:none;stroke-dashoffset:0;stroke-opacity:1"/></g></svg>
